<svg xmlns="http://www.w3.org/2000/svg" xmlns:xlink="http://www.w3.org/1999/xlink" viewBox="0 0 610.07 388.94"><defs><style>.cls-1{fill:url(#Gradiente_sem_nome_3);}.cls-2{fill:url(#Gradiente_sem_nome_3-2);}</style><linearGradient id="Gradiente_sem_nome_3" x1="429.82" y1="377.74" x2="49.15" y2="157.97" gradientUnits="userSpaceOnUse"><stop offset="0" stop-color="#67bc9b"/><stop offset="0.2" stop-color="#66b89b"/><stop offset="0.4" stop-color="#61ac9c"/><stop offset="0.6" stop-color="#5a979e"/><stop offset="0.8" stop-color="#507ba0"/><stop offset="1" stop-color="#4358a3"/></linearGradient><linearGradient id="Gradiente_sem_nome_3-2" x1="110.77" y1="83.36" x2="610.07" y2="83.36" xlink:href="#Gradiente_sem_nome_3"/></defs><g id="Camada_2" data-name="Camada 2"><g id="Camada_1-2" data-name="Camada 1"><path class="cls-1" d="M94.21,277.82l63.69,63.7,1.47,1.61a25.47,25.47,0,0,1,2.55,3.52c10,16.31-2.27,42.29-23.68,42.29a29.31,29.31,0,0,1-19.63-8.15L7.49,269.7a28.86,28.86,0,0,1-2.82-3.33c-10.9-15-1.83-40.59,18.13-43.76a26.3,26.3,0,0,1,4.35-.33H471.58l2.17.08a29.38,29.38,0,0,1,4.3.67c18.77,4.52,28,31.86,13.17,46.67a29.31,29.31,0,0,1-19.64,8.12Z"/><path class="cls-2" d="M582.67,166.71H138.24a25.15,25.15,0,0,1-4.32-.33c-17-2.69-28.73-23.74-20.41-40,4.6-9,14.36-14.76,24.73-15.17H515.62l-63.7-63.7-1.47-1.61a24.32,24.32,0,0,1-2.55-3.52c-9.34-15.22.31-38.93,19.33-41.95a21.59,21.59,0,0,1,6.52-.25,24.86,24.86,0,0,1,4.3.69,29.61,29.61,0,0,1,13.17,7.38L602.33,119.29a30,30,0,0,1,2.83,3.33c8.9,12.26,5.38,31.83-8,40A28.18,28.18,0,0,1,587,166.38,25.27,25.27,0,0,1,582.67,166.71Z"/></g></g></svg>