<svg xmlns="http://www.w3.org/2000/svg" xmlns:xlink="http://www.w3.org/1999/xlink" viewBox="0 0 874.47 494.09"><defs><style>.cls-1,.cls-7{fill:#18132d;}.cls-2{fill:#6c9;}.cls-3{font-size:45.79px;}.cls-3,.cls-9{fill:#fff;}.cls-3,.cls-7{font-family:Montserrat-Black, Montserrat;font-weight:800;}.cls-4{letter-spacing:-0.02em;}.cls-5{letter-spacing:-0.01em;}.cls-6{letter-spacing:0em;}.cls-7{font-size:87.01px;}.cls-8{fill:url(#Gradiente_sem_nome_3);}.cls-9{font-size:31.3px;font-family:Montserrat-Regular, Montserrat;}.cls-10{letter-spacing:-0.01em;}.cls-11{letter-spacing:-0.02em;}.cls-12{letter-spacing:0em;}</style><linearGradient id="Gradiente_sem_nome_3" x1="328.82" y1="379.35" x2="874.47" y2="379.35" gradientUnits="userSpaceOnUse"><stop offset="0" stop-color="#67bc9b"/><stop offset="0.2" stop-color="#66b89b"/><stop offset="0.4" stop-color="#61ac9c"/><stop offset="0.6" stop-color="#5a979e"/><stop offset="0.8" stop-color="#507ba0"/><stop offset="1" stop-color="#4358a3"/></linearGradient></defs><g id="Camada_2" data-name="Camada 2"><g id="Background"><path class="cls-1" d="M501,81.67,0,31.51v.08H.77V326.94H.65v104.3L31,474.51c15.51,22.13,48.27,26.15,71.25,8.73L523,164.36C558,137.83,544.19,86,501,81.67Z"/><rect class="cls-2" x="382.4" y="64.49" width="438.49" height="115.59" rx="57.8"/><text class="cls-3" transform="translate(419.13 135.56)">$<tspan class="cls-4" x="30.08" y="0">W</tspan><tspan x="84.62" y="0">E</tspan><tspan class="cls-5" x="115.44" y="0">B</tspan><tspan x="150.38" y="0">T </tspan><tspan class="cls-5" x="194.06" y="0">T</tspan><tspan class="cls-6" x="223.55" y="0">OKEN</tspan></text><text class="cls-7" transform="translate(419.13 73.96)">JOIN </text><text class="cls-7" transform="translate(548.36 225.55)">SALE</text><path class="cls-1" d="M441.39,272.54v-8.63H445v8.5c0,2.92,1.27,4.13,3.43,4.13s3.43-1.21,3.43-4.13v-8.5h3.52v8.63c0,4.53-2.59,7-7,7S441.39,277.07,441.39,272.54Z"/><path class="cls-1" d="M473,263.91v15.41h-2.93L462.38,270v9.36h-3.52V263.91h2.95l7.66,9.35v-9.35Z"/><path class="cls-1" d="M476.64,263.91h3.56v15.41h-3.56Z"/><path class="cls-1" d="M482.64,277.8l1.21-2.69a9,9,0,0,0,5.08,1.61c2.12,0,3-.71,3-1.65,0-2.88-9-.9-9-6.62,0-2.62,2.11-4.8,6.49-4.8a10.35,10.35,0,0,1,5.35,1.36l-1.1,2.71a8.76,8.76,0,0,0-4.27-1.21c-2.11,0-2.93.79-2.93,1.76,0,2.84,9,.88,9,6.53,0,2.58-2.14,4.78-6.54,4.78A11,11,0,0,1,482.64,277.8Z"/><path class="cls-1" d="M521.17,263.91l-5,15.41H512.3l-3.39-10.43-3.5,10.43h-3.8l-5.07-15.41h3.7l3.48,10.83,3.63-10.83h3.3l3.52,10.92,3.59-10.92Z"/><path class="cls-1" d="M532.78,276h-7.15l-1.36,3.31h-3.66l6.87-15.41H531l6.89,15.41h-3.74Zm-1.12-2.7-2.44-5.9-2.45,5.9Z"/><path class="cls-1" d="M552.84,269.5c0,3.43-2.57,5.57-6.68,5.57h-3.11v4.25h-3.56V263.91h6.67C550.27,263.91,552.84,266.05,552.84,269.5Zm-3.6,0c0-1.69-1.1-2.68-3.28-2.68h-2.91v5.34H546C548.14,272.16,549.24,271.17,549.24,269.5Z"/><path class="cls-1" d="M572,276h-7.15l-1.36,3.31h-3.66l6.87-15.41h3.52l6.89,15.41h-3.74Zm-1.12-2.7-2.44-5.9-2.44,5.9Z"/><path class="cls-1" d="M592.8,263.91v15.41h-2.93L582.19,270v9.36h-3.52V263.91h3l7.66,9.35v-9.35Z"/><path class="cls-1" d="M596.45,263.91h7c5,0,8.5,3,8.5,7.7s-3.46,7.71-8.5,7.71h-7Zm6.82,12.48c3.06,0,5.06-1.83,5.06-4.78s-2-4.77-5.06-4.77H600v9.55Z"/><path class="cls-1" d="M620.84,263.91h7c5,0,8.49,3,8.49,7.7s-3.45,7.71-8.49,7.71h-7Zm6.82,12.48c3.06,0,5.07-1.83,5.07-4.78s-2-4.77-5.07-4.77h-3.25v9.55Z"/><path class="cls-1" d="M650.94,276.46v2.86H639V263.91h11.64v2.86h-8.1v3.35h7.15v2.77h-7.15v3.57Z"/><path class="cls-1" d="M663.33,279.32,659.61,274,656,279.32h-4.1l5.7-7.84-5.41-7.57h4.05l3.54,5,3.48-5h3.85l-5.37,7.44,5.74,8Z"/><path class="cls-1" d="M675.56,263.91h3.56v12.5h7.72v2.91H675.56Z"/><path class="cls-1" d="M688.85,263.91h3.56v15.41h-3.56Z"/><path class="cls-1" d="M694.85,277.8l1.21-2.69a9,9,0,0,0,5.08,1.61c2.12,0,3-.71,3-1.65,0-2.88-9-.9-9-6.62,0-2.62,2.11-4.8,6.49-4.8A10.35,10.35,0,0,1,707,265l-1.1,2.71a8.76,8.76,0,0,0-4.27-1.21c-2.11,0-2.93.79-2.93,1.76,0,2.84,9,.88,9,6.53,0,2.58-2.14,4.78-6.54,4.78A11,11,0,0,1,694.85,277.8Z"/><path class="cls-1" d="M713.07,266.82h-4.93v-2.91h13.42v2.91h-4.93v12.5h-3.56Z"/><path class="cls-1" d="M723.47,263.91H727v15.41h-3.57Z"/><path class="cls-1" d="M744.81,263.91v15.41h-2.92L734.21,270v9.36h-3.52V263.91h2.95l7.65,9.35v-9.35Z"/><path class="cls-1" d="M758.87,271.37h3.26v6.25a10.63,10.63,0,0,1-6.23,2c-4.84,0-8.4-3.32-8.4-8s3.56-8,8.47-8a8.19,8.19,0,0,1,6.44,2.66l-2.28,2.11a5.25,5.25,0,0,0-4-1.73,4.93,4.93,0,1,0,0,9.85,5.58,5.58,0,0,0,2.77-.66Z"/><path class="cls-1" d="M519.37,307.61c0-4.64,3.56-8,8.36-8a8,8,0,0,1,6.34,2.73l-2.29,2.11a4.93,4.93,0,0,0-3.87-1.8,4.93,4.93,0,1,0,0,9.85,4.89,4.89,0,0,0,3.87-1.82l2.29,2.11a7.93,7.93,0,0,1-6.36,2.75C522.93,315.58,519.37,312.26,519.37,307.61Z"/><path class="cls-1" d="M535.17,307.61c0-4.57,3.56-8,8.42-8s8.43,3.37,8.43,8-3.59,8-8.43,8S535.17,312.19,535.17,307.61Zm13.24,0a4.82,4.82,0,1,0-4.82,4.93A4.7,4.7,0,0,0,548.41,307.61Z"/><path class="cls-1" d="M568.72,315.32l0-9.25-4.54,7.62h-1.6l-4.51-7.42v9.05H554.7V299.91h2.95l5.76,9.57,5.68-9.57H572l0,15.41Z"/><path class="cls-1" d="M575.71,299.91h3.57v15.41h-3.57Z"/><path class="cls-1" d="M597.05,299.91v15.41h-2.92L586.45,306v9.36h-3.52V299.91h3l7.65,9.35v-9.35Z"/><path class="cls-1" d="M611.11,307.37h3.26v6.25a10.63,10.63,0,0,1-6.23,2c-4.84,0-8.4-3.32-8.4-8s3.56-8,8.47-8a8.19,8.19,0,0,1,6.44,2.66l-2.28,2.11a5.26,5.26,0,0,0-4-1.73,4.93,4.93,0,1,0,0,9.85,5.58,5.58,0,0,0,2.77-.66Z"/><path class="cls-1" d="M622.68,313.8l1.21-2.69a9,9,0,0,0,5.08,1.61c2.12,0,3-.71,3-1.65,0-2.88-9-.9-9-6.62,0-2.62,2.11-4.8,6.49-4.8a10.35,10.35,0,0,1,5.35,1.36l-1.1,2.71a8.76,8.76,0,0,0-4.27-1.21c-2.11,0-2.93.79-2.93,1.76,0,2.84,9,.88,9,6.53,0,2.58-2.14,4.78-6.54,4.78A11,11,0,0,1,622.68,313.8Z"/><path class="cls-1" d="M637,307.61c0-4.57,3.56-8,8.43-8s8.42,3.37,8.42,8-3.58,8-8.42,8S637,312.19,637,307.61Zm13.24,0a4.82,4.82,0,1,0-4.81,4.93A4.69,4.69,0,0,0,650.2,307.61Z"/><path class="cls-1" d="M655.53,307.61c0-4.57,3.56-8,8.42-8s8.43,3.37,8.43,8-3.59,8-8.43,8S655.53,312.19,655.53,307.61Zm13.24,0a4.82,4.82,0,1,0-4.82,4.93A4.7,4.7,0,0,0,668.77,307.61Z"/><path class="cls-1" d="M689.19,299.91v15.41h-2.93L678.58,306v9.36h-3.52V299.91h3l7.66,9.35v-9.35Z"/><rect class="cls-8" x="328.82" y="345.91" width="545.65" height="66.87" rx="25.46"/><text class="cls-9" transform="translate(361.93 390.83)">B<tspan class="cls-10" x="23.6" y="0">U</tspan><tspan x="48.08" y="0">Y THROUGH OUR </tspan><tspan class="cls-11" x="332.98" y="0">W</tspan><tspan class="cls-12" x="367.28" y="0">EBSITE</tspan></text></g></g></svg>