<svg xmlns="http://www.w3.org/2000/svg" viewBox="0 0 37.01 37.01"><defs><style>.cls-1{fill:#fff;}.cls-2{fill:#18132d;}</style></defs><g id="Camada_2" data-name="Camada 2"><g id="Background"><circle class="cls-1" cx="18.51" cy="18.51" r="18.51"/><path class="cls-2" d="M24.25,11.51a1.27,1.27,0,1,0,1.27,1.27A1.27,1.27,0,0,0,24.25,11.51Z"/><path class="cls-2" d="M18.6,13.14a5.34,5.34,0,1,0,5.34,5.34A5.35,5.35,0,0,0,18.6,13.14Zm0,8.76A3.42,3.42,0,1,1,22,18.48,3.43,3.43,0,0,1,18.6,21.9Z"/><path class="cls-2" d="M22.84,29.33H14.17a6.52,6.52,0,0,1-6.51-6.52V14.15a6.53,6.53,0,0,1,6.51-6.52h8.67a6.53,6.53,0,0,1,6.52,6.52v8.66A6.53,6.53,0,0,1,22.84,29.33ZM14.17,9.67A4.48,4.48,0,0,0,9.7,14.15v8.66a4.48,4.48,0,0,0,4.47,4.48h8.67a4.49,4.49,0,0,0,4.48-4.48V14.15a4.49,4.49,0,0,0-4.48-4.48Z"/></g></g></svg>