<svg xmlns="http://www.w3.org/2000/svg" xmlns:xlink="http://www.w3.org/1999/xlink" viewBox="0 0 509.63 457.27"><defs><style>.cls-1{fill:url(#Gradiente_sem_nome_66);}.cls-2{fill:url(#Gradiente_sem_nome_55);}.cls-3{fill:url(#Gradiente_sem_nome_104);}.cls-4{fill:url(#Gradiente_sem_nome_53);}.cls-5{fill:url(#Gradiente_sem_nome_62);}.cls-6{fill:url(#Gradiente_sem_nome_126);}.cls-7{fill:url(#Gradiente_sem_nome_5);}.cls-10,.cls-11,.cls-20,.cls-8,.cls-9{fill:none;stroke:#71bf96;stroke-miterlimit:10;stroke-width:2px;}.cls-9{stroke-dasharray:4.09 4.09;}.cls-10{stroke-dasharray:4.09 4.09;}.cls-11{stroke-dasharray:4.01 4.01;}.cls-12,.cls-14,.cls-16,.cls-18{fill:#fff;}.cls-13{opacity:0.5;}.cls-14,.cls-16,.cls-18{font-size:9.23px;font-family:Montserrat-Bold, Montserrat;font-weight:700;}.cls-15,.cls-16{letter-spacing:-0.01em;}.cls-17{letter-spacing:0em;}.cls-18{letter-spacing:0.01em;}.cls-19{letter-spacing:0.01em;}.cls-20{stroke-dasharray:3.96 3.96;}.cls-21{letter-spacing:-0.01em;}.cls-22{fill:#19162d;}</style><linearGradient id="Gradiente_sem_nome_66" x1="227.27" y1="216.31" x2="361.53" y2="316.57" gradientUnits="userSpaceOnUse"><stop offset="0" stop-color="#eb5d48"/><stop offset="1" stop-color="#db3a41"/></linearGradient><linearGradient id="Gradiente_sem_nome_55" x1="259.91" y1="172.67" x2="376.49" y2="259.74" gradientUnits="userSpaceOnUse"><stop offset="0" stop-color="#4359a4"/><stop offset="0.83" stop-color="#414b9a"/><stop offset="1" stop-color="#404798"/></linearGradient><linearGradient id="Gradiente_sem_nome_104" x1="221.58" y1="134.58" x2="320.75" y2="208.63" gradientUnits="userSpaceOnUse"><stop offset="0" stop-color="#f39200"/><stop offset="0.16" stop-color="#f18d01"/><stop offset="0.35" stop-color="#eb7f05"/><stop offset="0.54" stop-color="#e1680c"/><stop offset="0.75" stop-color="#d34715"/><stop offset="0.97" stop-color="#c11d20"/><stop offset="1" stop-color="#be1622"/></linearGradient><linearGradient id="Gradiente_sem_nome_53" x1="48.83" y1="176.93" x2="308.04" y2="370.5" gradientUnits="userSpaceOnUse"><stop offset="0" stop-color="#0b4c64"/><stop offset="0.4" stop-color="#195872"/><stop offset="1" stop-color="#36708f"/></linearGradient><linearGradient id="Gradiente_sem_nome_62" x1="129.97" y1="86.83" x2="254.89" y2="180.11" gradientUnits="userSpaceOnUse"><stop offset="0" stop-color="#71bf96"/><stop offset="0.12" stop-color="#5dbb98"/><stop offset="0.38" stop-color="#37b49a"/><stop offset="0.63" stop-color="#1baf9c"/><stop offset="0.84" stop-color="#0bac9e"/><stop offset="1" stop-color="#05ab9e"/></linearGradient><linearGradient id="Gradiente_sem_nome_126" x1="182.27" y1="110.78" x2="262.08" y2="170.39" gradientUnits="userSpaceOnUse"><stop offset="0" stop-color="#312783"/><stop offset="0.13" stop-color="#362683"/><stop offset="0.28" stop-color="#442382"/><stop offset="0.44" stop-color="#5b1e82"/><stop offset="0.61" stop-color="#7c1781"/><stop offset="0.78" stop-color="#a60e80"/><stop offset="0.96" stop-color="#d9037e"/><stop offset="1" stop-color="#e6007e"/></linearGradient><linearGradient id="Gradiente_sem_nome_5" x1="197.11" y1="256.7" x2="327.39" y2="353.99" gradientUnits="userSpaceOnUse"><stop offset="0" stop-color="#312783"/><stop offset="0.2" stop-color="#30267e"/><stop offset="0.43" stop-color="#2c2370"/><stop offset="0.68" stop-color="#251f59"/><stop offset="0.93" stop-color="#1c1838"/><stop offset="1" stop-color="#19162e"/></linearGradient></defs><g id="Camada_2" data-name="Camada 2"><g id="Camada_1-2" data-name="Camada 1"><path class="cls-1" d="M380.27,254.43c-5,43.93-27,81.23-59.35,108L215,233.31Z"/><path class="cls-2" d="M380.27,254.43a168.19,168.19,0,0,0,1.26-20.57,165.85,165.85,0,0,0-20.26-79.69L215,233.31Z"/><path class="cls-3" d="M361.27,154.17a167.06,167.06,0,0,0-95.13-78.86L215,233.31Z"/><path class="cls-4" d="M305,374A166.58,166.58,0,1,1,125.44,93.39Z"/><path class="cls-5" d="M215,67.3a165.7,165.7,0,0,0-89.53,26.09L215,233.31Z"/><path class="cls-6" d="M266.14,75.31a166.42,166.42,0,0,0-51.17-8v166Z"/><path class="cls-7" d="M320.92,362.39A166.47,166.47,0,0,1,305,374l-90-140.7Z"/><line class="cls-8" x1="172.36" y1="83.93" x2="170.36" y2="83.93"/><line class="cls-9" x1="166.28" y1="83.93" x2="37.6" y2="83.93"/><line class="cls-8" x1="35.55" y1="83.93" x2="33.55" y2="83.93"/><line class="cls-8" x1="447.71" y1="102.11" x2="445.71" y2="102.11"/><line class="cls-10" x1="441.62" y1="102.11" x2="304.56" y2="102.11"/><line class="cls-8" x1="302.52" y1="102.11" x2="300.52" y2="102.11"/><line class="cls-8" x1="308.94" y1="457.15" x2="308.94" y2="455.15"/><line class="cls-11" x1="308.94" y1="451.14" x2="308.94" y2="364.93"/><line class="cls-8" x1="308.94" y1="362.92" x2="308.94" y2="360.92"/><line class="cls-8" x1="246.54" y1="96.23" x2="246.54" y2="94.23"/><line class="cls-11" x1="246.54" y1="90.22" x2="246.54" y2="4.01"/><line class="cls-8" x1="246.54" y1="2" x2="246.54"/><path class="cls-12" d="M152.49,1.73h-2.07V.51h5.63V1.73H154V7h-1.49Z"/><path class="cls-12" d="M161.86,5.77V7h-5V.51h4.89v1.2h-3.4v1.4h3V4.28h-3V5.77Z"/><path class="cls-12" d="M167.3,5.59h-3L163.73,7H162.2L165.08.51h1.48L169.45,7h-1.57Zm-.47-1.14-1-2.47-1,2.47Z"/><path class="cls-12" d="M176,7V3.09l-1.9,3.2h-.68l-1.89-3.11V7h-1.4V.51h1.24l2.41,4,2.39-4h1.22l0,6.46Z"/><path class="cls-12" d="M186.51,7.08l-.77-.72a3.47,3.47,0,0,1-2.16.72c-1.42,0-2.47-.74-2.47-1.77,0-.81.44-1.38,1.43-1.93A1.89,1.89,0,0,1,181.87,2c0-.94.79-1.58,2-1.58s1.86.57,1.86,1.48c0,.67-.39,1.16-1.27,1.64l1.19,1.1a5,5,0,0,0,.32-1l1.15.36a4.28,4.28,0,0,1-.59,1.47l.76.7Zm-1.62-1.5-1.56-1.46c-.59.34-.8.64-.8,1S183,6,183.68,6A2.07,2.07,0,0,0,184.89,5.58ZM183.18,2c0,.25.1.43.5.82.64-.34.84-.58.84-.88s-.22-.53-.64-.53S183.18,1.65,183.18,2Z"/><path class="cls-12" d="M195.14,5.59h-3L191.56,7H190L192.91.51h1.48L197.28,7h-1.57Zm-.47-1.14-1-2.47-1,2.47Z"/><path class="cls-12" d="M198,.51h2.94c2.11,0,3.56,1.27,3.56,3.23S203,7,200.89,7H198Zm2.86,5.23a1.93,1.93,0,0,0,2.13-2,1.93,1.93,0,0,0-2.13-2h-1.36v4Z"/><path class="cls-12" d="M211.58.51,208.78,7H207.3L204.52.51h1.61l2,4.62,2-4.62Z"/><path class="cls-12" d="M212.11.51h1.5V7h-1.5Z"/><path class="cls-12" d="M214.63,6.34l.51-1.13a3.77,3.77,0,0,0,2.13.67c.89,0,1.25-.29,1.25-.69,0-1.21-3.76-.38-3.76-2.78,0-1.1.89-2,2.73-2a4.31,4.31,0,0,1,2.24.57l-.46,1.14a3.57,3.57,0,0,0-1.79-.51c-.89,0-1.23.33-1.23.74,0,1.19,3.75.37,3.75,2.74,0,1.08-.89,2-2.74,2A4.66,4.66,0,0,1,214.63,6.34Z"/><path class="cls-12" d="M220.62,3.74a3.55,3.55,0,1,1,3.54,3.34A3.35,3.35,0,0,1,220.62,3.74Zm5.56,0a2,2,0,1,0-4,0,2,2,0,1,0,4,0Z"/><path class="cls-12" d="M232.94,7l-1.25-1.8h-1.37V7h-1.5V.51h2.8c1.73,0,2.81.9,2.81,2.34a2.1,2.1,0,0,1-1.33,2L234.55,7Zm-1.4-5.24h-1.22V4h1.22c.91,0,1.37-.42,1.37-1.13S232.45,1.73,231.54,1.73Z"/><path class="cls-12" d="M235.1,6.34l.51-1.13a3.74,3.74,0,0,0,2.13.67c.89,0,1.25-.29,1.25-.69,0-1.21-3.76-.38-3.76-2.78,0-1.1.89-2,2.72-2A4.38,4.38,0,0,1,240.2,1l-.47,1.14a3.57,3.57,0,0,0-1.79-.51c-.88,0-1.23.33-1.23.74,0,1.19,3.76.37,3.76,2.74,0,1.08-.89,2-2.74,2A4.63,4.63,0,0,1,235.1,6.34Z"/><g class="cls-13"><text class="cls-14" transform="translate(252.33 16.25)">5<tspan class="cls-15" x="5.49" y="0">.</tspan><tspan x="7.79" y="0">0%</tspan></text></g><path class="cls-12" d="M369.84,90.22h1.49v5.24h3.24v1.22h-4.73Z"/><path class="cls-12" d="M375.41,90.22h1.5v6.46h-1.5Z"/><path class="cls-12" d="M385.43,97.37a2.2,2.2,0,0,1-1.75.79,3.38,3.38,0,0,1-2.63-1.4,3.3,3.3,0,0,1-3-3.31,3.54,3.54,0,0,1,7.07,0,3.24,3.24,0,0,1-2.3,3.15,1.17,1.17,0,0,0,.91.46,1.4,1.4,0,0,0,1.05-.48Zm-3.86-1.86a2.07,2.07,0,1,0-2-2.06A2,2,0,0,0,381.57,95.51Z"/><path class="cls-12" d="M386.18,93.83V90.22h1.49v3.56c0,1.23.54,1.73,1.44,1.73s1.44-.5,1.44-1.73V90.22H392v3.61a2.93,2.93,0,1,1-5.85,0Z"/><path class="cls-12" d="M393.51,90.22H395v6.46h-1.49Z"/><path class="cls-12" d="M396.53,90.22h2.94c2.11,0,3.56,1.27,3.56,3.23s-1.45,3.23-3.56,3.23h-2.94Zm2.86,5.23a2,2,0,1,0,0-4H398v4Z"/><path class="cls-12" d="M404.16,90.22h1.49v6.46h-1.49Z"/><path class="cls-12" d="M408.52,91.43h-2.06V90.22h5.63v1.21H410v5.25h-1.5Z"/><path class="cls-12" d="M415.87,94.39v2.29h-1.49V94.37l-2.5-4.15h1.58l1.73,2.87,1.73-2.87h1.46Z"/><path class="cls-12" d="M423.12,91.42v1.7h3v1.2h-3v2.36h-1.5V90.22h4.89v1.2Z"/><path class="cls-12" d="M427.47,93.83V90.22H429v3.56c0,1.23.54,1.73,1.44,1.73s1.44-.5,1.44-1.73V90.22h1.48v3.61a2.93,2.93,0,1,1-5.85,0Z"/><path class="cls-12" d="M440.72,90.22v6.46H439.5l-3.23-3.93v3.93H434.8V90.22H436l3.22,3.92V90.22Z"/><path class="cls-12" d="M442.26,90.22h2.93c2.12,0,3.57,1.27,3.57,3.23s-1.45,3.23-3.57,3.23h-2.93Zm2.86,5.23a2,2,0,1,0,0-4h-1.37v4Z"/><path class="cls-12" d="M40.22,77.16v1.2h-5V71.9H40.1v1.2H36.7v1.4h3v1.16h-3v1.5Z"/><path class="cls-12" d="M41,75.13a3.56,3.56,0,0,1,6.16-2.2l-1,.89a2.07,2.07,0,0,0-1.62-.76,2.07,2.07,0,1,0,0,4.14,2.05,2.05,0,0,0,1.62-.77l1,.89A3.55,3.55,0,0,1,41,75.13Z"/><path class="cls-12" d="M47.61,75.13a3.55,3.55,0,1,1,3.54,3.34A3.35,3.35,0,0,1,47.61,75.13Zm5.56,0a2,2,0,1,0-2,2.07A2,2,0,0,0,53.17,75.13Z"/><path class="cls-12" d="M55.3,77.72l.51-1.13a3.8,3.8,0,0,0,2.13.68c.89,0,1.25-.3,1.25-.69,0-1.21-3.76-.38-3.76-2.78,0-1.1.89-2,2.73-2a4.31,4.31,0,0,1,2.24.57l-.46,1.13a3.66,3.66,0,0,0-1.79-.5c-.89,0-1.23.33-1.23.73,0,1.2,3.76.37,3.76,2.75,0,1.08-.9,2-2.74,2A4.67,4.67,0,0,1,55.3,77.72Z"/><path class="cls-12" d="M64.67,76.07v2.29h-1.5V76.05l-2.5-4.15h1.59L64,74.77l1.73-2.87h1.47Z"/><path class="cls-12" d="M67.16,77.72l.51-1.13a3.75,3.75,0,0,0,2.13.68c.88,0,1.24-.3,1.24-.69,0-1.21-3.75-.38-3.75-2.78,0-1.1.88-2,2.72-2a4.31,4.31,0,0,1,2.24.57l-.46,1.13A3.66,3.66,0,0,0,70,73c-.89,0-1.23.33-1.23.73,0,1.2,3.76.37,3.76,2.75,0,1.08-.9,2-2.74,2A4.61,4.61,0,0,1,67.16,77.72Z"/><path class="cls-12" d="M74.8,73.12H72.73V71.9h5.63v1.22H76.3v5.24H74.8Z"/><path class="cls-12" d="M84.17,77.16v1.2h-5V71.9h4.88v1.2h-3.4v1.4h3v1.16h-3v1.5Z"/><path class="cls-12" d="M91.24,78.36V74.48l-1.9,3.2h-.67l-1.9-3.12v3.8h-1.4V71.9H86.6l2.42,4,2.38-4h1.23l0,6.46Z"/><g class="cls-13"><text class="cls-16" transform="translate(35.37 95.97)">9.<tspan class="cls-17" x="8.06" y="0">0%</tspan></text></g><path class="cls-12" d="M321.46,453c0,1.44-1.08,2.33-2.81,2.33h-1.3v1.79h-1.5v-6.47h2.8C320.38,450.69,321.46,451.59,321.46,453Zm-1.52,0c0-.71-.46-1.13-1.37-1.13h-1.22v2.25h1.22C319.48,454.16,319.94,453.74,319.94,453Z"/><path class="cls-12" d="M322.43,454.31v-3.62h1.5v3.57c0,1.22.53,1.73,1.44,1.73s1.44-.51,1.44-1.73v-3.57h1.48v3.62a2.93,2.93,0,1,1-5.86,0Z"/><path class="cls-12" d="M335.69,455.39c0,1.12-.89,1.77-2.58,1.77h-3.35v-6.47h3.16c1.62,0,2.45.68,2.45,1.68a1.64,1.64,0,0,0,.32,3Zm-4.44-3.57v1.52h1.49c.72,0,1.12-.26,1.12-.76s-.4-.76-1.12-.76Zm2.94,3.42c0-.55-.42-.81-1.2-.81h-1.74V456H333C333.77,456,334.19,455.79,334.19,455.24Z"/><path class="cls-12" d="M336.83,450.69h1.49v5.25h3.24v1.22h-4.73Z"/><path class="cls-12" d="M342.4,450.69h1.5v6.47h-1.5Z"/><path class="cls-12" d="M345,453.92a3.56,3.56,0,0,1,6.17-2.19l-1,.88a2.1,2.1,0,0,0-1.63-.75,2.07,2.07,0,0,0,0,4.13,2.08,2.08,0,0,0,1.63-.76l1,.88a3.55,3.55,0,0,1-6.17-2.19Z"/><path class="cls-12" d="M354.3,456.52l.51-1.13a3.78,3.78,0,0,0,2.13.68c.89,0,1.25-.3,1.25-.7,0-1.21-3.76-.37-3.76-2.78,0-1.09.89-2,2.72-2a4.42,4.42,0,0,1,2.25.57l-.47,1.14a3.64,3.64,0,0,0-1.79-.51c-.88,0-1.22.34-1.22.74,0,1.19,3.75.37,3.75,2.74,0,1.08-.89,2-2.74,2A4.63,4.63,0,0,1,354.3,456.52Z"/><path class="cls-12" d="M365,455.77h-3l-.57,1.39h-1.53l2.88-6.47h1.48l2.89,6.47h-1.57Zm-.47-1.13-1-2.48-1,2.48Z"/><path class="cls-12" d="M367.77,450.69h1.49v5.25h3.24v1.22h-4.73Z"/><path class="cls-12" d="M378.35,456v1.2h-5v-6.47h4.89v1.2h-3.4v1.41h3v1.16h-3V456Z"/><g class="cls-13"><text class="cls-18" transform="translate(279.71 447.16)">2<tspan class="cls-15" x="5.54" y="0">.</tspan><tspan class="cls-17" x="7.84" y="0">0%</tspan></text></g><g class="cls-13"><text class="cls-14" transform="translate(423.76 114.72)">1<tspan class="cls-19" x="3.62" y="0">2</tspan><tspan class="cls-15" x="9.16" y="0">.</tspan><tspan x="11.46" y="0">0%</tspan></text></g><line class="cls-8" x1="158.59" y1="372.69" x2="156.59" y2="372.69"/><line class="cls-20" x1="152.63" y1="372.69" x2="3.98" y2="372.69"/><line class="cls-8" x1="2" y1="372.69" y2="372.69"/><path class="cls-12" d="M0,363.88a3.33,3.33,0,0,1,3.51-3.34,3.35,3.35,0,0,1,2.66,1.15l-1,.88a2.11,2.11,0,0,0-1.63-.75,2.07,2.07,0,1,0,0,4.13,2.09,2.09,0,0,0,1.63-.76l1,.88a3.33,3.33,0,0,1-2.67,1.16A3.33,3.33,0,0,1,0,363.88Z"/><path class="cls-12" d="M11.3,365.73h-3l-.57,1.39H6.19l2.88-6.47h1.48l2.89,6.47H11.87Zm-.47-1.14-1-2.47-1,2.47Z"/><path class="cls-12" d="M13.61,366.48l.51-1.13a3.75,3.75,0,0,0,2.13.68c.88,0,1.24-.3,1.24-.7,0-1.21-3.75-.37-3.75-2.78,0-1.09.88-2,2.72-2a4.41,4.41,0,0,1,2.24.57l-.46,1.14a3.67,3.67,0,0,0-1.79-.51c-.89,0-1.23.34-1.23.74,0,1.19,3.76.37,3.76,2.74,0,1.08-.9,2-2.74,2A4.61,4.61,0,0,1,13.61,366.48Z"/><path class="cls-12" d="M25.93,360.65v6.47H24.44v-2.65H21.5v2.65H20v-6.47h1.5v2.55h2.94v-2.55Z"/><path class="cls-12" d="M33.39,365.35c0,1.12-.89,1.77-2.58,1.77H27.46v-6.47h3.16c1.62,0,2.45.68,2.45,1.68a1.64,1.64,0,0,0,.32,3ZM29,361.78v1.52h1.49c.73,0,1.12-.26,1.12-.76s-.39-.76-1.12-.76Zm2.94,3.42c0-.55-.42-.81-1.2-.81H29V366h1.74C31.47,366,31.89,365.75,31.89,365.2Z"/><path class="cls-12" d="M38.78,365.73h-3l-.57,1.39H33.68l2.88-6.47H38l2.89,6.47H39.35Zm-.47-1.14-1-2.47-1,2.47Z"/><path class="cls-12" d="M41.1,363.88a3.55,3.55,0,0,1,6.16-2.19l-1,.88a2.08,2.08,0,0,0-1.62-.75,2.07,2.07,0,1,0,0,4.13,2.06,2.06,0,0,0,1.62-.76l1,.88a3.54,3.54,0,0,1-6.16-2.19Z"/><path class="cls-12" d="M50.62,364.58l-.86.9v1.64H48.27v-6.47h1.49v3l2.86-3h1.66l-2.68,2.88,2.84,3.59H52.69Z"/><path class="cls-12" d="M57.21,366.48l.51-1.13a3.75,3.75,0,0,0,2.13.68c.88,0,1.24-.3,1.24-.7,0-1.21-3.75-.37-3.75-2.78,0-1.09.88-2,2.72-2a4.41,4.41,0,0,1,2.24.57l-.46,1.14a3.67,3.67,0,0,0-1.79-.51c-.88,0-1.23.34-1.23.74,0,1.19,3.76.37,3.76,2.74,0,1.08-.9,2-2.74,2A4.61,4.61,0,0,1,57.21,366.48Z"/><path class="cls-12" d="M66.57,364.83v2.29h-1.5v-2.31l-2.5-4.16h1.59l1.72,2.87,1.73-2.87h1.47Z"/><path class="cls-12" d="M69.06,366.48l.51-1.13a3.75,3.75,0,0,0,2.13.68c.89,0,1.25-.3,1.25-.7,0-1.21-3.76-.37-3.76-2.78,0-1.09.89-2,2.72-2a4.42,4.42,0,0,1,2.25.57l-.47,1.14a3.64,3.64,0,0,0-1.79-.51c-.88,0-1.22.34-1.22.74,0,1.19,3.75.37,3.75,2.74,0,1.08-.89,2-2.74,2A4.63,4.63,0,0,1,69.06,366.48Z"/><path class="cls-12" d="M76.7,361.87H74.64v-1.22h5.63v1.22H78.2v5.25H76.7Z"/><path class="cls-12" d="M86.07,365.92v1.2h-5v-6.47H86v1.2H82.56v1.41h3v1.16h-3v1.5Z"/><path class="cls-12" d="M93.15,367.12v-3.88l-1.91,3.19h-.67l-1.89-3.11v3.8h-1.4v-6.47H88.5l2.42,4,2.38-4h1.23l0,6.47Z"/><g class="cls-13"><text class="cls-14" transform="translate(36.17 384.73)">5<tspan class="cls-15" x="5.49" y="0">0.</tspan><tspan x="13.94" y="0">0%</tspan></text></g><line class="cls-8" x1="507.46" y1="178.34" x2="505.46" y2="178.34"/><line class="cls-10" x1="501.37" y1="178.34" x2="364.31" y2="178.34"/><line class="cls-8" x1="362.27" y1="178.34" x2="360.27" y2="178.34"/><path class="cls-12" d="M453.06,166.44,451,172.9h-1.61l-1.42-4.38-1.47,4.38h-1.6l-2.12-6.46h1.55l1.46,4.54,1.52-4.54h1.39l1.48,4.58,1.5-4.58Z"/><path class="cls-12" d="M458.9,171.7v1.2h-5v-6.46h4.89v1.2h-3.4V169h3v1.17h-3v1.49Z"/><path class="cls-12" d="M466,171.14c0,1.11-.88,1.76-2.58,1.76h-3.34v-6.46h3.15c1.62,0,2.45.67,2.45,1.68a1.56,1.56,0,0,1-.86,1.42A1.6,1.6,0,0,1,466,171.14Zm-4.44-3.58v1.53h1.49c.73,0,1.13-.26,1.13-.77s-.4-.76-1.13-.76Zm2.94,3.42c0-.54-.42-.8-1.19-.8h-1.75v1.59h1.75C464.09,171.77,464.51,171.53,464.51,171Z"/><path class="cls-12" d="M472.15,171.7v1.2h-5v-6.46H472v1.2h-3.39V169h3v1.17h-3v1.49Z"/><path class="cls-12" d="M474.68,167.66h-2.07v-1.22h5.64v1.22h-2.07v5.24h-1.5Z"/><path class="cls-12" d="M483.16,167.64v1.71h3v1.2h-3v2.35h-1.5v-6.46h4.88v1.2Z"/><path class="cls-12" d="M487.5,170.06v-3.62H489V170c0,1.23.54,1.74,1.44,1.74s1.44-.51,1.44-1.74v-3.56h1.48v3.62a2.93,2.93,0,1,1-5.86,0Z"/><path class="cls-12" d="M500.76,166.44v6.46h-1.23L496.31,169v3.92h-1.48v-6.46h1.24l3.21,3.92v-3.92Z"/><path class="cls-12" d="M502.29,166.44h2.94c2.11,0,3.56,1.27,3.56,3.23s-1.45,3.23-3.56,3.23h-2.94Zm2.87,5.23a2,2,0,1,0,0-4h-1.37v4Z"/><g class="cls-13"><text class="cls-14" transform="translate(483.2 190.94)">1<tspan class="cls-21" x="3.62" y="0">0.</tspan><tspan x="12.07" y="0">0%</tspan></text></g><line class="cls-8" x1="495.26" y1="270.35" x2="493.26" y2="270.35"/><line class="cls-10" x1="489.17" y1="270.35" x2="352.11" y2="270.35"/><line class="cls-8" x1="350.06" y1="270.35" x2="348.06" y2="270.35"/><path class="cls-12" d="M434.52,260.8c0,1.44-1.08,2.34-2.8,2.34h-1.3v1.78h-1.5v-6.46h2.8C433.44,258.46,434.52,259.35,434.52,260.8Zm-1.51,0c0-.71-.46-1.12-1.37-1.12h-1.22v2.24h1.22C432.55,261.92,433,261.5,433,260.8Z"/><path class="cls-12" d="M439.7,264.92l-1.24-1.8h-1.38v1.8h-1.49v-6.46h2.79c1.73,0,2.81.89,2.81,2.34a2.1,2.1,0,0,1-1.33,2l1.45,2.08Zm-1.4-5.24h-1.22v2.25h1.22c.91,0,1.38-.43,1.38-1.13S439.21,259.68,438.3,259.68Z"/><path class="cls-12" d="M442.37,258.46h1.5v6.46h-1.5Z"/><path class="cls-12" d="M451.58,258.46l-2.8,6.46H447.3l-2.79-6.46h1.62l2,4.61,2-4.61Z"/><path class="cls-12" d="M456.15,263.53h-3l-.57,1.39h-1.53l2.88-6.46h1.48l2.89,6.46h-1.57Zm-.47-1.13-1-2.47-1,2.47Z"/><path class="cls-12" d="M460,259.68h-2.06v-1.22h5.63v1.22h-2.07v5.24H460Z"/><path class="cls-12" d="M469.35,263.72v1.2h-5v-6.46h4.88v1.2h-3.39v1.4h3v1.16h-3v1.5Z"/><path class="cls-12" d="M472.65,264.28l.51-1.12a3.85,3.85,0,0,0,2.13.67c.89,0,1.25-.3,1.25-.69,0-1.21-3.76-.38-3.76-2.78,0-1.1.89-2,2.72-2a4.32,4.32,0,0,1,2.25.57l-.47,1.13a3.6,3.6,0,0,0-1.79-.5c-.88,0-1.22.33-1.22.74,0,1.19,3.75.36,3.75,2.74,0,1.08-.89,2-2.74,2A4.63,4.63,0,0,1,472.65,264.28Z"/><path class="cls-12" d="M483.3,263.53h-3l-.57,1.39H478.2l2.88-6.46h1.48l2.89,6.46h-1.57Zm-.47-1.13-1-2.47-1,2.47Z"/><path class="cls-12" d="M486.12,258.46h1.49v5.24h3.24v1.22h-4.73Z"/><path class="cls-12" d="M496.7,263.72v1.2h-5v-6.46h4.88v1.2h-3.4v1.4h3v1.16h-3v1.5Z"/><g class="cls-13"><text class="cls-14" transform="translate(471.3 282.96)">1<tspan class="cls-19" x="3.62" y="0">2</tspan><tspan class="cls-15" x="9.16" y="0">.</tspan><tspan x="11.46" y="0">0%</tspan></text></g><circle class="cls-22" cx="214.97" cy="233.31" r="50.01" transform="translate(-41.53 420) rotate(-83.39)"/></g></g></svg>