<svg xmlns="http://www.w3.org/2000/svg" xmlns:xlink="http://www.w3.org/1999/xlink" viewBox="0 0 510.34 457.27"><defs><style>.cls-1{fill:url(#Gradiente_sem_nome_66);}.cls-2{fill:url(#Gradiente_sem_nome_55);}.cls-3{fill:url(#Gradiente_sem_nome_104);}.cls-4{fill:url(#Gradiente_sem_nome_53);}.cls-5{fill:url(#Gradiente_sem_nome_62);}.cls-6{fill:url(#Gradiente_sem_nome_126);}.cls-7{fill:url(#Gradiente_sem_nome_5);}.cls-10,.cls-11,.cls-20,.cls-8,.cls-9{fill:none;stroke:#71bf96;stroke-miterlimit:10;stroke-width:2px;}.cls-9{stroke-dasharray:4.09 4.09;}.cls-10{stroke-dasharray:4.09 4.09;}.cls-11{stroke-dasharray:4.01 4.01;}.cls-12,.cls-14,.cls-16,.cls-18{fill:#fff;}.cls-13{opacity:0.5;}.cls-14,.cls-16,.cls-18{font-size:9.23px;font-family:Montserrat-Bold, Montserrat;font-weight:700;}.cls-15,.cls-16{letter-spacing:-0.01em;}.cls-17{letter-spacing:0em;}.cls-18{letter-spacing:0.01em;}.cls-19{letter-spacing:0.01em;}.cls-20{stroke-dasharray:3.96 3.96;}.cls-21{letter-spacing:-0.01em;}.cls-22{fill:#19162d;}</style><linearGradient id="Gradiente_sem_nome_66" x1="227.98" y1="216.31" x2="362.24" y2="316.57" gradientUnits="userSpaceOnUse"><stop offset="0" stop-color="#eb5d48"/><stop offset="1" stop-color="#db3a41"/></linearGradient><linearGradient id="Gradiente_sem_nome_55" x1="260.62" y1="172.67" x2="377.2" y2="259.74" gradientUnits="userSpaceOnUse"><stop offset="0" stop-color="#4359a4"/><stop offset="0.83" stop-color="#414b9a"/><stop offset="1" stop-color="#404798"/></linearGradient><linearGradient id="Gradiente_sem_nome_104" x1="222.29" y1="134.58" x2="321.46" y2="208.63" gradientUnits="userSpaceOnUse"><stop offset="0" stop-color="#f39200"/><stop offset="0.16" stop-color="#f18d01"/><stop offset="0.35" stop-color="#eb7f05"/><stop offset="0.54" stop-color="#e1680c"/><stop offset="0.75" stop-color="#d34715"/><stop offset="0.97" stop-color="#c11d20"/><stop offset="1" stop-color="#be1622"/></linearGradient><linearGradient id="Gradiente_sem_nome_53" x1="49.54" y1="176.93" x2="308.75" y2="370.5" gradientUnits="userSpaceOnUse"><stop offset="0" stop-color="#0b4c64"/><stop offset="0.4" stop-color="#195872"/><stop offset="1" stop-color="#36708f"/></linearGradient><linearGradient id="Gradiente_sem_nome_62" x1="130.68" y1="86.83" x2="255.6" y2="180.11" gradientUnits="userSpaceOnUse"><stop offset="0" stop-color="#71bf96"/><stop offset="0.12" stop-color="#5dbb98"/><stop offset="0.38" stop-color="#37b49a"/><stop offset="0.63" stop-color="#1baf9c"/><stop offset="0.84" stop-color="#0bac9e"/><stop offset="1" stop-color="#05ab9e"/></linearGradient><linearGradient id="Gradiente_sem_nome_126" x1="182.98" y1="110.78" x2="262.79" y2="170.39" gradientUnits="userSpaceOnUse"><stop offset="0" stop-color="#312783"/><stop offset="0.13" stop-color="#362683"/><stop offset="0.28" stop-color="#442382"/><stop offset="0.44" stop-color="#5b1e82"/><stop offset="0.61" stop-color="#7c1781"/><stop offset="0.78" stop-color="#a60e80"/><stop offset="0.96" stop-color="#d9037e"/><stop offset="1" stop-color="#e6007e"/></linearGradient><linearGradient id="Gradiente_sem_nome_5" x1="197.82" y1="256.7" x2="328.1" y2="353.99" gradientUnits="userSpaceOnUse"><stop offset="0" stop-color="#312783"/><stop offset="0.2" stop-color="#30267e"/><stop offset="0.43" stop-color="#2c2370"/><stop offset="0.68" stop-color="#251f59"/><stop offset="0.93" stop-color="#1c1838"/><stop offset="1" stop-color="#19162e"/></linearGradient></defs><g id="Camada_2" data-name="Camada 2"><g id="Camada_1-2" data-name="Camada 1"><path class="cls-1" d="M381,254.43c-5,43.93-27,81.23-59.35,108L215.68,233.31Z"/><path class="cls-2" d="M381,254.43a168.19,168.19,0,0,0,1.26-20.57A165.85,165.85,0,0,0,362,154.17l-146.3,79.14Z"/><path class="cls-3" d="M362,154.17a167.06,167.06,0,0,0-95.13-78.86l-51.17,158Z"/><path class="cls-4" d="M305.72,374A166.58,166.58,0,1,1,126.15,93.39Z"/><path class="cls-5" d="M215.68,67.3a165.7,165.7,0,0,0-89.53,26.09l89.53,139.92Z"/><path class="cls-6" d="M266.85,75.31a166.42,166.42,0,0,0-51.17-8v166Z"/><path class="cls-7" d="M321.63,362.39A166.47,166.47,0,0,1,305.72,374l-90-140.7Z"/><line class="cls-8" x1="173.07" y1="83.93" x2="171.07" y2="83.93"/><line class="cls-9" x1="166.99" y1="83.93" x2="38.31" y2="83.93"/><line class="cls-8" x1="36.27" y1="83.93" x2="34.27" y2="83.93"/><line class="cls-8" x1="448.43" y1="102.11" x2="446.43" y2="102.11"/><line class="cls-10" x1="442.33" y1="102.11" x2="305.28" y2="102.11"/><line class="cls-8" x1="303.23" y1="102.11" x2="301.23" y2="102.11"/><line class="cls-8" x1="309.65" y1="457.15" x2="309.65" y2="455.15"/><line class="cls-11" x1="309.65" y1="451.14" x2="309.65" y2="364.93"/><line class="cls-8" x1="309.65" y1="362.92" x2="309.65" y2="360.92"/><line class="cls-8" x1="247.26" y1="96.23" x2="247.26" y2="94.23"/><line class="cls-11" x1="247.26" y1="90.22" x2="247.26" y2="4.01"/><line class="cls-8" x1="247.26" y1="2" x2="247.26"/><path class="cls-12" d="M153.2,1.73h-2.07V.51h5.63V1.73h-2.07V7H153.2Z"/><path class="cls-12" d="M162.57,5.77V7h-5V.51h4.89v1.2h-3.4v1.4h3V4.28h-3V5.77Z"/><path class="cls-12" d="M168,5.59h-3L164.44,7h-1.53L165.79.51h1.48L170.16,7h-1.57Zm-.47-1.14-1-2.47-1,2.47Z"/><path class="cls-12" d="M176.71,7V3.09l-1.9,3.2h-.68l-1.89-3.11V7h-1.4V.51h1.24l2.42,4,2.38-4h1.22l0,6.46Z"/><path class="cls-12" d="M187.22,7.08l-.77-.72a3.47,3.47,0,0,1-2.16.72c-1.42,0-2.47-.74-2.47-1.77,0-.81.44-1.38,1.43-1.93A1.93,1.93,0,0,1,182.58,2c0-.94.8-1.58,2-1.58s1.86.57,1.86,1.48c0,.67-.39,1.16-1.27,1.64l1.19,1.1a4.44,4.44,0,0,0,.32-1l1.15.36a4.28,4.28,0,0,1-.59,1.47l.76.7Zm-1.62-1.5L184,4.12c-.59.34-.8.64-.8,1s.44.81,1.15.81A2.07,2.07,0,0,0,185.6,5.58ZM183.89,2c0,.25.1.43.5.82.64-.34.84-.58.84-.88s-.22-.53-.64-.53S183.89,1.65,183.89,2Z"/><path class="cls-12" d="M195.85,5.59h-3L192.27,7h-1.53L193.62.51h1.48L198,7h-1.57Zm-.47-1.14-1-2.47-1,2.47Z"/><path class="cls-12" d="M198.66.51h2.94c2.11,0,3.56,1.27,3.56,3.23S203.71,7,201.6,7h-2.94Zm2.86,5.23a1.93,1.93,0,0,0,2.13-2,1.93,1.93,0,0,0-2.13-2h-1.36v4Z"/><path class="cls-12" d="M212.29.51,209.49,7H208L205.23.51h1.61l2,4.62,2-4.62Z"/><path class="cls-12" d="M212.82.51h1.5V7h-1.5Z"/><path class="cls-12" d="M215.34,6.34l.51-1.13a3.79,3.79,0,0,0,2.13.67c.89,0,1.25-.29,1.25-.69,0-1.21-3.76-.38-3.76-2.78,0-1.1.89-2,2.73-2a4.31,4.31,0,0,1,2.24.57L220,2.11a3.57,3.57,0,0,0-1.79-.51c-.89,0-1.23.33-1.23.74,0,1.19,3.76.37,3.76,2.74,0,1.08-.9,2-2.75,2A4.66,4.66,0,0,1,215.34,6.34Z"/><path class="cls-12" d="M221.33,3.74a3.55,3.55,0,1,1,3.54,3.34A3.35,3.35,0,0,1,221.33,3.74Zm5.56,0a2,2,0,1,0-4,0,2,2,0,1,0,4,0Z"/><path class="cls-12" d="M233.65,7l-1.25-1.8H231V7h-1.5V.51h2.8c1.73,0,2.81.9,2.81,2.34a2.1,2.1,0,0,1-1.33,2L235.26,7Zm-1.4-5.24H231V4h1.22c.91,0,1.37-.42,1.37-1.13S233.16,1.73,232.25,1.73Z"/><path class="cls-12" d="M235.81,6.34l.51-1.13a3.74,3.74,0,0,0,2.13.67c.89,0,1.25-.29,1.25-.69,0-1.21-3.76-.38-3.76-2.78,0-1.1.89-2,2.72-2a4.32,4.32,0,0,1,2.25.57l-.47,1.14a3.54,3.54,0,0,0-1.79-.51c-.88,0-1.22.33-1.22.74,0,1.19,3.75.37,3.75,2.74,0,1.08-.89,2-2.74,2A4.63,4.63,0,0,1,235.81,6.34Z"/><g class="cls-13"><text class="cls-14" transform="translate(253.04 16.25)">5<tspan class="cls-15" x="5.49" y="0">.</tspan><tspan x="7.79" y="0">0%</tspan></text></g><path class="cls-12" d="M370.55,90.22H372v5.24h3.24v1.22h-4.73Z"/><path class="cls-12" d="M376.12,90.22h1.5v6.46h-1.5Z"/><path class="cls-12" d="M386.14,97.37a2.2,2.2,0,0,1-1.75.79,3.38,3.38,0,0,1-2.63-1.4,3.3,3.3,0,0,1-3-3.31,3.55,3.55,0,0,1,7.08,0,3.25,3.25,0,0,1-2.31,3.15,1.17,1.17,0,0,0,.91.46,1.4,1.4,0,0,0,1.05-.48Zm-3.86-1.86a2.07,2.07,0,1,0-2-2.06A2,2,0,0,0,382.28,95.51Z"/><path class="cls-12" d="M386.89,93.83V90.22h1.49v3.56c0,1.23.54,1.73,1.44,1.73s1.44-.5,1.44-1.73V90.22h1.48v3.61a2.93,2.93,0,1,1-5.85,0Z"/><path class="cls-12" d="M394.22,90.22h1.49v6.46h-1.49Z"/><path class="cls-12" d="M397.24,90.22h2.94c2.11,0,3.56,1.27,3.56,3.23s-1.45,3.23-3.56,3.23h-2.94Zm2.87,5.23a2,2,0,1,0,0-4h-1.37v4Z"/><path class="cls-12" d="M404.87,90.22h1.49v6.46h-1.49Z"/><path class="cls-12" d="M409.24,91.43h-2.07V90.22h5.63v1.21h-2.07v5.25h-1.49Z"/><path class="cls-12" d="M416.58,94.39v2.29h-1.49V94.37l-2.5-4.15h1.58l1.73,2.87,1.73-2.87h1.46Z"/><path class="cls-12" d="M423.83,91.42v1.7h3v1.2h-3v2.36h-1.5V90.22h4.89v1.2Z"/><path class="cls-12" d="M428.18,93.83V90.22h1.49v3.56c0,1.23.54,1.73,1.44,1.73s1.44-.5,1.44-1.73V90.22H434v3.61a2.93,2.93,0,1,1-5.85,0Z"/><path class="cls-12" d="M441.44,90.22v6.46h-1.23L437,92.75v3.93h-1.48V90.22h1.24L440,94.14V90.22Z"/><path class="cls-12" d="M443,90.22h2.93c2.12,0,3.57,1.27,3.57,3.23s-1.45,3.23-3.57,3.23H443Zm2.86,5.23a2,2,0,1,0,0-4h-1.37v4Z"/><path class="cls-12" d="M40.93,77.16v1.2h-5V71.9h4.88v1.2h-3.4v1.4h3v1.16h-3v1.5Z"/><path class="cls-12" d="M41.7,75.13a3.56,3.56,0,0,1,6.16-2.2l-1,.89a2.07,2.07,0,0,0-1.62-.76,2.07,2.07,0,1,0,0,4.14,2.05,2.05,0,0,0,1.62-.77l1,.89a3.55,3.55,0,0,1-6.16-2.19Z"/><path class="cls-12" d="M48.33,75.13a3.54,3.54,0,1,1,3.53,3.34A3.34,3.34,0,0,1,48.33,75.13Zm5.55,0a2,2,0,1,0-2,2.07A2,2,0,0,0,53.88,75.13Z"/><path class="cls-12" d="M56,77.72l.5-1.13a3.81,3.81,0,0,0,2.14.68c.88,0,1.24-.3,1.24-.69,0-1.21-3.76-.38-3.76-2.78,0-1.1.89-2,2.73-2a4.31,4.31,0,0,1,2.24.57l-.46,1.13a3.66,3.66,0,0,0-1.79-.5c-.89,0-1.23.33-1.23.73,0,1.2,3.76.37,3.76,2.75,0,1.08-.9,2-2.74,2A4.61,4.61,0,0,1,56,77.72Z"/><path class="cls-12" d="M65.38,76.07v2.29h-1.5V76.05l-2.5-4.15H63l1.72,2.87,1.73-2.87h1.47Z"/><path class="cls-12" d="M67.87,77.72l.51-1.13a3.75,3.75,0,0,0,2.13.68c.88,0,1.24-.3,1.24-.69,0-1.21-3.75-.38-3.75-2.78,0-1.1.88-2,2.72-2a4.31,4.31,0,0,1,2.24.57l-.46,1.13a3.66,3.66,0,0,0-1.79-.5c-.88,0-1.23.33-1.23.73,0,1.2,3.76.37,3.76,2.75,0,1.08-.9,2-2.74,2A4.61,4.61,0,0,1,67.87,77.72Z"/><path class="cls-12" d="M75.51,73.12H73.44V71.9h5.64v1.22H77v5.24h-1.5Z"/><path class="cls-12" d="M84.88,77.16v1.2h-5V71.9h4.88v1.2H81.37v1.4h3v1.16h-3v1.5Z"/><path class="cls-12" d="M92,78.36V74.48L90,77.68h-.67l-1.89-3.12v3.8H86.07V71.9h1.24l2.42,4,2.38-4h1.23l0,6.46Z"/><g class="cls-13"><text class="cls-16" transform="translate(36.08 95.97)">9.<tspan class="cls-17" x="8.06" y="0">0%</tspan></text></g><path class="cls-12" d="M322.17,453c0,1.44-1.08,2.33-2.81,2.33h-1.3v1.79h-1.5v-6.47h2.8C321.09,450.69,322.17,451.59,322.17,453Zm-1.52,0c0-.71-.46-1.13-1.37-1.13h-1.22v2.25h1.22C320.19,454.16,320.65,453.74,320.65,453Z"/><path class="cls-12" d="M323.14,454.31v-3.62h1.5v3.57c0,1.22.54,1.73,1.44,1.73s1.44-.51,1.44-1.73v-3.57H329v3.62a2.93,2.93,0,1,1-5.86,0Z"/><path class="cls-12" d="M336.4,455.39c0,1.12-.89,1.77-2.58,1.77h-3.35v-6.47h3.16c1.62,0,2.45.68,2.45,1.68a1.56,1.56,0,0,1-.86,1.43A1.59,1.59,0,0,1,336.4,455.39ZM332,451.82v1.52h1.49c.73,0,1.12-.26,1.12-.76s-.39-.76-1.12-.76Zm2.94,3.42c0-.55-.42-.81-1.19-.81H332V456h1.75C334.48,456,334.9,455.79,334.9,455.24Z"/><path class="cls-12" d="M337.54,450.69H339v5.25h3.24v1.22h-4.73Z"/><path class="cls-12" d="M343.11,450.69h1.5v6.47h-1.5Z"/><path class="cls-12" d="M345.73,453.92a3.56,3.56,0,0,1,6.17-2.19l-1,.88a2.09,2.09,0,0,0-1.62-.75,2.07,2.07,0,1,0,0,4.13,2.07,2.07,0,0,0,1.62-.76l1,.88a3.55,3.55,0,0,1-6.17-2.19Z"/><path class="cls-12" d="M355,456.52l.51-1.13a3.78,3.78,0,0,0,2.13.68c.89,0,1.25-.3,1.25-.7,0-1.21-3.76-.37-3.76-2.78,0-1.09.89-2,2.72-2a4.42,4.42,0,0,1,2.25.57l-.46,1.14a3.68,3.68,0,0,0-1.8-.51c-.88,0-1.22.34-1.22.74,0,1.19,3.75.37,3.75,2.74,0,1.08-.89,2-2.74,2A4.63,4.63,0,0,1,355,456.52Z"/><path class="cls-12" d="M365.67,455.77h-3l-.57,1.39h-1.53l2.88-6.47h1.48l2.89,6.47h-1.57Zm-.48-1.13-1-2.48-1,2.48Z"/><path class="cls-12" d="M368.48,450.69H370v5.25h3.24v1.22h-4.74Z"/><path class="cls-12" d="M379.06,456v1.2h-5v-6.47h4.88v1.2h-3.4v1.41h3v1.16h-3V456Z"/><g class="cls-13"><text class="cls-18" transform="translate(280.42 447.16)">2<tspan class="cls-15" x="5.54" y="0">.</tspan><tspan class="cls-17" x="7.84" y="0">0%</tspan></text></g><g class="cls-13"><text class="cls-14" transform="translate(424.47 114.72)">1<tspan class="cls-19" x="3.62" y="0">2</tspan><tspan class="cls-15" x="9.16" y="0">.</tspan><tspan x="11.46" y="0">0%</tspan></text></g><line class="cls-8" x1="159.3" y1="372.69" x2="157.3" y2="372.69"/><line class="cls-20" x1="153.34" y1="372.69" x2="4.69" y2="372.69"/><line class="cls-8" x1="2.71" y1="372.69" x2="0.71" y2="372.69"/><path class="cls-12" d="M.71,363.88a3.33,3.33,0,0,1,3.51-3.34,3.33,3.33,0,0,1,2.66,1.15l-1,.88a2.11,2.11,0,0,0-1.63-.75,2.07,2.07,0,1,0,0,4.13,2.09,2.09,0,0,0,1.63-.76l1,.88a3.32,3.32,0,0,1-2.67,1.16A3.33,3.33,0,0,1,.71,363.88Z"/><path class="cls-12" d="M12,365.73H9l-.57,1.39H6.91l2.88-6.47h1.47l2.89,6.47H12.58Zm-.47-1.14-1-2.47-1,2.47Z"/><path class="cls-12" d="M14.32,366.48l.51-1.13A3.75,3.75,0,0,0,17,366c.88,0,1.24-.3,1.24-.7,0-1.21-3.75-.37-3.75-2.78,0-1.09.88-2,2.72-2a4.41,4.41,0,0,1,2.24.57L19,362.25a3.67,3.67,0,0,0-1.79-.51c-.88,0-1.23.34-1.23.74,0,1.19,3.76.37,3.76,2.74,0,1.08-.9,2-2.74,2A4.61,4.61,0,0,1,14.32,366.48Z"/><path class="cls-12" d="M26.64,360.65v6.47H25.15v-2.65H22.21v2.65H20.72v-6.47h1.49v2.55h2.94v-2.55Z"/><path class="cls-12" d="M34.1,365.35c0,1.12-.89,1.77-2.58,1.77H28.17v-6.47h3.16c1.62,0,2.45.68,2.45,1.68a1.56,1.56,0,0,1-.86,1.43A1.59,1.59,0,0,1,34.1,365.35Zm-4.44-3.57v1.52h1.49c.73,0,1.12-.26,1.12-.76s-.39-.76-1.12-.76Zm2.94,3.42c0-.55-.42-.81-1.19-.81H29.66V366h1.75C32.18,366,32.6,365.75,32.6,365.2Z"/><path class="cls-12" d="M39.49,365.73h-3l-.57,1.39H34.39l2.88-6.47h1.48l2.88,6.47H40.07ZM39,364.59l-1-2.47-1,2.47Z"/><path class="cls-12" d="M41.81,363.88A3.56,3.56,0,0,1,48,361.69l-1,.88a2.11,2.11,0,0,0-1.63-.75,2.07,2.07,0,1,0,0,4.13,2.09,2.09,0,0,0,1.63-.76l1,.88a3.55,3.55,0,0,1-6.17-2.19Z"/><path class="cls-12" d="M51.34,364.58l-.87.9v1.64H49v-6.47h1.49v3l2.86-3H55l-2.68,2.88,2.84,3.59H53.4Z"/><path class="cls-12" d="M57.92,366.48l.51-1.13a3.75,3.75,0,0,0,2.13.68c.89,0,1.24-.3,1.24-.7,0-1.21-3.75-.37-3.75-2.78,0-1.09.88-2,2.72-2a4.41,4.41,0,0,1,2.24.57l-.46,1.14a3.67,3.67,0,0,0-1.79-.51c-.88,0-1.23.34-1.23.74,0,1.19,3.76.37,3.76,2.74,0,1.08-.89,2-2.74,2A4.63,4.63,0,0,1,57.92,366.48Z"/><path class="cls-12" d="M67.28,364.83v2.29h-1.5v-2.31l-2.5-4.16h1.59l1.73,2.87,1.72-2.87h1.47Z"/><path class="cls-12" d="M69.77,366.48l.51-1.13a3.78,3.78,0,0,0,2.13.68c.89,0,1.25-.3,1.25-.7,0-1.21-3.76-.37-3.76-2.78,0-1.09.89-2,2.72-2a4.42,4.42,0,0,1,2.25.57l-.46,1.14a3.68,3.68,0,0,0-1.8-.51c-.88,0-1.22.34-1.22.74,0,1.19,3.75.37,3.75,2.74,0,1.08-.89,2-2.74,2A4.63,4.63,0,0,1,69.77,366.48Z"/><path class="cls-12" d="M77.42,361.87H75.35v-1.22H81v1.22H78.91v5.25H77.42Z"/><path class="cls-12" d="M86.79,365.92v1.2h-5v-6.47h4.89v1.2h-3.4v1.41h3v1.16h-3v1.5Z"/><path class="cls-12" d="M93.86,367.12v-3.88L92,366.43h-.68l-1.89-3.11v3.8H88v-6.47h1.23l2.42,4,2.38-4h1.23l0,6.47Z"/><g class="cls-13"><text class="cls-14" transform="translate(0 386.62)">5<tspan class="cls-15" x="5.49" y="0">0.</tspan><tspan x="13.94" y="0">0%</tspan></text></g><line class="cls-8" x1="508.17" y1="178.34" x2="506.17" y2="178.34"/><line class="cls-10" x1="502.08" y1="178.34" x2="365.02" y2="178.34"/><line class="cls-8" x1="362.98" y1="178.34" x2="360.98" y2="178.34"/><path class="cls-12" d="M453.77,166.44l-2.11,6.46h-1.61l-1.42-4.38-1.47,4.38h-1.59l-2.13-6.46H445l1.46,4.54,1.53-4.54h1.38l1.48,4.58,1.5-4.58Z"/><path class="cls-12" d="M459.61,171.7v1.2h-5v-6.46h4.89v1.2h-3.4V169h3v1.17h-3v1.49Z"/><path class="cls-12" d="M466.73,171.14c0,1.11-.89,1.76-2.59,1.76H460.8v-6.46H464c1.61,0,2.44.67,2.44,1.68a1.56,1.56,0,0,1-.86,1.42A1.61,1.61,0,0,1,466.73,171.14Zm-4.45-3.58v1.53h1.49c.73,0,1.13-.26,1.13-.77s-.4-.76-1.13-.76Zm2.94,3.42c0-.54-.42-.8-1.19-.8h-1.75v1.59H464C464.8,171.77,465.22,171.53,465.22,171Z"/><path class="cls-12" d="M472.86,171.7v1.2h-5v-6.46h4.88v1.2h-3.39V169h3v1.17h-3v1.49Z"/><path class="cls-12" d="M475.39,167.66h-2.06v-1.22H479v1.22h-2.07v5.24h-1.5Z"/><path class="cls-12" d="M483.87,167.64v1.71h3v1.2h-3v2.35h-1.5v-6.46h4.89v1.2Z"/><path class="cls-12" d="M488.22,170.06v-3.62h1.49V170c0,1.23.54,1.74,1.44,1.74s1.44-.51,1.44-1.74v-3.56h1.48v3.62a2.93,2.93,0,1,1-5.85,0Z"/><path class="cls-12" d="M501.47,166.44v6.46h-1.23L497,169v3.92h-1.47v-6.46h1.23l3.21,3.92v-3.92Z"/><path class="cls-12" d="M503,166.44h2.93c2.11,0,3.56,1.27,3.56,3.23s-1.45,3.23-3.56,3.23H503Zm2.86,5.23a2,2,0,1,0,0-4H504.5v4Z"/><g class="cls-13"><text class="cls-14" transform="translate(483.91 190.94)">1<tspan class="cls-21" x="3.62" y="0">0.</tspan><tspan x="12.07" y="0">0%</tspan></text></g><line class="cls-8" x1="495.97" y1="270.35" x2="493.97" y2="270.35"/><line class="cls-10" x1="489.88" y1="270.35" x2="352.82" y2="270.35"/><line class="cls-8" x1="350.78" y1="270.35" x2="348.78" y2="270.35"/><path class="cls-12" d="M435.24,260.8c0,1.44-1.08,2.34-2.81,2.34h-1.3v1.78h-1.5v-6.46h2.8C434.16,258.46,435.24,259.35,435.24,260.8Zm-1.52,0c0-.71-.46-1.12-1.37-1.12h-1.22v2.24h1.22C433.26,261.92,433.72,261.5,433.72,260.8Z"/><path class="cls-12" d="M440.41,264.92l-1.24-1.8h-1.38v1.8H436.3v-6.46h2.79c1.73,0,2.81.89,2.81,2.34a2.1,2.1,0,0,1-1.33,2l1.45,2.08Zm-1.4-5.24h-1.22v2.25H439c.92,0,1.38-.43,1.38-1.13S439.93,259.68,439,259.68Z"/><path class="cls-12" d="M443.08,258.46h1.5v6.46h-1.5Z"/><path class="cls-12" d="M452.29,258.46l-2.8,6.46H448l-2.79-6.46h1.62l2,4.61,2-4.61Z"/><path class="cls-12" d="M456.87,263.53h-3l-.57,1.39h-1.53l2.88-6.46h1.48l2.89,6.46h-1.57Zm-.48-1.13-1-2.47-1,2.47Z"/><path class="cls-12" d="M460.7,259.68h-2.07v-1.22h5.63v1.22h-2.07v5.24H460.7Z"/><path class="cls-12" d="M470.07,263.72v1.2h-5v-6.46H470v1.2h-3.4v1.4h3v1.16h-3v1.5Z"/><path class="cls-12" d="M473.36,264.28l.51-1.12a3.85,3.85,0,0,0,2.13.67c.89,0,1.25-.3,1.25-.69,0-1.21-3.76-.38-3.76-2.78,0-1.1.89-2,2.72-2a4.32,4.32,0,0,1,2.25.57l-.46,1.13a3.66,3.66,0,0,0-1.8-.5c-.88,0-1.22.33-1.22.74,0,1.19,3.75.36,3.75,2.74,0,1.08-.89,2-2.74,2A4.63,4.63,0,0,1,473.36,264.28Z"/><path class="cls-12" d="M484,263.53h-3l-.57,1.39h-1.53l2.88-6.46h1.48l2.89,6.46h-1.57Zm-.47-1.13-1-2.47-1,2.47Z"/><path class="cls-12" d="M486.83,258.46h1.5v5.24h3.24v1.22h-4.74Z"/><path class="cls-12" d="M497.41,263.72v1.2h-5v-6.46h4.88v1.2h-3.4v1.4h3v1.16h-3v1.5Z"/><g class="cls-13"><text class="cls-14" transform="translate(472.01 282.96)">1<tspan class="cls-19" x="3.62" y="0">2</tspan><tspan class="cls-15" x="9.16" y="0">.</tspan><tspan x="11.46" y="0">0%</tspan></text></g><circle class="cls-22" cx="215.68" cy="233.31" r="50.01" transform="translate(-40.9 420.7) rotate(-83.39)"/></g></g></svg>