<svg xmlns="http://www.w3.org/2000/svg" xmlns:xlink="http://www.w3.org/1999/xlink" viewBox="0 0 509.99 460.49"><defs><style>.cls-1{fill:url(#Gradiente_sem_nome_66);}.cls-2{fill:url(#Gradiente_sem_nome_55);}.cls-3{fill:url(#Gradiente_sem_nome_104);}.cls-4{fill:url(#Gradiente_sem_nome_53);}.cls-5{fill:url(#Gradiente_sem_nome_62);}.cls-6{fill:url(#Gradiente_sem_nome_126);}.cls-7{fill:url(#Gradiente_sem_nome_5);}.cls-10,.cls-11,.cls-23,.cls-8,.cls-9{fill:none;stroke:#71bf96;stroke-miterlimit:10;stroke-width:2px;}.cls-9{stroke-dasharray:4.09 4.09;}.cls-10{stroke-dasharray:4.09 4.09;}.cls-11{stroke-dasharray:4.01 4.01;}.cls-12,.cls-21{font-size:9.23px;fill:#fff;font-family:Montserrat-Bold, Montserrat;font-weight:700;}.cls-13{letter-spacing:-0.02em;}.cls-14{letter-spacing:-0.02em;}.cls-15{letter-spacing:0em;}.cls-16{opacity:0.5;}.cls-17,.cls-21{letter-spacing:-0.01em;}.cls-18{letter-spacing:0em;}.cls-19{letter-spacing:0em;}.cls-20{letter-spacing:-0.01em;}.cls-22{letter-spacing:0.01em;}.cls-23{stroke-dasharray:3.91 3.91;}.cls-24{letter-spacing:-0.01em;}.cls-25{letter-spacing:-0.01em;}.cls-26{letter-spacing:-0.01em;}.cls-27{letter-spacing:0em;}.cls-28{letter-spacing:-0.04em;}.cls-29{letter-spacing:-0.04em;}.cls-30{fill:#19162d;}</style><linearGradient id="Gradiente_sem_nome_66" x1="227.63" y1="217.18" x2="361.89" y2="317.45" gradientUnits="userSpaceOnUse"><stop offset="0" stop-color="#eb5d48"/><stop offset="1" stop-color="#db3a41"/></linearGradient><linearGradient id="Gradiente_sem_nome_55" x1="260.27" y1="173.55" x2="376.85" y2="260.61" gradientUnits="userSpaceOnUse"><stop offset="0" stop-color="#4359a4"/><stop offset="0.83" stop-color="#414b9a"/><stop offset="1" stop-color="#404798"/></linearGradient><linearGradient id="Gradiente_sem_nome_104" x1="221.94" y1="135.45" x2="321.11" y2="209.51" gradientUnits="userSpaceOnUse"><stop offset="0" stop-color="#f39200"/><stop offset="0.16" stop-color="#f18d01"/><stop offset="0.35" stop-color="#eb7f05"/><stop offset="0.54" stop-color="#e1680c"/><stop offset="0.75" stop-color="#d34715"/><stop offset="0.97" stop-color="#c11d20"/><stop offset="1" stop-color="#be1622"/></linearGradient><linearGradient id="Gradiente_sem_nome_53" x1="49.19" y1="177.8" x2="308.4" y2="371.38" gradientUnits="userSpaceOnUse"><stop offset="0" stop-color="#0b4c64"/><stop offset="0.4" stop-color="#195872"/><stop offset="1" stop-color="#36708f"/></linearGradient><linearGradient id="Gradiente_sem_nome_62" x1="130.33" y1="87.7" x2="255.25" y2="180.99" gradientUnits="userSpaceOnUse"><stop offset="0" stop-color="#71bf96"/><stop offset="0.12" stop-color="#5dbb98"/><stop offset="0.38" stop-color="#37b49a"/><stop offset="0.63" stop-color="#1baf9c"/><stop offset="0.84" stop-color="#0bac9e"/><stop offset="1" stop-color="#05ab9e"/></linearGradient><linearGradient id="Gradiente_sem_nome_126" x1="182.63" y1="111.65" x2="262.44" y2="171.26" gradientUnits="userSpaceOnUse"><stop offset="0" stop-color="#312783"/><stop offset="0.13" stop-color="#362683"/><stop offset="0.28" stop-color="#442382"/><stop offset="0.44" stop-color="#5b1e82"/><stop offset="0.61" stop-color="#7c1781"/><stop offset="0.78" stop-color="#a60e80"/><stop offset="0.96" stop-color="#d9037e"/><stop offset="1" stop-color="#e6007e"/></linearGradient><linearGradient id="Gradiente_sem_nome_5" x1="197.47" y1="257.58" x2="327.75" y2="354.87" gradientUnits="userSpaceOnUse"><stop offset="0" stop-color="#312783"/><stop offset="0.2" stop-color="#30267e"/><stop offset="0.43" stop-color="#2c2370"/><stop offset="0.68" stop-color="#251f59"/><stop offset="0.93" stop-color="#1c1838"/><stop offset="1" stop-color="#19162e"/></linearGradient></defs><g id="Camada_2" data-name="Camada 2"><g id="Camada_1-2" data-name="Camada 1"><path class="cls-1" d="M380.63,255.3c-5,43.93-27,81.23-59.35,108L215.33,234.18Z"/><path class="cls-2" d="M380.63,255.3a168.14,168.14,0,0,0,1.26-20.56,165.82,165.82,0,0,0-20.26-79.69l-146.3,79.13Z"/><path class="cls-3" d="M361.63,155.05A167.12,167.12,0,0,0,266.5,76.18l-51.17,158Z"/><path class="cls-4" d="M305.37,374.89A166.58,166.58,0,1,1,125.8,94.26Z"/><path class="cls-5" d="M215.33,68.18A165.78,165.78,0,0,0,125.8,94.26l89.53,139.92Z"/><path class="cls-6" d="M266.5,76.18a166.72,166.72,0,0,0-51.17-8v166Z"/><path class="cls-7" d="M321.28,363.26a168.32,168.32,0,0,1-15.91,11.63l-90-140.71Z"/><line class="cls-8" x1="172.72" y1="84.81" x2="170.72" y2="84.81"/><line class="cls-9" x1="166.64" y1="84.81" x2="37.96" y2="84.81"/><line class="cls-8" x1="35.92" y1="84.81" x2="33.92" y2="84.81"/><line class="cls-8" x1="448.07" y1="102.99" x2="446.07" y2="102.99"/><line class="cls-10" x1="441.98" y1="102.99" x2="304.92" y2="102.99"/><line class="cls-8" x1="302.88" y1="102.99" x2="300.88" y2="102.99"/><line class="cls-8" x1="309.3" y1="458.03" x2="309.3" y2="456.03"/><line class="cls-11" x1="309.3" y1="452.02" x2="309.3" y2="365.8"/><line class="cls-8" x1="309.3" y1="363.8" x2="309.3" y2="361.8"/><line class="cls-8" x1="246.9" y1="97.11" x2="246.9" y2="95.11"/><line class="cls-11" x1="246.9" y1="91.1" x2="246.9" y2="4.88"/><line class="cls-8" x1="246.9" y1="2.87" x2="246.9" y2="0.87"/><text class="cls-12" transform="translate(150.74 7.85)">TEAM &amp; A<tspan class="cls-13" x="46.8" y="0">D</tspan><tspan class="cls-14" x="54.22" y="0">V</tspan><tspan class="cls-15" x="60.96" y="0">ISORS</tspan></text><g class="cls-16"><text class="cls-12" transform="translate(252.69 17.13)">5<tspan class="cls-17" x="5.49" y="0">.</tspan><tspan x="7.79" y="0">0%</tspan></text></g><text class="cls-12" transform="translate(369.43 97.55)">LIQUIDI<tspan class="cls-17" x="37.35" y="0">T</tspan><tspan x="42.94" y="0">Y FUND</tspan></text><text class="cls-12" transform="translate(34.81 79.23)"><tspan class="cls-18">E</tspan><tspan class="cls-14" x="6.18" y="0">C</tspan><tspan class="cls-19" x="12.8" y="0">O</tspan><tspan class="cls-14" x="20.6" y="0">SY</tspan><tspan class="cls-20" x="32.45" y="0">S</tspan><tspan x="38.25" y="0">TEM</tspan></text><g class="cls-16"><text class="cls-21" transform="translate(35.73 96.85)">9.<tspan class="cls-15" x="8.06" y="0">0%</tspan></text></g><text class="cls-12" transform="translate(315.45 458.03)"><tspan class="cls-17">P</tspan><tspan x="6.64" y="0">UBLIC SALE</tspan></text><g class="cls-16"><text class="cls-12" transform="translate(424.12 115.59)">1<tspan class="cls-22" x="3.62" y="0">2</tspan><tspan class="cls-17" x="9.16" y="0">.</tspan><tspan x="11.46" y="0">0%</tspan></text></g><line class="cls-8" x1="158.95" y1="373.56" x2="156.95" y2="373.56"/><line class="cls-23" x1="153.04" y1="373.56" x2="6.35" y2="373.56"/><line class="cls-8" x1="4.39" y1="373.56" x2="2.39" y2="373.56"/><text class="cls-12" transform="translate(0 367.99)"><tspan class="cls-24">C</tspan><tspan x="6.64" y="0">ASHB</tspan><tspan class="cls-25" x="34.12" y="0">A</tspan><tspan x="41.1" y="0">CK </tspan><tspan class="cls-14" x="57.31" y="0">SY</tspan><tspan class="cls-20" x="69.16" y="0">S</tspan><tspan x="74.96" y="0">TEM</tspan></text><g class="cls-16"><text class="cls-12" transform="translate(36.53 385.61)">5<tspan class="cls-17" x="5.49" y="0">0.</tspan><tspan x="13.94" y="0">0%</tspan></text></g><line class="cls-8" x1="507.82" y1="179.21" x2="505.82" y2="179.21"/><line class="cls-10" x1="501.73" y1="179.21" x2="364.67" y2="179.21"/><line class="cls-8" x1="362.63" y1="179.21" x2="360.63" y2="179.21"/><text class="cls-12" transform="translate(442.89 173.78)"><tspan class="cls-14">W</tspan><tspan x="10.6" y="0">EBET FUND</tspan></text><g class="cls-16"><text class="cls-12" transform="translate(483.56 191.81)">1<tspan class="cls-26" x="3.62" y="0">0.</tspan><tspan x="12.07" y="0">0%</tspan></text></g><line class="cls-8" x1="495.62" y1="271.23" x2="493.62" y2="271.23"/><line class="cls-10" x1="489.53" y1="271.23" x2="352.47" y2="271.23"/><line class="cls-8" x1="350.43" y1="271.23" x2="348.43" y2="271.23"/><text class="cls-12" transform="translate(428.52 265.79)"><tspan class="cls-25">P</tspan><tspan x="6.67" y="0">R</tspan><tspan class="cls-27" x="13.45" y="0">I</tspan><tspan class="cls-28" x="16.44" y="0">V</tspan><tspan class="cls-29" x="22.98" y="0">A</tspan><tspan x="29.73" y="0">TE SALE</tspan></text><g class="cls-16"><text class="cls-12" transform="translate(471.66 283.83)">1<tspan class="cls-22" x="3.62" y="0">2</tspan><tspan class="cls-17" x="9.16" y="0">.</tspan><tspan x="11.46" y="0">0%</tspan></text></g><circle class="cls-30" cx="215.33" cy="234.18" r="50.01" transform="translate(-42.08 421.13) rotate(-83.39)"/></g></g></svg>