<svg xmlns="http://www.w3.org/2000/svg" viewBox="0 0 36.34 40.22"><defs><style>.cls-1{fill:#6c9;}</style></defs><g id="Camada_2" data-name="Camada 2"><g id="Background"><path class="cls-1" d="M33.62,0a2.71,2.71,0,0,0-2.71,2.72,2.65,2.65,0,0,0,.56,1.64L18.72,17.08a3.65,3.65,0,0,0-3.6-.49l-5-8.79a.47.47,0,0,0-.62-.19.46.46,0,0,0-.19.61l0,0,5.05,8.79a3.61,3.61,0,0,0-1.45,2.89,3.55,3.55,0,0,0,.18,1.12L4.13,25.72a.45.45,0,0,0-.19.61h0a.45.45,0,0,0,.4.25.54.54,0,0,0,.21,0l8.9-4.65a3.65,3.65,0,0,0,3.05,1.69,4.6,4.6,0,0,0,.64-.05l4.25,11.62A2.72,2.72,0,0,0,21.56,40a2.53,2.53,0,0,0,1.14.25,2.72,2.72,0,0,0,0-5.43,3.57,3.57,0,0,0-.47,0L18,23.24a3.64,3.64,0,0,0,1.74-1.7L29,24.82a.4.4,0,0,0,.15,0,.46.46,0,0,0,.45-.46.44.44,0,0,0-.3-.42L20,20.69a3.82,3.82,0,0,0,.08-.75,3.61,3.61,0,0,0-.77-2.22L32.13,5a2.64,2.64,0,0,0,1.49.45,2.72,2.72,0,1,0,0-5.43ZM22.69,35.68a1.81,1.81,0,0,1,.63,3.51h0a1.81,1.81,0,1,1-1.23-3.41A1.78,1.78,0,0,1,22.69,35.68ZM16.5,22.21a2.27,2.27,0,1,1,2.26-2.27A2.27,2.27,0,0,1,16.5,22.21Z"/><path class="cls-1" d="M9.5,6.9A1.81,1.81,0,1,0,7,6.72H7A1.8,1.8,0,0,0,9.5,6.9Z"/><path class="cls-1" d="M.66,26A1.81,1.81,0,1,0,3,28.76a1.82,1.82,0,0,0,.27-2.53A1.81,1.81,0,0,0,.68,26Z"/><path class="cls-1" d="M32,23.62a1.81,1.81,0,1,0-.51,3.58A1.81,1.81,0,0,0,32,23.62Z"/></g></g></svg>