<svg xmlns="http://www.w3.org/2000/svg" xmlns:xlink="http://www.w3.org/1999/xlink" viewBox="0 0 43.59 40.24"><defs><style>.cls-1{fill:url(#Nova_amostra_de_gradiente_1);}</style><linearGradient id="Nova_amostra_de_gradiente_1" y1="20.12" x2="43.59" y2="20.12" gradientUnits="userSpaceOnUse"><stop offset="0" stop-color="#68bd9d"/><stop offset="0.2" stop-color="#67b99d"/><stop offset="0.4" stop-color="#62ad9e"/><stop offset="0.6" stop-color="#5b98a0"/><stop offset="0.8" stop-color="#517ca2"/><stop offset="1" stop-color="#4459a4"/></linearGradient></defs><g id="Camada_2" data-name="Camada 2"><g id="Camada_1-2" data-name="Camada 1"><path class="cls-1" d="M26.3,0l-.65,1.07a1.47,1.47,0,0,1-1.23.69A6.47,6.47,0,0,0,23,2a1.45,1.45,0,0,1-1.34-.35l-.9-.87-.38.2.31,1.22a1.45,1.45,0,0,1-.38,1.36,7,7,0,0,0-.89,1.16,1.49,1.49,0,0,1-1.19.67l-1.26,0-.11.42,1.08.62a1.47,1.47,0,0,1,.69,1.23,5.61,5.61,0,0,0,.2,1.43,1.45,1.45,0,0,1-.35,1.36l-.9.91.22.36L19,11.4a1.45,1.45,0,0,1,1.36.38,5.64,5.64,0,0,0,1.14.87,1.43,1.43,0,0,1,.7,1.22l0,1.23.43.14.65-1.1a1.47,1.47,0,0,1,1.21-.69,5.23,5.23,0,0,0,1.41-.18,1.44,1.44,0,0,1,1.36.34l.94.89.36-.22-.31-1.21a1.45,1.45,0,0,1,.38-1.36,5.56,5.56,0,0,0,.87-1.14,1.47,1.47,0,0,1,1.21-.71l1.28,0,.11-.43L31,8.77a1.47,1.47,0,0,1-.69-1.21,5.94,5.94,0,0,0-.18-1.45,1.43,1.43,0,0,1,.36-1.31l.87-.92-.22-.38L30,3.81a1.47,1.47,0,0,1-1.37-.37,7,7,0,0,0-1.16-.9,1.45,1.45,0,0,1-.67-1.18l0-1.25L26.3,0ZM24.46,3.32a4.29,4.29,0,1,1-4.3,4.29A4.32,4.32,0,0,1,24.46,3.32Zm0,2.86a1.43,1.43,0,1,0,1.43,1.43A1.4,1.4,0,0,0,24.46,6.18Zm-11,11.69-1.12,1.85a1.49,1.49,0,0,1-1.21.69A9,9,0,0,0,9,20.7a1.46,1.46,0,0,1-1.35-.36L6.16,18.85l-1.25.71.51,2.1A1.43,1.43,0,0,1,5.06,23a9.53,9.53,0,0,0-1.32,1.7,1.49,1.49,0,0,1-1.21.67l-2.15,0L0,26.81l1.86,1.1a1.46,1.46,0,0,1,.72,1.22,8.57,8.57,0,0,0,.26,2.1,1.44,1.44,0,0,1-.33,1.36L1,34.15l.71,1.23,2.11-.54a1.45,1.45,0,0,1,1.36.38,8.2,8.2,0,0,0,1.68,1.3,1.42,1.42,0,0,1,.72,1.22l0,2.14L9,40.24l1.1-1.85a1.44,1.44,0,0,1,1.23-.71,8.36,8.36,0,0,0,2.11-.25,1.46,1.46,0,0,1,1.34.34l1.59,1.51,1.26-.71-.56-2.08a1.44,1.44,0,0,1,.38-1.38,8.07,8.07,0,0,0,1.27-1.65,1.46,1.46,0,0,1,1.24-.71l2.17,0,.38-1.38L20.61,30.2a1.45,1.45,0,0,1-.7-1.22,8.92,8.92,0,0,0-.26-2.12A1.45,1.45,0,0,1,20,25.54L21.48,24l-.71-1.25-2.07.52a1.45,1.45,0,0,1-1.36-.38,10,10,0,0,0-1.73-1.32,1.47,1.47,0,0,1-.67-1.16l0-2.16Zm24.26,3.54-.65,1.08a1.47,1.47,0,0,1-1.23.69,6,6,0,0,0-1.46.2A1.46,1.46,0,0,1,33.09,23l-.9-.87-.38.2.31,1.23a1.45,1.45,0,0,1-.38,1.36,6.65,6.65,0,0,0-.89,1.16,1.49,1.49,0,0,1-1.19.67l-1.26,0-.11.42,1.08.63a1.45,1.45,0,0,1,.69,1.23,5.53,5.53,0,0,0,.2,1.42,1.42,1.42,0,0,1-.36,1.36l-.89.92.22.36,1.23-.32a1.47,1.47,0,0,1,1.37.38,5.64,5.64,0,0,0,1.14.87,1.46,1.46,0,0,1,.7,1.23l0,1.23.43.13.65-1.09a1.42,1.42,0,0,1,1.2-.69,5.68,5.68,0,0,0,1.42-.18,1.46,1.46,0,0,1,1.36.33l.94.89.36-.22-.31-1.2a1.45,1.45,0,0,1,.38-1.36A5.56,5.56,0,0,0,41,32a1.5,1.5,0,0,1,1.21-.72l1.28,0,.11-.42-1.1-.65A1.47,1.47,0,0,1,41.8,29a5.94,5.94,0,0,0-.18-1.45A1.45,1.45,0,0,1,42,26.21l.87-.91-.22-.38-1.21.31a1.47,1.47,0,0,1-1.37-.38A6.93,6.93,0,0,0,38.89,24a1.46,1.46,0,0,1-.68-1.18l0-1.25-.42-.12Zm-26.55.5A7.14,7.14,0,1,1,4.05,29a7.17,7.17,0,0,1,7.17-7.13Zm24.71,2.83A4.28,4.28,0,1,1,31.63,29,4.31,4.31,0,0,1,35.93,24.74Zm-24.71,0A4.29,4.29,0,1,0,15.52,29,4.27,4.27,0,0,0,11.22,24.76Zm24.71,2.83A1.43,1.43,0,1,0,37.36,29,1.41,1.41,0,0,0,35.93,27.59Z"/></g></g></svg>