<svg xmlns="http://www.w3.org/2000/svg" xmlns:xlink="http://www.w3.org/1999/xlink" viewBox="0 0 275.67 611.02"><defs><style>.cls-1{mask:url(#mask);filter:url(#luminosity-noclip-7);}.cls-10,.cls-12,.cls-2,.cls-4,.cls-6,.cls-8{mix-blend-mode:multiply;}.cls-2{fill:url(#linear-gradient);}.cls-3{mask:url(#mask-2);filter:url(#luminosity-noclip-12);}.cls-4{fill:url(#linear-gradient-2);}.cls-5{mask:url(#mask-3);filter:url(#luminosity-noclip-8);}.cls-6{fill:url(#linear-gradient-3);}.cls-7{mask:url(#mask-4);filter:url(#luminosity-noclip-9);}.cls-8{fill:url(#linear-gradient-4);}.cls-9{mask:url(#mask-5);filter:url(#luminosity-noclip-10);}.cls-10{fill:url(#linear-gradient-5);}.cls-11{mask:url(#mask-6);filter:url(#luminosity-noclip-11);}.cls-12{fill:url(#linear-gradient-6);}.cls-13{fill:url(#Gradiente_sem_nome_3);}.cls-14{fill:url(#Gradiente_sem_nome_3-2);}.cls-15{fill:url(#Gradiente_sem_nome_3-3);}.cls-16{fill:url(#Gradiente_sem_nome_3-4);}.cls-17{fill:url(#Gradiente_sem_nome_3-5);}.cls-18{fill:url(#Gradiente_sem_nome_3-6);}.cls-19{mask:url(#mask-7);}.cls-20{fill:url(#Gradiente_sem_nome_3-7);}.cls-21{mask:url(#mask-8);}.cls-22{fill:url(#Gradiente_sem_nome_3-8);}.cls-23{fill:url(#Gradiente_sem_nome_3-9);}.cls-24{fill:url(#Gradiente_sem_nome_3-10);}.cls-25{fill:url(#Gradiente_sem_nome_3-11);}.cls-26{fill:url(#Gradiente_sem_nome_3-12);}.cls-27{fill:url(#Gradiente_sem_nome_3-13);}.cls-28{fill:url(#Gradiente_sem_nome_3-14);}.cls-29{fill:url(#Gradiente_sem_nome_3-15);}.cls-30{fill:url(#Gradiente_sem_nome_3-16);}.cls-31{fill:url(#Gradiente_sem_nome_3-17);}.cls-32{mask:url(#mask-9);}.cls-33{fill:url(#Gradiente_sem_nome_3-18);}.cls-34{mask:url(#mask-10);}.cls-35{fill:url(#Gradiente_sem_nome_3-19);}.cls-36{fill:url(#Gradiente_sem_nome_3-20);}.cls-37{fill:url(#Gradiente_sem_nome_3-21);}.cls-38{fill:url(#Gradiente_sem_nome_3-22);}.cls-39{fill:url(#Gradiente_sem_nome_3-23);}.cls-40{fill:url(#Gradiente_sem_nome_3-24);}.cls-41{fill:url(#Gradiente_sem_nome_3-25);}.cls-42{fill:url(#Gradiente_sem_nome_3-26);}.cls-43{mask:url(#mask-11);}.cls-44{fill:url(#Gradiente_sem_nome_3-27);}.cls-45{mask:url(#mask-12);}.cls-46{fill:url(#Gradiente_sem_nome_3-28);}.cls-47{filter:url(#luminosity-noclip-6);}.cls-48{filter:url(#luminosity-noclip-5);}.cls-49{filter:url(#luminosity-noclip-4);}.cls-50{filter:url(#luminosity-noclip-3);}.cls-51{filter:url(#luminosity-noclip-2);}.cls-52{filter:url(#luminosity-noclip);}</style><filter id="luminosity-noclip" x="191.14" y="-6221.59" width="64.2" height="32766" filterUnits="userSpaceOnUse" color-interpolation-filters="sRGB"><feFlood flood-color="#fff" result="bg"/><feBlend in="SourceGraphic" in2="bg"/></filter><mask id="mask" x="191.14" y="-6221.59" width="64.2" height="32766" maskUnits="userSpaceOnUse"><g class="cls-52"/></mask><linearGradient id="linear-gradient" x1="-2827.32" y1="369.45" x2="-2827.32" y2="306.14" gradientTransform="translate(749.88 -2547.4) rotate(-72.41)" gradientUnits="userSpaceOnUse"><stop offset="0.32"/><stop offset="0.34" stop-color="#0e0e0e"/><stop offset="0.37" stop-color="#333"/><stop offset="0.41" stop-color="#6e6e6e"/><stop offset="0.46" stop-color="silver"/><stop offset="0.5" stop-color="#fff"/></linearGradient><filter id="luminosity-noclip-2" x="142.36" y="-6221.59" width="59.38" height="32766" filterUnits="userSpaceOnUse" color-interpolation-filters="sRGB"><feFlood flood-color="#fff" result="bg"/><feBlend in="SourceGraphic" in2="bg"/></filter><mask id="mask-2" x="142.36" y="-6221.59" width="59.38" height="32766" maskUnits="userSpaceOnUse"><g class="cls-51"/></mask><linearGradient id="linear-gradient-2" x1="-1199.53" y1="594.51" x2="-1199.53" y2="559.14" gradientTransform="matrix(-1, 0, 0, 1, -1027.48, 0)" xlink:href="#linear-gradient"/><filter id="luminosity-noclip-3" x="195.57" y="-6221.59" width="64.19" height="32766" filterUnits="userSpaceOnUse" color-interpolation-filters="sRGB"><feFlood flood-color="#fff" result="bg"/><feBlend in="SourceGraphic" in2="bg"/></filter><mask id="mask-3" x="195.57" y="-6221.59" width="64.19" height="32766" maskUnits="userSpaceOnUse"><g class="cls-50"/></mask><linearGradient id="linear-gradient-3" x1="215.78" y1="369.56" x2="215.78" y2="306.25" gradientTransform="matrix(-0.3, 0.95, 0.95, 0.3, -23.49, -108.16)" xlink:href="#linear-gradient"/><filter id="luminosity-noclip-4" x="4.39" y="-6221.59" width="44.68" height="32766" filterUnits="userSpaceOnUse" color-interpolation-filters="sRGB"><feFlood flood-color="#fff" result="bg"/><feBlend in="SourceGraphic" in2="bg"/></filter><mask id="mask-4" x="4.39" y="-6221.59" width="44.68" height="32766" maskUnits="userSpaceOnUse"><g class="cls-49"/></mask><linearGradient id="linear-gradient-4" x1="-2050.09" y1="1025.33" x2="-2050.09" y2="996.69" gradientTransform="translate(655.39 -1633.84) rotate(-47.67)" xlink:href="#linear-gradient"/><filter id="luminosity-noclip-5" x="28.55" y="-6221.59" width="44.68" height="32766" filterUnits="userSpaceOnUse" color-interpolation-filters="sRGB"><feFlood flood-color="#fff" result="bg"/><feBlend in="SourceGraphic" in2="bg"/></filter><mask id="mask-5" x="28.55" y="-6221.59" width="44.68" height="32766" maskUnits="userSpaceOnUse"><g class="cls-48"/></mask><linearGradient id="linear-gradient-5" x1="973.27" y1="1025.88" x2="973.27" y2="997.24" gradientTransform="matrix(-0.67, 0.74, 0.74, 0.67, -37.12, -874.37)" xlink:href="#linear-gradient"/><filter id="luminosity-noclip-6" x="81.79" y="-6221.59" width="59.38" height="32766" filterUnits="userSpaceOnUse" color-interpolation-filters="sRGB"><feFlood flood-color="#fff" result="bg"/><feBlend in="SourceGraphic" in2="bg"/></filter><mask id="mask-6" x="81.79" y="-6221.59" width="59.38" height="32766" maskUnits="userSpaceOnUse"><g class="cls-47"/></mask><linearGradient id="linear-gradient-6" x1="111.48" y1="594.51" x2="111.48" y2="559.14" gradientTransform="matrix(1, 0, 0, 1, 0, 0)" xlink:href="#linear-gradient"/><linearGradient id="Gradiente_sem_nome_3" x1="812.84" y1="-2274.45" x2="862.29" y2="-2225" gradientTransform="matrix(0.48, 0.88, -0.88, 0.48, -2253.72, 396.28)" gradientUnits="userSpaceOnUse"><stop offset="0" stop-color="#67bc9b"/><stop offset="0.2" stop-color="#66b89b"/><stop offset="0.4" stop-color="#61ac9c"/><stop offset="0.6" stop-color="#5a979e"/><stop offset="0.8" stop-color="#507ba0"/><stop offset="1" stop-color="#4358a3"/></linearGradient><linearGradient id="Gradiente_sem_nome_3-2" x1="-2857.26" y1="350.6" x2="-2744.61" y2="350.6" gradientTransform="translate(749.88 -2547.4) rotate(-72.41)" xlink:href="#Gradiente_sem_nome_3"/><linearGradient id="Gradiente_sem_nome_3-3" x1="-2857.26" y1="367.33" x2="-2744.61" y2="367.33" gradientTransform="translate(749.88 -2547.4) rotate(-72.41)" xlink:href="#Gradiente_sem_nome_3"/><linearGradient id="Gradiente_sem_nome_3-4" x1="-2857.26" y1="356.5" x2="-2744.61" y2="356.5" gradientTransform="translate(749.88 -2547.4) rotate(-72.41)" xlink:href="#Gradiente_sem_nome_3"/><linearGradient id="Gradiente_sem_nome_3-5" x1="-450.84" y1="337.9" x2="-563.48" y2="337.9" gradientTransform="matrix(-0.3, 0.95, 0.95, 0.3, -249.93, 606.17)" xlink:href="#Gradiente_sem_nome_3"/><linearGradient id="Gradiente_sem_nome_3-6" x1="-477.55" y1="308.3" x2="-536.76" y2="367.5" gradientTransform="matrix(-0.3, 0.95, 0.95, 0.3, -249.93, 606.17)" xlink:href="#Gradiente_sem_nome_3"/><filter id="luminosity-noclip-7" x="191.14" y="216.12" width="64.2" height="59.07" filterUnits="userSpaceOnUse" color-interpolation-filters="sRGB"><feFlood flood-color="#fff" result="bg"/><feBlend in="SourceGraphic" in2="bg"/></filter><mask id="mask-7" x="191.14" y="216.12" width="64.2" height="59.07" maskUnits="userSpaceOnUse"><g class="cls-1"><path class="cls-2" d="M210.33,272.51c-16.48-5.22-23.24-30.36-15.31-56.39-.1.29-.2.57-.29.86-8.35,26.34-1.61,52,15.06,57.26s36.94-11.79,45.29-38.13c.09-.29.17-.58.26-.86C246.83,261.09,226.82,277.73,210.33,272.51Z"/></g></mask><linearGradient id="Gradiente_sem_nome_3-7" x1="-2827.32" y1="369.45" x2="-2827.32" y2="306.14" gradientTransform="translate(749.88 -2547.4) rotate(-72.41)" xlink:href="#Gradiente_sem_nome_3"/><filter id="luminosity-noclip-8" x="195.57" y="174.42" width="64.19" height="59.07" filterUnits="userSpaceOnUse" color-interpolation-filters="sRGB"><feFlood flood-color="#fff" result="bg"/><feBlend in="SourceGraphic" in2="bg"/></filter><mask id="mask-8" x="195.57" y="174.42" width="64.19" height="59.07" maskUnits="userSpaceOnUse"><g class="cls-5"><path class="cls-6" d="M240.58,177.1c-16.48-5.22-36.5,11.42-45,37.27.09-.29.17-.58.26-.87,8.35-26.34,28.63-43.41,45.3-38.12s23.4,30.91,15.05,57.25c-.09.29-.19.57-.28.86C263.83,207.46,257.06,182.33,240.58,177.1Z"/></g></mask><linearGradient id="Gradiente_sem_nome_3-8" x1="215.78" y1="369.56" x2="215.78" y2="306.25" gradientTransform="matrix(-0.3, 0.95, 0.95, 0.3, -23.49, -108.16)" xlink:href="#Gradiente_sem_nome_3"/><linearGradient id="Gradiente_sem_nome_3-9" x1="-2850.96" y1="322.87" x2="-2750.91" y2="322.87" gradientTransform="translate(749.88 -2547.4) rotate(-72.41)" xlink:href="#Gradiente_sem_nome_3"/><linearGradient id="Gradiente_sem_nome_3-10" x1="-2850.96" y1="322.33" x2="-2750.91" y2="322.33" gradientTransform="translate(749.88 -2547.4) rotate(-72.41)" xlink:href="#Gradiente_sem_nome_3"/><linearGradient id="Gradiente_sem_nome_3-11" x1="-2080.29" y1="1024.86" x2="-1970.86" y2="1024.86" gradientTransform="translate(655.39 -1633.84) rotate(-47.67)" xlink:href="#Gradiente_sem_nome_3"/><linearGradient id="Gradiente_sem_nome_3-12" x1="-2080.29" y1="1029.5" x2="-1970.86" y2="1029.5" gradientTransform="translate(655.39 -1633.84) rotate(-47.67)" xlink:href="#Gradiente_sem_nome_3"/><linearGradient id="Gradiente_sem_nome_3-13" x1="-2080.29" y1="1019.82" x2="-1970.86" y2="1019.82" gradientTransform="translate(655.39 -1633.84) rotate(-47.67)" xlink:href="#Gradiente_sem_nome_3"/><linearGradient id="Gradiente_sem_nome_3-14" x1="-2080.28" y1="1011.02" x2="-1970.86" y2="1011.02" gradientTransform="translate(655.39 -1633.84) rotate(-47.67)" xlink:href="#Gradiente_sem_nome_3"/><linearGradient id="Gradiente_sem_nome_3-15" x1="-2050.44" y1="986.15" x2="-2000.7" y2="1035.88" gradientTransform="translate(655.39 -1633.84) rotate(-47.67)" xlink:href="#Gradiente_sem_nome_3"/><linearGradient id="Gradiente_sem_nome_3-16" x1="-2073.18" y1="1004.73" x2="-1977.96" y2="1004.73" gradientTransform="translate(655.39 -1633.84) rotate(-47.67)" xlink:href="#Gradiente_sem_nome_3"/><linearGradient id="Gradiente_sem_nome_3-17" x1="-2073.18" y1="1004.06" x2="-1977.96" y2="1004.06" gradientTransform="translate(655.39 -1633.84) rotate(-47.67)" xlink:href="#Gradiente_sem_nome_3"/><filter id="luminosity-noclip-9" x="4.39" y="535.19" width="44.68" height="46.5" filterUnits="userSpaceOnUse" color-interpolation-filters="sRGB"><feFlood flood-color="#fff" result="bg"/><feBlend in="SourceGraphic" in2="bg"/></filter><mask id="mask-9" x="4.39" y="535.19" width="44.68" height="46.5" maskUnits="userSpaceOnUse"><g class="cls-7"><path class="cls-8" d="M23.63,576.19c-8.06,4.83-14,6.07-16.88,3.49S4.6,571,8.65,562.56s10.84-18.07,19.25-27.37c-.1.12-.21.24-.32.35C19,545,12.07,554.79,8,563.25s-4.74,14.56-1.91,17.13,8.82,1.34,16.88-3.49,17.2-12.66,25.77-22.06l.31-.35C40.6,563.72,31.58,571.43,23.63,576.19Z"/></g></mask><linearGradient id="Gradiente_sem_nome_3-18" x1="-2050.09" y1="1025.33" x2="-2050.09" y2="996.69" gradientTransform="translate(655.39 -1633.84) rotate(-47.67)" xlink:href="#Gradiente_sem_nome_3"/><filter id="luminosity-noclip-10" x="28.55" y="507.27" width="44.68" height="46.5" filterUnits="userSpaceOnUse" color-interpolation-filters="sRGB"><feFlood flood-color="#fff" result="bg"/><feBlend in="SourceGraphic" in2="bg"/></filter><mask id="mask-10" x="28.55" y="507.27" width="44.68" height="46.5" maskUnits="userSpaceOnUse"><g class="cls-9"><path class="cls-10" d="M69,526.4c4.06-8.47,4.74-14.54,1.91-17.12s-8.82-1.34-16.88,3.49-17,12.47-25.45,21.72l.32-.36c8.56-9.4,17.72-17.23,25.77-22.06s14-6.07,16.87-3.49,2.16,8.65-1.9,17.13S58.61,544,50,553.42l-.32.35C58.14,544.47,65,534.77,69,526.4Z"/></g></mask><linearGradient id="Gradiente_sem_nome_3-19" x1="973.27" y1="1025.88" x2="973.27" y2="997.24" gradientTransform="matrix(-0.67, 0.74, 0.74, 0.67, -37.12, -874.37)" xlink:href="#Gradiente_sem_nome_3"/><linearGradient id="Gradiente_sem_nome_3-20" x1="74.18" y1="593.92" x2="209.33" y2="593.92" gradientTransform="matrix(1, 0, 0, 1, 0, 0)" xlink:href="#Gradiente_sem_nome_3"/><linearGradient id="Gradiente_sem_nome_3-21" x1="74.18" y1="599.65" x2="209.33" y2="599.65" gradientTransform="matrix(1, 0, 0, 1, 0, 0)" xlink:href="#Gradiente_sem_nome_3"/><linearGradient id="Gradiente_sem_nome_3-22" x1="74.18" y1="587.7" x2="209.33" y2="587.7" gradientTransform="matrix(1, 0, 0, 1, 0, 0)" xlink:href="#Gradiente_sem_nome_3"/><linearGradient id="Gradiente_sem_nome_3-23" x1="74.18" y1="576.82" x2="209.33" y2="576.82" gradientTransform="matrix(1, 0, 0, 1, 0, 0)" xlink:href="#Gradiente_sem_nome_3"/><linearGradient id="Gradiente_sem_nome_3-24" x1="111.04" y1="546.11" x2="172.47" y2="607.54" gradientTransform="matrix(1, 0, 0, 1, 0, 0)" xlink:href="#Gradiente_sem_nome_3"/><linearGradient id="Gradiente_sem_nome_3-25" x1="82.96" y1="569.05" x2="200.56" y2="569.05" gradientTransform="matrix(1, 0, 0, 1, 0, 0)" xlink:href="#Gradiente_sem_nome_3"/><linearGradient id="Gradiente_sem_nome_3-26" x1="82.96" y1="568.23" x2="200.56" y2="568.23" gradientTransform="matrix(1, 0, 0, 1, 0, 0)" xlink:href="#Gradiente_sem_nome_3"/><filter id="luminosity-noclip-11" x="81.79" y="559.14" width="59.38" height="35.37" filterUnits="userSpaceOnUse" color-interpolation-filters="sRGB"><feFlood flood-color="#fff" result="bg"/><feBlend in="SourceGraphic" in2="bg"/></filter><mask id="mask-11" x="81.79" y="559.14" width="59.38" height="35.37" maskUnits="userSpaceOnUse"><g class="cls-11"><path class="cls-12" d="M100.18,589.33C89.07,586,83,581.55,83,576.82s6.11-9.16,17.22-12.5,25.5-5.14,41-5.18h-.58c-15.71,0-30.47,1.84-41.58,5.18s-17.22,7.78-17.22,12.5S87.9,586,99,589.33s25.87,5.18,41.58,5.18h.58C125.68,594.46,111.15,592.63,100.18,589.33Z"/></g></mask><linearGradient id="Gradiente_sem_nome_3-27" x1="111.48" y1="594.51" x2="111.48" y2="559.14" gradientTransform="matrix(1, 0, 0, 1, 0, 0)" xlink:href="#Gradiente_sem_nome_3"/><filter id="luminosity-noclip-12" x="142.36" y="559.14" width="59.38" height="35.37" filterUnits="userSpaceOnUse" color-interpolation-filters="sRGB"><feFlood flood-color="#fff" result="bg"/><feBlend in="SourceGraphic" in2="bg"/></filter><mask id="mask-12" x="142.36" y="559.14" width="59.38" height="35.37" maskUnits="userSpaceOnUse"><g class="cls-3"><path class="cls-4" d="M183.35,589.33c11.11-3.34,17.22-7.78,17.22-12.51s-6.11-9.16-17.22-12.5-25.5-5.14-41-5.18h.58c15.71,0,30.48,1.84,41.58,5.18s17.22,7.78,17.22,12.5-6.11,9.17-17.22,12.51-25.87,5.18-41.58,5.18h-.58C157.85,594.46,172.38,592.63,183.35,589.33Z"/></g></mask><linearGradient id="Gradiente_sem_nome_3-28" x1="-1199.53" y1="594.51" x2="-1199.53" y2="559.14" gradientTransform="matrix(-1, 0, 0, 1, -1027.48, 0)" xlink:href="#Gradiente_sem_nome_3"/></defs><g id="Camada_2" data-name="Camada 2"><g id="Camada_1-2" data-name="Camada 1"><path class="cls-13" d="M115,46.19A276.21,276.21,0,0,1,99.9,14.92C96.51,6.21,95.48,1,97,.12S102.43,3,108,10.46a276.75,276.75,0,0,1,18.41,29.42,279.7,279.7,0,0,1,15.07,31.27c3.39,8.7,4.42,14,2.89,14.8s-5.42-2.83-11-10.34A276.75,276.75,0,0,1,115,46.19Z"/><path class="cls-14" d="M241.34,174.7c-15.19,3.71-30.41,20.36-37.65,43.21s-4.4,45.22,5.88,57l-1.14,3.58,12.21,3.87c18.76,5.95,41.59-13.27,51-42.92s1.81-58.52-16.95-64.46l-12.21-3.87Z"/><path class="cls-15" d="M269.56,238.79c-9.4,29.66-32.23,48.87-51,42.93l2.07.65c18.76,5.95,41.59-13.27,51-42.92s1.81-58.52-16.95-64.46l-2.07-.66C271.37,180.28,279,209.14,269.56,238.79Z"/><path class="cls-16" d="M259.46,235.59c-9.4,29.65-32.23,48.87-51,42.92l1.64.52c18.77,6,41.6-13.27,51-42.92s1.81-58.51-17-64.47l-1.64-.51C261.27,177.07,268.86,205.94,259.46,235.59Z"/><path class="cls-17" d="M208.43,278.5c18.77,5.95,41.6-13.27,51-42.92s1.81-58.52-17-64.46-41.59,13.27-51,42.92S189.67,272.56,208.43,278.5Z"/><path class="cls-18" d="M210.34,272.5c16.66,5.28,36.94-11.78,45.29-38.12s1.61-52-15.06-57.26-36.94,11.79-45.29,38.13S193.67,267.22,210.34,272.5Z"/><g class="cls-19"><path class="cls-20" d="M210.33,272.51c-16.48-5.22-23.24-30.36-15.31-56.39-.1.29-.2.57-.29.86-8.35,26.34-1.61,52,15.06,57.26s36.94-11.79,45.29-38.13c.09-.29.17-.58.26-.86C246.83,261.09,226.82,277.73,210.33,272.51Z"/></g><g class="cls-21"><path class="cls-22" d="M240.58,177.1c-16.48-5.22-36.5,11.42-45,37.27.09-.29.17-.58.26-.87,8.35-26.34,28.63-43.41,45.3-38.12s23.4,30.91,15.05,57.25c-.09.29-.19.57-.28.86C263.83,207.46,257.06,182.33,240.58,177.1Z"/></g><path class="cls-23" d="M198.73,216.34c8.06-25.42,27.23-42.2,43.54-38.59-.55-.23-1.12-.44-1.7-.63-16.66-5.28-36.94,11.79-45.29,38.13s-1.61,52,15.06,57.25c.58.18,1.16.33,1.75.46C196.68,266.52,190.67,241.76,198.73,216.34Z"/><path class="cls-24" d="M196.66,215.68c8.23-26,28.06-42.91,44.59-38.31-.22-.08-.45-.18-.68-.25-16.66-5.28-36.94,11.79-45.29,38.13s-1.61,52,15.06,57.25l.7.19C194.88,266.93,188.43,241.65,196.66,215.68Z"/><path class="cls-25" d="M2,584.94l8.3,7.56c6.72,6.12,28.66-7,49-29.37S90.67,517.71,84,511.6L75.65,504Z"/><path class="cls-26" d="M57.84,561.82c-20.35,22.34-42.29,35.49-49,29.37l1.44,1.31c6.72,6.12,28.66-7,49-29.37S90.67,517.71,84,511.6l-1.43-1.31C89.24,516.41,78.19,539.48,57.84,561.82Z"/><path class="cls-27" d="M75.56,504.13,2.06,584.84l-.09.1.85.78c6.72,6.12,28.66-7,49-29.37s31.39-45.42,24.68-51.54l-.86-.77Z"/><path class="cls-28" d="M75.65,504c6.72,6.11-4.33,29.19-24.68,51.53S8.69,591.05,2,584.94s4.33-29.2,24.67-51.54S68.93,497.91,75.65,504Z"/><path class="cls-29" d="M49.39,554.13c-8.56,9.4-17.71,17.23-25.76,22.06s-14,6.07-16.88,3.49S4.6,571,8.65,562.56s11-18.32,19.57-27.72S45.94,517.6,54,512.78s14.05-6.07,16.88-3.49S73,518,69,526.41,58,544.72,49.39,554.13Z"/><path class="cls-30" d="M11.22,564.9c4.06-8.47,11-18.31,19.57-27.71S48.51,520,56.56,515.12c6.83-4.09,12.17-5.6,15.36-4.41a4.69,4.69,0,0,0-1-1.42C68,506.71,62.05,508,54,512.78s-17.2,12.66-25.77,22.06S12.71,554.09,8.65,562.56s-4.73,14.55-1.9,17.12a4.58,4.58,0,0,0,1.52.92C6.78,577.53,7.79,572.07,11.22,564.9Z"/><path class="cls-31" d="M9.25,563.1c4.06-8.47,11-18.31,19.57-27.71s17.72-17.24,25.77-22.06c7.77-4.66,13.63-6,16.57-3.75l-.29-.29C68,506.71,62.05,508,54,512.78s-17.2,12.66-25.77,22.06S12.71,554.09,8.65,562.56s-4.73,14.55-1.9,17.12a4.15,4.15,0,0,0,.32.27C4.57,577.23,5.34,571.28,9.25,563.1Z"/><g class="cls-32"><path class="cls-33" d="M23.63,576.19c-8.06,4.83-14,6.07-16.88,3.49S4.6,571,8.65,562.56s10.84-18.07,19.25-27.37c-.1.12-.21.24-.32.35C19,545,12.07,554.79,8,563.25s-4.74,14.56-1.91,17.13,8.82,1.34,16.88-3.49,17.2-12.66,25.77-22.06l.31-.35C40.6,563.72,31.58,571.43,23.63,576.19Z"/></g><g class="cls-34"><path class="cls-35" d="M69,526.4c4.06-8.47,4.74-14.54,1.91-17.12s-8.82-1.34-16.88,3.49-17,12.47-25.45,21.72l.32-.36c8.56-9.4,17.72-17.23,25.77-22.06s14-6.07,16.87-3.49,2.16,8.65-1.9,17.13S58.61,544,50,553.42l-.32.35C58.14,544.47,65,534.77,69,526.4Z"/></g><path class="cls-36" d="M74.18,576.82v13.87c0,11.22,30.26,20.33,67.58,20.33s67.57-9.11,67.57-20.33V576.82Z"/><path class="cls-37" d="M141.76,608.62c-37.32,0-67.58-9.1-67.58-20.33v2.4c0,11.22,30.26,20.33,67.58,20.33s67.57-9.11,67.57-20.33v-2.4C209.33,599.52,179.08,608.62,141.76,608.62Z"/><path class="cls-38" d="M209.16,576.82h-135v1.43c0,11.23,30.26,20.33,67.58,20.33s67.57-9.1,67.57-20.33v-1.43Z"/><path class="cls-39" d="M209.33,576.82c0,11.23-30.25,20.33-67.57,20.33s-67.58-9.1-67.58-20.33,30.26-20.32,67.58-20.32S209.33,565.6,209.33,576.82Z"/><path class="cls-40" d="M141.76,594.51c-15.71,0-30.47-1.84-41.58-5.18S83,581.55,83,576.82s6.11-9.16,17.22-12.5,25.87-5.18,41.58-5.18,30.47,1.84,41.57,5.18,17.23,7.78,17.23,12.5-6.12,9.17-17.23,12.51S157.46,594.51,141.76,594.51Z"/><path class="cls-41" d="M100.18,568.61c11.11-3.34,25.87-5.18,41.58-5.18s30.47,1.84,41.57,5.18c9.41,2.83,15.24,6.45,16.8,10.36a5.81,5.81,0,0,0,.43-2.15c0-4.72-6.12-9.16-17.23-12.5s-25.87-5.18-41.57-5.18-30.47,1.84-41.58,5.18S83,572.1,83,576.82a5.79,5.79,0,0,0,.42,2.15C85,575.06,90.77,571.44,100.18,568.61Z"/><path class="cls-42" d="M100.18,565.32c11.11-3.34,25.87-5.18,41.58-5.18s30.47,1.84,41.57,5.18c10.72,3.22,16.79,7.47,17.2,12a4.36,4.36,0,0,0,0-.51c0-4.72-6.12-9.16-17.23-12.5s-25.87-5.18-41.57-5.18-30.47,1.84-41.58,5.18S83,572.1,83,576.82a4.35,4.35,0,0,0,0,.51C83.39,572.79,89.46,568.54,100.18,565.32Z"/><g class="cls-43"><path class="cls-44" d="M100.18,589.33C89.07,586,83,581.55,83,576.82s6.11-9.16,17.22-12.5,25.5-5.14,41-5.18h-.58c-15.71,0-30.47,1.84-41.58,5.18s-17.22,7.78-17.22,12.5S87.9,586,99,589.33s25.87,5.18,41.58,5.18h.58C125.68,594.46,111.15,592.63,100.18,589.33Z"/></g><g class="cls-45"><path class="cls-46" d="M183.35,589.33c11.11-3.34,17.22-7.78,17.22-12.51s-6.11-9.16-17.22-12.5-25.5-5.14-41-5.18h.58c15.71,0,30.48,1.84,41.58,5.18s17.22,7.78,17.22,12.5-6.11,9.17-17.22,12.51-25.87,5.18-41.58,5.18h-.58C157.85,594.46,172.38,592.63,183.35,589.33Z"/></g></g></g></svg>