<svg xmlns="http://www.w3.org/2000/svg" viewBox="0 0 22.75 30.8"><defs><style>.cls-1{fill:#6c9;}</style></defs><g id="Camada_2" data-name="Camada 2"><g id="Background"><path class="cls-1" d="M11.44,22.36a9,9,0,0,1-1.17-.07.55.55,0,0,0,0-.18L8.18,12.73h1a.59.59,0,0,0,.43-.19l.65-.69,2,2.05a.6.6,0,0,0,.87,0l1.13-1.19h.3L13.45,18.1a.64.64,0,0,0,.47.76.61.61,0,0,0,.73-.49l1.29-6.19a.69.69,0,0,0-.13-.54.61.61,0,0,0-.48-.24H14a.59.59,0,0,0-.43.19l-.88.93-2-2a.59.59,0,0,0-.87,0l-.9.95H7.41a.61.61,0,0,0-.48.24.66.66,0,0,0-.11.54L9,22.06A10.51,10.51,0,0,1,1.23,11.85,10.37,10.37,0,0,1,11.31,1.23a10.38,10.38,0,0,1,10.21,10.5A10.38,10.38,0,0,1,11.44,22.36Zm-2,5a1.27,1.27,0,0,1-1.19-.82h2.61a.62.62,0,0,0,0-1.23H8.16v-1h2.69a.61.61,0,0,0,.61-.61.62.62,0,0,0-.61-.62H8.16v-.82a11.27,11.27,0,0,0,6.16.08v3.7a1.26,1.26,0,0,1-1.26,1.27Zm13.32-16A11.38,11.38,0,1,0,6.93,21.84v4.22a2.5,2.5,0,0,0,2.18,2.48v.13a2.13,2.13,0,1,0,4.26,0v-.13a2.5,2.5,0,0,0,2.18-2.48V22a11.4,11.4,0,0,0,7.2-10.58Z"/></g></g></svg>