<svg xmlns="http://www.w3.org/2000/svg" xmlns:xlink="http://www.w3.org/1999/xlink" viewBox="0 0 38.28 22.3"><defs><style>.cls-1{fill:url(#Nova_amostra_de_gradiente_1);}.cls-2{fill:url(#Nova_amostra_de_gradiente_1-2);}.cls-3{fill:url(#Nova_amostra_de_gradiente_1-3);}.cls-4{fill:url(#Nova_amostra_de_gradiente_1-4);}.cls-5{fill:url(#Nova_amostra_de_gradiente_1-5);}.cls-6{fill:url(#Nova_amostra_de_gradiente_1-6);}</style><linearGradient id="Nova_amostra_de_gradiente_1" x1="12.98" y1="6.16" x2="25.3" y2="6.16" gradientUnits="userSpaceOnUse"><stop offset="0" stop-color="#68bd9d"/><stop offset="0.2" stop-color="#67b99d"/><stop offset="0.4" stop-color="#62ad9e"/><stop offset="0.6" stop-color="#5b98a0"/><stop offset="0.8" stop-color="#517ca2"/><stop offset="1" stop-color="#4459a4"/></linearGradient><linearGradient id="Nova_amostra_de_gradiente_1-2" x1="9.97" y1="17.83" x2="28.37" y2="17.83" xlink:href="#Nova_amostra_de_gradiente_1"/><linearGradient id="Nova_amostra_de_gradiente_1-3" x1="26.47" y1="10.07" x2="36.06" y2="10.07" xlink:href="#Nova_amostra_de_gradiente_1"/><linearGradient id="Nova_amostra_de_gradiente_1-4" x1="27.66" y1="18.91" x2="38.28" y2="18.91" xlink:href="#Nova_amostra_de_gradiente_1"/><linearGradient id="Nova_amostra_de_gradiente_1-5" x1="2.23" y1="10.07" x2="11.81" y2="10.07" xlink:href="#Nova_amostra_de_gradiente_1"/><linearGradient id="Nova_amostra_de_gradiente_1-6" x1="0" y1="18.91" x2="10.62" y2="18.91" xlink:href="#Nova_amostra_de_gradiente_1"/></defs><g id="Camada_2" data-name="Camada 2"><g id="Camada_1-2" data-name="Camada 1"><path class="cls-1" d="M19.17,0A6.16,6.16,0,1,1,13,6.19,6.14,6.14,0,0,1,19.17,0Zm0,1.3a4.86,4.86,0,1,0,0,9.72A4.81,4.81,0,0,0,24,6.19,4.83,4.83,0,0,0,19.17,1.3Z"/><path class="cls-2" d="M11.22,21.77a.57.57,0,0,1-.72.52.58.58,0,0,1-.52-.71,9.25,9.25,0,0,1,18.39,0,.66.66,0,0,1-.59.71.58.58,0,0,1-.72-.52,8,8,0,0,0-15.84,0Z"/><path class="cls-3" d="M31.23,5.28A4.79,4.79,0,1,1,26.47,10,4.8,4.8,0,0,1,31.23,5.28Zm0,1.3A3.49,3.49,0,1,0,34.75,10,3.48,3.48,0,0,0,31.23,6.58Z"/><path class="cls-4" d="M28.63,17.47a.67.67,0,0,1-.92-.26A.74.74,0,0,1,28,16.3a7.66,7.66,0,0,1,3.19-.79,7.15,7.15,0,0,1,7,6.07.6.6,0,0,1-.52.71.66.66,0,0,1-.78-.52,5.76,5.76,0,0,0-5.74-4.95A5.92,5.92,0,0,0,28.63,17.47Z"/><path class="cls-5" d="M7.05,5.28A4.79,4.79,0,1,1,2.23,10,4.78,4.78,0,0,1,7.05,5.28Zm0,1.3A3.49,3.49,0,1,0,10.5,10,3.49,3.49,0,0,0,7.05,6.58Z"/><path class="cls-6" d="M1.31,21.77a.63.63,0,0,1-.71.52A.61.61,0,0,1,0,21.58a7.15,7.15,0,0,1,7-6.07,8.18,8.18,0,0,1,3.26.79.8.8,0,0,1,.26.91.66.66,0,0,1-.91.26,6,6,0,0,0-2.61-.65A5.76,5.76,0,0,0,1.31,21.77Z"/></g></g></svg>