<svg xmlns="http://www.w3.org/2000/svg" xmlns:xlink="http://www.w3.org/1999/xlink" viewBox="0 0 47.54 39.2"><defs><style>.cls-1{fill:url(#Nova_amostra_de_gradiente_1);}.cls-2{fill:url(#Nova_amostra_de_gradiente_1-2);}.cls-3{fill:url(#Nova_amostra_de_gradiente_1-3);}.cls-4{fill:url(#Nova_amostra_de_gradiente_1-4);}</style><linearGradient id="Nova_amostra_de_gradiente_1" x1="9.83" y1="8.35" x2="13.16" y2="14.11" gradientUnits="userSpaceOnUse"><stop offset="0" stop-color="#68bd9d"/><stop offset="0.2" stop-color="#67b99d"/><stop offset="0.4" stop-color="#62ad9e"/><stop offset="0.6" stop-color="#5b98a0"/><stop offset="0.8" stop-color="#517ca2"/><stop offset="1" stop-color="#4459a4"/></linearGradient><linearGradient id="Nova_amostra_de_gradiente_1-2" x1="5.04" y1="7.75" x2="21.06" y2="35.49" xlink:href="#Nova_amostra_de_gradiente_1"/><linearGradient id="Nova_amostra_de_gradiente_1-3" x1="31.2" y1="1.97" x2="43.93" y2="24.02" xlink:href="#Nova_amostra_de_gradiente_1"/><linearGradient id="Nova_amostra_de_gradiente_1-4" x1="35.3" y1="0.54" x2="39.32" y2="7.5" xlink:href="#Nova_amostra_de_gradiente_1"/></defs><g id="Camada_2" data-name="Camada 2"><g id="Camada_1-2" data-name="Camada 1"><circle class="cls-1" cx="11.5" cy="11.23" r="3.33"/><path class="cls-2" d="M18.64,16.89c1.55-1,3.69-4,4.09-4.61a1.42,1.42,0,0,0-2.34-1.61,19,19,0,0,1-3.23,3.79,7.8,7.8,0,0,1-3.72,1.08H9.55a7.8,7.8,0,0,1-3.72-1.08A19,19,0,0,1,2.6,10.67a1.39,1.39,0,0,0-2-.36,1.39,1.39,0,0,0-.36,2c.43.6,2.54,3.66,4.09,4.61a10.51,10.51,0,0,0,3.82,1.39c0,1.68.1,6.78.23,7.84a19.13,19.13,0,0,0,.86,3.19,13,13,0,0,1,.56,2,32.5,32.5,0,0,1-3,5.27,1.67,1.67,0,0,0,.43,2.31,1.7,1.7,0,0,0,.93.3,1.73,1.73,0,0,0,1.38-.73c2.4-3.56,3.62-5.93,3.62-7.08a11.62,11.62,0,0,0-.75-3.13,6.67,6.67,0,0,1-.27-.86c.36.2.83.43,1.42.73,1,.53,2.21,1.12,3,1.58a30.49,30.49,0,0,1-.33,5.5,1.67,1.67,0,1,0,3.3.46c1-7.34-.07-8-.73-8.46-.85-.56-2.37-1.35-3.69-2a3.29,3.29,0,0,0-.42-.2l.19-6.72A10.76,10.76,0,0,0,18.64,16.89Z"/><path class="cls-3" d="M32.48,12.23a1.52,1.52,0,0,1,.34.9v4.71a.79.79,0,0,1,0,.23l-.32,1.74a.27.27,0,0,1-.41.2l-2.31-1.24a1.66,1.66,0,0,0-2.37.92,1.72,1.72,0,0,0,.87,2l4.59,2.48a1.68,1.68,0,0,0,2.43-1.15l.58-3.27a.66.66,0,0,1,.67-.55h1.82a.67.67,0,0,1,.63.43l.73,2a.48.48,0,0,1-.18.57l-2.92,2.17a1.7,1.7,0,0,0-.55,2.11,1.68,1.68,0,0,0,1.48.93,1.59,1.59,0,0,0,1-.35l4.22-3.18a1.67,1.67,0,0,0,.58-1.88l-1.42-4a1.34,1.34,0,0,1-.08-.46V13.13a1.35,1.35,0,0,1,.34-.9l5-5.81a1.66,1.66,0,0,0-2.52-2.17L40.78,8.76a2.39,2.39,0,0,1-1.85.84H35.69a2.51,2.51,0,0,1-1.85-.84L30,4.25a1.66,1.66,0,0,0-2.51,2.17Z"/><circle class="cls-4" cx="37.31" cy="4.02" r="4.02"/></g></g></svg>