<svg xmlns="http://www.w3.org/2000/svg" xmlns:xlink="http://www.w3.org/1999/xlink" viewBox="0 0 26.18 24.45"><defs><style>.cls-1{fill:url(#Nova_amostra_de_gradiente_1);}.cls-2{fill:url(#Nova_amostra_de_gradiente_1-2);}</style><linearGradient id="Nova_amostra_de_gradiente_1" y1="12.22" x2="26.02" y2="12.22" gradientUnits="userSpaceOnUse"><stop offset="0" stop-color="#68bd9d"/><stop offset="0.2" stop-color="#67b99d"/><stop offset="0.4" stop-color="#62ad9e"/><stop offset="0.6" stop-color="#5b98a0"/><stop offset="0.8" stop-color="#517ca2"/><stop offset="1" stop-color="#4459a4"/></linearGradient><linearGradient id="Nova_amostra_de_gradiente_1-2" x1="5.06" y1="10.59" x2="26.18" y2="10.59" xlink:href="#Nova_amostra_de_gradiente_1"/></defs><g id="Camada_2" data-name="Camada 2"><g id="Camada_1-2" data-name="Camada 1"><path class="cls-1" d="M25.54,21.72H23.39v-.54a.47.47,0,1,0-.94,0v.54h-2.6v-.54a.49.49,0,0,0-.48-.48.48.48,0,0,0-.47.48v.54H16.3v-.54a.48.48,0,0,0-.47-.48.49.49,0,0,0-.48.48v.54h-2.6v-.54a.47.47,0,1,0-.94,0v.54H9.2v-.54a.47.47,0,1,0-.94,0v.54H5.66v-.54a.49.49,0,0,0-.48-.48.48.48,0,0,0-.47.48v.54H2.85V17.83h.54a.47.47,0,1,0,0-.94H2.85V14.5h.54A.48.48,0,0,0,3.87,14a.49.49,0,0,0-.48-.48H2.85V11.16h.54a.47.47,0,1,0,0-.94H2.85V7.83h.54a.48.48,0,1,0,0-1H2.85V4.49h.54a.47.47,0,1,0,0-.94H2.85V.47A.47.47,0,0,0,2.38,0,.48.48,0,0,0,1.9.47V21.72H.47a.47.47,0,0,0-.47.47.48.48,0,0,0,.47.48H1.9V24a.48.48,0,1,0,1,0v-1.3H25.54a.49.49,0,0,0,.48-.48A.48.48,0,0,0,25.54,21.72Z"/><path class="cls-2" d="M5.53,4.49H9.94l1.21,3a.47.47,0,0,0,.82.1l2.3-3.14h4.88l1.56,1.88L18.06,9.1l-5.93,2a.6.6,0,0,0-.21.14l-1.83,2.06L5.81,10.2a.47.47,0,0,0-.55.77l4.2,3L5.18,18.81a.48.48,0,0,0,.35.79.48.48,0,0,0,.35-.16l4.36-4.92,5,3.59a.54.54,0,0,0,.28.08h.09l9-1.79-.71,1.26a.48.48,0,0,0,.18.64.53.53,0,0,0,.24.06.47.47,0,0,0,.41-.24L26,16s0,0,0-.06l0-.1v-.1s0,0,0-.07,0,0,0,0l0-.09a.25.25,0,0,0,0-.07l-.06-.06a.46.46,0,0,0-.07-.07h0L23.62,14.1a.48.48,0,0,0-.65.18.47.47,0,0,0,.18.64l1.05.59-8.55,1.71-4.78-3.41,1.68-1.89,5.92-2a.44.44,0,0,0,.19-.12l2.66-2.75,3.15,3.8L23.1,10.8a.46.46,0,0,0-.5.44.47.47,0,0,0,.44.5l2.47.17h0a.45.45,0,0,0,.28-.1h0s0,0,.06-.07l.05-.07,0-.05a.5.5,0,0,0,0-.13h0L26.18,9a.46.46,0,0,0-.44-.5.45.45,0,0,0-.51.43l-.08,1.29L22,6.41l3.09-3.19V4.53a.47.47,0,1,0,.94,0V2.05h0a.5.5,0,0,0,0-.12.11.11,0,0,1,0,0l0,0a.42.42,0,0,0-.08-.12h0l-.08-.05a.18.18,0,0,0-.07,0,.8.8,0,0,0-.15,0H23.06a.47.47,0,0,0,0,.94h1.36L21.37,5.68l-1.64-2a.49.49,0,0,0-.36-.17H14a.47.47,0,0,0-.38.2L11.71,6.38l-1-2.54a.46.46,0,0,0-.44-.29H5.53a.47.47,0,0,0,0,.94Z"/></g></g></svg>