<svg xmlns="http://www.w3.org/2000/svg" xmlns:xlink="http://www.w3.org/1999/xlink" viewBox="0 0 306.75 43.49"><defs><style>.cls-1{fill:url(#Gradiente_sem_nome_3);}.cls-2{fill:url(#Gradiente_sem_nome_3-2);}.cls-3{fill:#fff;}</style><linearGradient id="Gradiente_sem_nome_3" x1="38.16" y1="33.54" x2="4.36" y2="14.03" gradientUnits="userSpaceOnUse"><stop offset="0" stop-color="#67bc9b"/><stop offset="0.2" stop-color="#66b89b"/><stop offset="0.4" stop-color="#61ac9c"/><stop offset="0.6" stop-color="#5a979e"/><stop offset="0.8" stop-color="#507ba0"/><stop offset="1" stop-color="#4358a3"/></linearGradient><linearGradient id="Gradiente_sem_nome_3-2" x1="9.84" y1="7.4" x2="54.17" y2="7.4" xlink:href="#Gradiente_sem_nome_3"/></defs><g id="Camada_2" data-name="Camada 2"><g id="Background"><path class="cls-1" d="M8.36,24.67,14,30.32l.13.15a1.78,1.78,0,0,1,.23.31,2.56,2.56,0,0,1-2.11,3.76,2.63,2.63,0,0,1-1.74-.73L.67,24a3.73,3.73,0,0,1-.26-.3A2.56,2.56,0,0,1,2,19.77a1.71,1.71,0,0,1,.39,0H42.07a2.5,2.5,0,0,1,.38.06A2.58,2.58,0,0,1,43.62,24a2.68,2.68,0,0,1-1.75.72Z"/><path class="cls-2" d="M51.74,14.8H12.27a1.63,1.63,0,0,1-.38,0,2.55,2.55,0,0,1-1.81-3.55,2.58,2.58,0,0,1,2.19-1.35H45.78L40.13,4.22,40,4.07a1.78,1.78,0,0,1-.23-.31A2.57,2.57,0,0,1,41.49,0a2.44,2.44,0,0,1,.58,0,2.5,2.5,0,0,1,.38.06,2.74,2.74,0,0,1,1.17.66l9.86,9.86a2.34,2.34,0,0,1,.25.3,2.55,2.55,0,0,1-.7,3.55,2.49,2.49,0,0,1-.91.33A1.63,1.63,0,0,1,51.74,14.8Z"/><path class="cls-3" d="M34.26,43.49H30.93l-2.06-4.8-2.05,4.8H23.51L21.22,30.82h3l1.42,7.84,3.21-7.51,3.23,7.51,1.43-7.84h3Z"/><path class="cls-3" d="M43.73,43.49a6.41,6.41,0,0,1-2.32-.44,6.56,6.56,0,0,1-2-1.3,6.35,6.35,0,0,1-1.44-2,6.21,6.21,0,0,1-.55-2.32v-.2a6.31,6.31,0,0,1,1.72-4.36,5.93,5.93,0,0,1,2.07-1.45,6.18,6.18,0,0,1,2.38-.55h.13A6.45,6.45,0,0,1,48,32.57,9.83,9.83,0,0,1,50.09,36L41.6,39.71a4.27,4.27,0,0,0,.89.53,3.36,3.36,0,0,0,1.2.23h.13A3.75,3.75,0,0,0,45,40.18a3.45,3.45,0,0,0,1.07-.75,4.15,4.15,0,0,0,.68-1.06l2.8,1.07a6.46,6.46,0,0,1-1.29,2.05,6,6,0,0,1-2,1.44,6.08,6.08,0,0,1-2.33.56Zm-.14-9.65a3.39,3.39,0,0,0-2.31,1,4.29,4.29,0,0,0-.66,1.06,3.13,3.13,0,0,0-.23,1l5.4-2.38a3.52,3.52,0,0,0-.88-.52,3.39,3.39,0,0,0-1.26-.23Z"/><path class="cls-3" d="M51.39,21.45h3v10.3a6.21,6.21,0,0,1,3.35-.94,6.34,6.34,0,0,1,4.49,10.82,6.35,6.35,0,0,1-10.82-4.48Zm4,13.35a3.26,3.26,0,0,0-1,2.35,3.3,3.3,0,0,0,1,2.35,3.33,3.33,0,0,0,4.7,0,3.32,3.32,0,0,0-4.7-4.7Z"/><path class="cls-3" d="M72,43.49a6.36,6.36,0,0,1-2.31-.44,6.44,6.44,0,0,1-2-1.3,6.35,6.35,0,0,1-1.44-2,5.85,5.85,0,0,1-.55-2.32v-.2a6.25,6.25,0,0,1,.43-2.32,6.44,6.44,0,0,1,1.29-2,5.9,5.9,0,0,1,2.06-1.45,6.22,6.22,0,0,1,2.39-.55H72a6.11,6.11,0,0,1,2.32.45,6.22,6.22,0,0,1,2,1.3,9.83,9.83,0,0,1,2,3.41l-8.48,3.73a4.27,4.27,0,0,0,.89.53,3.35,3.35,0,0,0,1.19.23h.14a3.63,3.63,0,0,0,1.21-.29,3.38,3.38,0,0,0,1.08-.75,4.11,4.11,0,0,0,.67-1.06l2.8,1.07a6.13,6.13,0,0,1-1.29,2.05,5.91,5.91,0,0,1-2,1.44,6.08,6.08,0,0,1-2.33.56Zm-.13-9.65a3.38,3.38,0,0,0-1.23.28,3.45,3.45,0,0,0-1.09.76,4.6,4.6,0,0,0-.66,1.06,3.74,3.74,0,0,0-.23,1l5.41-2.38a3.71,3.71,0,0,0-.88-.52A3.4,3.4,0,0,0,72,33.84Z"/><path class="cls-3" d="M77.92,27.26l3.85-5.81h1.42v4.23h2.43v2.84H83.19v15H80.36v-15H77.92"/><path class="cls-3" d="M103.87,20H99.56V16.14h13.56V20h-4.3V30.82h-4.95Z"/><path class="cls-3" d="M113.6,23.48c0-4.45,3.51-7.68,8.29-7.68s8.29,3.23,8.29,7.68-3.5,7.68-8.29,7.68S113.6,27.93,113.6,23.48Zm11.59,0a3.34,3.34,0,0,0-3.3-3.67c-1.82,0-3.29,1.38-3.29,3.67s1.47,3.67,3.29,3.67A3.34,3.34,0,0,0,125.19,23.48Z"/><path class="cls-3" d="M138,26l-1.11,1.24v3.63H132V16.14h4.87v5.32l4.82-5.32h5.39L141.2,22.6l6.17,8.22h-5.73Z"/><path class="cls-3" d="M160.26,27.09v3.73H148V16.14H160v3.73h-7.07v1.72h6.21v3.57h-6.21v1.93Z"/><path class="cls-3" d="M176.65,16.14V30.82h-4.07L167,24.15v6.67h-4.82V16.14h4.07l5.58,6.67V16.14Z"/><path class="cls-3" d="M199.1,21.67c0,3.4-2.6,5.54-6.69,5.54h-2.12v3.61h-4.95V16.14h7.07C196.5,16.14,199.1,18.28,199.1,21.67Zm-5,0c0-1.07-.65-1.72-2-1.72h-1.8V23.4h1.8C193.46,23.4,194.11,22.75,194.11,21.67Z"/><path class="cls-3" d="M210,28.26h-5.59l-1,2.56h-5l6.42-14.68h4.87l6.42,14.68H211Zm-1.37-3.56L207.2,21l-1.42,3.7Z"/><path class="cls-3" d="M223.2,27.13h-1.34v3.69h-5V16.14H224c4.1,0,6.7,2.14,6.7,5.53a4.93,4.93,0,0,1-2.77,4.62L231,30.82H225.7Zm.46-7.18h-1.8V23.4h1.8c1.36,0,2-.65,2-1.73S225,20,223.66,20Z"/><path class="cls-3" d="M235.52,20h-4.3V16.14h13.55V20h-4.3V30.82h-4.95Z"/><path class="cls-3" d="M246.06,16.14H251V30.82h-4.95Z"/><path class="cls-3" d="M256.59,20h-4.3V16.14h13.55V20h-4.3V30.82h-5Z"/><path class="cls-3" d="M267.13,16.14h4.95V30.82h-4.95Z"/><path class="cls-3" d="M273.88,23.48c0-4.45,3.51-7.68,8.29-7.68s8.29,3.23,8.29,7.68-3.5,7.68-8.29,7.68S273.88,27.93,273.88,23.48Zm11.59,0a3.34,3.34,0,0,0-3.3-3.67c-1.82,0-3.29,1.38-3.29,3.67s1.47,3.67,3.29,3.67A3.34,3.34,0,0,0,285.47,23.48Z"/><path class="cls-3" d="M306.75,16.14V30.82h-4.07l-5.59-6.67v6.67h-4.82V16.14h4.07l5.58,6.67V16.14Z"/></g></g></svg>