<svg xmlns="http://www.w3.org/2000/svg" xmlns:xlink="http://www.w3.org/1999/xlink" viewBox="0 0 1217.33 892.69"><defs><style>.cls-1{fill:url(#linear-gradient);}.cls-2{fill:url(#linear-gradient-2);}.cls-3{fill:url(#linear-gradient-3);}.cls-4{fill:url(#linear-gradient-4);}.cls-5{fill:url(#linear-gradient-5);}.cls-6{fill:url(#linear-gradient-6);}.cls-127,.cls-136,.cls-139,.cls-65,.cls-66,.cls-7{fill:none;}.cls-8{isolation:isolate;}.cls-9{opacity:0.54;}.cls-10,.cls-128,.cls-59,.cls-68,.cls-69,.cls-70,.cls-71,.cls-72,.cls-73,.cls-74,.cls-75,.cls-76,.cls-77,.cls-78,.cls-79,.cls-80,.cls-81,.cls-82,.cls-83,.cls-84,.cls-85,.cls-86,.cls-87,.cls-88,.cls-89,.cls-94,.cls-95,.cls-96,.cls-97{fill:#fff;}.cls-10{opacity:0;}.cls-10,.cls-11,.cls-116,.cls-118,.cls-12,.cls-120,.cls-122,.cls-124,.cls-126,.cls-13,.cls-14,.cls-15,.cls-16,.cls-17,.cls-18,.cls-19,.cls-20,.cls-21,.cls-22,.cls-23,.cls-24,.cls-25,.cls-26,.cls-27,.cls-28,.cls-29,.cls-30,.cls-31,.cls-32,.cls-33,.cls-34,.cls-35,.cls-36,.cls-37,.cls-38,.cls-39,.cls-40,.cls-41,.cls-42,.cls-43,.cls-44,.cls-45,.cls-46,.cls-47,.cls-48,.cls-49,.cls-50,.cls-51,.cls-52,.cls-53,.cls-54,.cls-55,.cls-56{mix-blend-mode:multiply;}.cls-11{fill:#fbfbfb;opacity:0.02;}.cls-12{fill:#f7f7f7;opacity:0.04;}.cls-13{fill:#f3f3f3;opacity:0.07;}.cls-14{fill:#f0f0f0;opacity:0.09;}.cls-15{fill:#ececec;opacity:0.11;}.cls-16{fill:#e8e8e8;opacity:0.13;}.cls-17{fill:#e4e4e4;opacity:0.15;}.cls-18{fill:#e0e0e0;opacity:0.17;}.cls-19{fill:#dcdcdc;opacity:0.2;}.cls-20{fill:#d8d8d8;opacity:0.22;}.cls-21{fill:#d4d4d4;opacity:0.24;}.cls-22{fill:#d1d1d1;opacity:0.26;}.cls-23{fill:#cdcdcd;opacity:0.28;}.cls-24{fill:#c9c9c9;opacity:0.3;}.cls-25{fill:#c5c5c5;opacity:0.33;}.cls-26{fill:#c1c1c1;opacity:0.35;}.cls-27{fill:#bdbdbd;opacity:0.37;}.cls-28{fill:#b9b9b9;opacity:0.39;}.cls-29{fill:#b5b5b5;opacity:0.41;}.cls-30{fill:#b2b2b2;opacity:0.43;}.cls-31{fill:#aeaeae;opacity:0.46;}.cls-32{fill:#aaa;opacity:0.48;}.cls-33{fill:#a6a6a6;opacity:0.5;}.cls-34{fill:#a2a2a2;opacity:0.52;}.cls-35{fill:#9e9e9e;opacity:0.54;}.cls-36{fill:#9a9a9a;opacity:0.57;}.cls-37{fill:#979797;opacity:0.59;}.cls-38{fill:#939393;opacity:0.61;}.cls-39{fill:#8f8f8f;opacity:0.63;}.cls-40{fill:#8b8b8b;opacity:0.65;}.cls-41{fill:#878787;opacity:0.67;}.cls-42{fill:#838383;opacity:0.7;}.cls-43{fill:#7f7f7f;opacity:0.72;}.cls-44{fill:#7b7b7b;opacity:0.74;}.cls-45{fill:#787878;opacity:0.76;}.cls-46{fill:#747474;opacity:0.78;}.cls-47{fill:#707070;opacity:0.8;}.cls-48{fill:#6c6c6c;opacity:0.83;}.cls-49{fill:#686868;opacity:0.85;}.cls-50{fill:#646464;opacity:0.87;}.cls-51{fill:#606060;opacity:0.89;}.cls-52{fill:#5c5c5c;opacity:0.91;}.cls-53{fill:#595959;opacity:0.93;}.cls-54{fill:#555;opacity:0.96;}.cls-55{fill:#515151;opacity:0.98;}.cls-56{fill:#4d4d4d;}.cls-57{fill:url(#linear-gradient-7);}.cls-58{fill:#18132d;}.cls-59{font-size:20.99px;font-family:Montserrat-Black, Montserrat;font-weight:800;}.cls-60{letter-spacing:-0.01em;}.cls-61{letter-spacing:0em;}.cls-62{letter-spacing:-0.04em;}.cls-63{letter-spacing:0em;}.cls-64{letter-spacing:-0.01em;}.cls-127,.cls-136,.cls-139,.cls-65,.cls-66{stroke:#6c9;stroke-width:2px;}.cls-109,.cls-110,.cls-127,.cls-136,.cls-139,.cls-65,.cls-66{stroke-miterlimit:10;}.cls-66{stroke-dasharray:4.03 4.03;}.cls-67{font-size:38px;fill:#6c9;}.cls-128,.cls-67{font-family:Montserrat-Bold, Montserrat;font-weight:700;}.cls-68,.cls-69,.cls-70,.cls-71,.cls-72,.cls-73,.cls-74,.cls-75,.cls-76,.cls-77,.cls-78,.cls-79,.cls-80,.cls-81,.cls-82,.cls-83,.cls-84,.cls-85,.cls-86,.cls-87,.cls-88,.cls-89,.cls-94,.cls-95,.cls-96,.cls-97{font-size:12.71px;}.cls-68,.cls-99{letter-spacing:0em;}.cls-69{letter-spacing:-0.05em;}.cls-71{letter-spacing:-0.02em;}.cls-102,.cls-72{letter-spacing:-0.01em;}.cls-73,.cls-93{letter-spacing:0em;}.cls-74,.cls-98{letter-spacing:-0.01em;}.cls-75,.cls-91{letter-spacing:0em;}.cls-76{letter-spacing:0em;}.cls-77{letter-spacing:-0.01em;}.cls-105,.cls-78{letter-spacing:-0.02em;}.cls-104,.cls-79{letter-spacing:-0.02em;}.cls-80{letter-spacing:0em;}.cls-81{letter-spacing:-0.01em;}.cls-82,.cls-92{letter-spacing:-0.01em;}.cls-83{letter-spacing:0.02em;}.cls-84,.cls-90{letter-spacing:0.01em;}.cls-85{letter-spacing:-0.01em;}.cls-86{letter-spacing:-0.02em;}.cls-100,.cls-87{letter-spacing:-0.01em;}.cls-88{letter-spacing:0.01em;}.cls-94{letter-spacing:-0.01em;}.cls-95{letter-spacing:-0.01em;}.cls-103,.cls-96{letter-spacing:0.01em;}.cls-97{letter-spacing:0.01em;}.cls-101{letter-spacing:-0.01em;}.cls-106{letter-spacing:-0.01em;}.cls-107{letter-spacing:-0.03em;}.cls-108{clip-path:url(#clip-path);}.cls-109,.cls-110{stroke:#000;stroke-width:0.5px;}.cls-109{fill:url(#Gradiente_sem_nome_2);}.cls-110{fill:#006837;}.cls-111{fill:url(#Gradiente_sem_nome_62);}.cls-112{fill:url(#Gradiente_sem_nome_53);}.cls-113{fill:url(#Gradiente_sem_nome_66);}.cls-114{fill:url(#Gradiente_sem_nome_55);}.cls-115{mask:url(#mask);}.cls-116,.cls-118,.cls-120,.cls-122,.cls-124,.cls-126{opacity:0.65;}.cls-116{fill:url(#linear-gradient-8);}.cls-117{mask:url(#mask-2);}.cls-118{fill:url(#linear-gradient-9);}.cls-119{mask:url(#mask-3);}.cls-120{fill:url(#linear-gradient-10);}.cls-121{mask:url(#mask-4);}.cls-122{fill:url(#linear-gradient-11);}.cls-123{mask:url(#mask-5);}.cls-124{fill:url(#linear-gradient-12);}.cls-125{mask:url(#mask-6);}.cls-126{fill:url(#linear-gradient-13);}.cls-127{stroke-dasharray:4.07 4.07;}.cls-128{font-size:10.21px;}.cls-129{letter-spacing:-0.01em;}.cls-130{letter-spacing:-0.01em;}.cls-131{letter-spacing:0em;}.cls-132{letter-spacing:-0.02em;}.cls-133{opacity:0.5;}.cls-134{letter-spacing:0em;}.cls-135{letter-spacing:-0.01em;}.cls-136{stroke-dasharray:4.1 4.1;}.cls-137{letter-spacing:-0.01em;}.cls-138{letter-spacing:0em;}.cls-139{stroke-dasharray:4.01 4.01;}.cls-140{letter-spacing:0em;}</style><linearGradient id="linear-gradient" x1="-80.44" y1="629.55" x2="-43.02" y2="634.69" gradientTransform="translate(160.38 944.18) rotate(180)" gradientUnits="userSpaceOnUse"><stop offset="0.04" stop-color="#fff"/><stop offset="0.12" stop-color="#ddd"/><stop offset="0.28" stop-color="#9b9b9b"/><stop offset="0.43" stop-color="#646464"/><stop offset="0.57" stop-color="#383838"/><stop offset="0.69" stop-color="#1a1a1a"/><stop offset="0.8" stop-color="#070707"/><stop offset="0.87"/></linearGradient><linearGradient id="linear-gradient-2" x1="502.13" y1="8297.85" x2="539.55" y2="8302.99" gradientTransform="translate(-282.41 -8093)" xlink:href="#linear-gradient"/><linearGradient id="linear-gradient-3" x1="-1445.87" y1="7977.65" x2="-1408.45" y2="7982.79" gradientTransform="matrix(0.81, -0.59, 0.59, 0.81, -3367.51, -7064.3)" xlink:href="#linear-gradient"/><linearGradient id="linear-gradient-4" x1="-2982.21" y1="2567.69" x2="-2944.78" y2="2572.83" gradientTransform="matrix(-0.59, -0.81, 0.81, -0.59, -3639.43, -598.08)" xlink:href="#linear-gradient"/><linearGradient id="linear-gradient-5" x1="978.69" y1="763.03" x2="1016.1" y2="768.17" gradientTransform="translate(1424.26 732.64) rotate(162)" xlink:href="#linear-gradient"/><linearGradient id="linear-gradient-6" x1="-3129.64" y1="6123.19" x2="-3092.22" y2="6128.34" gradientTransform="matrix(0.3, -0.95, 0.95, 0.3, -4705.89, -4592.09)" xlink:href="#linear-gradient"/><linearGradient id="linear-gradient-7" x1="192.45" y1="220.01" x2="267.2" y2="294.76" gradientTransform="translate(249.27 -87.11) rotate(45)" gradientUnits="userSpaceOnUse"><stop offset="0" stop-color="#fff"/><stop offset="0.71" stop-color="#e6e6e6"/><stop offset="0.78" stop-color="#e1e1e1"/><stop offset="0.88" stop-color="#d2d2d2"/><stop offset="0.98" stop-color="#bababa"/><stop offset="1" stop-color="#b3b3b3"/></linearGradient><clipPath id="clip-path" transform="translate(216.93 186.73)"><path class="cls-7" d="M230.43,128a132,132,0,1,0,132,132A132,132,0,0,0,230.43,128Zm0,182.09A50.09,50.09,0,1,1,280.52,260,50.1,50.1,0,0,1,230.43,310.06Z"/></clipPath><linearGradient id="Gradiente_sem_nome_2" x1="-39.76" y1="36.63" x2="222.52" y2="36.63" gradientUnits="userSpaceOnUse"><stop offset="0" stop-color="#3b003f"/><stop offset="0.21" stop-color="#510052"/><stop offset="0.51" stop-color="#6a0067"/><stop offset="0.78" stop-color="#7a0074"/><stop offset="1" stop-color="#7f0078"/></linearGradient><linearGradient id="Gradiente_sem_nome_62" x1="-216.93" y1="321.93" x2="230.65" y2="321.93" gradientUnits="userSpaceOnUse"><stop offset="0" stop-color="#6c9"/><stop offset="0.09" stop-color="#58c79a"/><stop offset="0.36" stop-color="#32ba9b"/><stop offset="0.61" stop-color="#16b19c"/><stop offset="0.83" stop-color="#06ab9d"/><stop offset="1" stop-color="#00a99d"/></linearGradient><linearGradient id="Gradiente_sem_nome_53" x1="-130.35" y1="482.85" x2="230.65" y2="482.85" gradientUnits="userSpaceOnUse"><stop offset="0" stop-color="#064c64"/><stop offset="0.37" stop-color="#145771"/><stop offset="1" stop-color="#356f8e"/></linearGradient><linearGradient id="Gradiente_sem_nome_66" x1="230.65" y1="482.85" x2="368.54" y2="482.85" gradientUnits="userSpaceOnUse"><stop offset="0" stop-color="#ff5b42"/><stop offset="1" stop-color="#da3a40"/></linearGradient><linearGradient id="Gradiente_sem_nome_55" x1="230.65" y1="248.82" x2="676.87" y2="248.82" gradientUnits="userSpaceOnUse"><stop offset="0" stop-color="#4358a2"/><stop offset="0.31" stop-color="#434db0"/><stop offset="0.91" stop-color="#432fd6"/><stop offset="1" stop-color="#432adc"/></linearGradient><mask id="mask" x="409.05" y="419.87" width="38.24" height="158.58" maskUnits="userSpaceOnUse"><g transform="translate(216.93 186.73)"><path class="cls-1" d="M230.36,391.72V233.14L192.12,387A159,159,0,0,0,230.36,391.72Z"/></g></mask><linearGradient id="linear-gradient-8" x1="-78.12" y1="616.41" x2="-40.41" y2="621.27" gradientTransform="translate(160.38 944.18) rotate(180)" gradientUnits="userSpaceOnUse"><stop offset="0"/><stop offset="1" stop-color="#fff"/></linearGradient><mask id="mask-2" x="447.27" y="314.76" width="38.24" height="158.58" maskUnits="userSpaceOnUse"><g transform="translate(216.93 186.73)"><path class="cls-2" d="M230.34,128V286.61l38.23-153.87A158.47,158.47,0,0,0,230.34,128Z"/></g></mask><linearGradient id="linear-gradient-9" x1="504.45" y1="8284.71" x2="542.16" y2="8289.56" gradientTransform="translate(-282.41 -8093)" xlink:href="#linear-gradient-8"/><mask id="mask-3" x="369.96" y="320.89" width="93.89" height="146.64" maskUnits="userSpaceOnUse"><g transform="translate(216.93 186.73)"><path class="cls-3" d="M153,153l0,0,27.63,37.61,66.23,90.17L186.64,134.15A159.62,159.62,0,0,0,153,153Z"/></g></mask><linearGradient id="linear-gradient-10" x1="-1443.55" y1="7964.51" x2="-1405.84" y2="7969.37" gradientTransform="matrix(0.81, -0.59, 0.59, 0.81, -3367.51, -7064.3)" xlink:href="#linear-gradient-8"/><mask id="mask-4" x="321.72" y="431.11" width="146.89" height="93.37" maskUnits="userSpaceOnUse"><g transform="translate(216.93 186.73)"><path class="cls-4" d="M123.5,337.74l0,0,37.73-27.47,90.43-65.88L104.79,304.06A158.58,158.58,0,0,0,123.5,337.74Z"/></g></mask><linearGradient id="linear-gradient-11" x1="-2979.89" y1="2554.55" x2="-2942.18" y2="2559.4" gradientTransform="matrix(-0.59, -0.81, 0.81, -0.59, -3639.43, -598.08)" xlink:href="#linear-gradient-8"/><mask id="mask-5" x="439.38" y="422.37" width="49" height="157.08" maskUnits="userSpaceOnUse"><g transform="translate(216.93 186.73)"><path class="cls-5" d="M271.45,385.43v0L257,341.32,222.45,235.64l11.18,157.08A159.85,159.85,0,0,0,271.45,385.43Z"/></g></mask><linearGradient id="linear-gradient-12" x1="980.99" y1="749.97" x2="1018.69" y2="754.83" gradientTransform="translate(1424.26 732.64) rotate(162)" xlink:href="#linear-gradient-8"/><mask id="mask-6" x="321.4" y="370.91" width="151.06" height="83.25" maskUnits="userSpaceOnUse"><g transform="translate(216.93 186.73)"><path class="cls-6" d="M104.47,219.16h0L149,233.37l106.57,34.05L120.6,184.17A158.56,158.56,0,0,0,104.47,219.16Z"/></g></mask><linearGradient id="linear-gradient-13" x1="-3127.32" y1="6110.05" x2="-3089.61" y2="6114.91" gradientTransform="matrix(0.3, -0.95, 0.95, 0.3, -4705.89, -4592.09)" xlink:href="#linear-gradient-8"/></defs><g class="cls-8"><g id="Camada_2" data-name="Camada 2"><g id="Camada_1-2" data-name="Camada 1"><g class="cls-9"><circle class="cls-10" cx="235.3" cy="262.86" r="52.95" transform="translate(141.83 617.26) rotate(-76.54)"/><circle class="cls-11" cx="235.18" cy="262.74" r="52.95" transform="translate(140.6 614.71) rotate(-76.11)"/><circle class="cls-12" cx="235.06" cy="262.62" r="52.95" transform="translate(139.36 612.1) rotate(-75.67)"/><circle class="cls-13" cx="234.94" cy="262.5" r="52.95" transform="matrix(0.26, -0.97, 0.97, 0.26, 138.11, 609.42)"/><circle class="cls-14" cx="234.83" cy="262.38" r="52.95" transform="translate(136.85 606.67) rotate(-74.75)"/><circle class="cls-15" cx="234.71" cy="262.27" r="52.95" transform="translate(135.58 603.86) rotate(-74.28)"/><circle class="cls-16" cx="234.59" cy="262.15" r="52.95" transform="translate(134.31 600.97) rotate(-73.79)"/><circle class="cls-17" cx="234.47" cy="262.03" r="52.95" transform="translate(133.03 598.02) rotate(-73.3)"/><circle class="cls-18" cx="234.35" cy="261.91" r="52.95" transform="translate(131.75 595) rotate(-72.79)"/><circle class="cls-19" cx="234.23" cy="261.79" r="52.95" transform="translate(130.47 591.9) rotate(-72.27)"/><circle class="cls-20" cx="234.11" cy="261.67" r="52.95" transform="translate(129.19 588.73) rotate(-71.74)"/><circle class="cls-21" cx="233.99" cy="261.55" r="52.95" transform="translate(127.91 585.49) rotate(-71.2)"/><circle class="cls-22" cx="233.87" cy="261.43" r="52.95" transform="translate(126.64 582.18) rotate(-70.65)"/><circle class="cls-23" cx="233.76" cy="261.31" r="52.95" transform="translate(125.37 578.8) rotate(-70.08)"/><circle class="cls-24" cx="233.64" cy="261.2" r="52.95" transform="translate(124.11 575.34) rotate(-69.51)"/><circle class="cls-25" cx="233.52" cy="261.08" r="52.95" transform="translate(122.86 571.82) rotate(-68.92)"/><circle class="cls-26" cx="233.4" cy="260.96" r="52.95" transform="translate(121.62 568.22) rotate(-68.33)"/><circle class="cls-27" cx="233.28" cy="260.84" r="52.95" transform="translate(120.4 564.55) rotate(-67.72)"/><circle class="cls-28" cx="233.16" cy="260.72" r="52.95" transform="translate(119.2 560.82) rotate(-67.11)"/><circle class="cls-29" cx="233.04" cy="260.6" r="52.95" transform="translate(118.02 557.02) rotate(-66.48)"/><circle class="cls-30" cx="232.92" cy="260.48" r="52.95" transform="translate(116.86 553.15) rotate(-65.84)"/><circle class="cls-31" cx="232.8" cy="260.36" r="52.95" transform="translate(115.73 549.23) rotate(-65.2)"/><circle class="cls-32" cx="232.68" cy="260.24" r="52.95" transform="translate(114.63 545.24) rotate(-64.55)"/><circle class="cls-33" cx="232.57" cy="260.12" r="52.95" transform="translate(113.56 541.2) rotate(-63.89)"/><circle class="cls-34" cx="232.45" cy="260.01" r="52.95" transform="translate(112.52 537.11) rotate(-63.22)"/><circle class="cls-35" cx="232.33" cy="259.89" r="52.95" transform="translate(111.53 532.96) rotate(-62.55)"/><circle class="cls-36" cx="232.21" cy="259.77" r="52.95" transform="translate(110.57 528.78) rotate(-61.86)"/><circle class="cls-37" cx="232.09" cy="259.65" r="52.95" transform="translate(109.65 524.55) rotate(-61.18)"/><circle class="cls-38" cx="231.97" cy="259.53" r="52.95" transform="translate(108.77 520.29) rotate(-60.49)"/><circle class="cls-39" cx="231.85" cy="259.41" r="52.95" transform="translate(107.94 516) rotate(-59.79)"/><circle class="cls-40" cx="231.73" cy="259.29" r="52.95" transform="translate(107.16 511.69) rotate(-59.1)"/><circle class="cls-41" cx="231.61" cy="259.17" r="52.95" transform="translate(106.43 507.35) rotate(-58.4)"/><circle class="cls-42" cx="231.5" cy="259.05" r="52.95" transform="translate(105.75 503) rotate(-57.69)"/><circle class="cls-43" cx="231.38" cy="258.94" r="52.95" transform="translate(105.12 498.64) rotate(-56.99)"/><circle class="cls-44" cx="231.26" cy="258.82" r="52.95" transform="translate(104.54 494.28) rotate(-56.29)"/><circle class="cls-45" cx="231.14" cy="258.7" r="52.95" transform="matrix(0.57, -0.83, 0.83, 0.57, 104.02, 489.93)"/><circle class="cls-46" cx="231.02" cy="258.58" r="52.95" transform="translate(103.55 485.58) rotate(-54.89)"/><circle class="cls-47" cx="230.9" cy="258.46" r="52.95" transform="translate(103.13 481.24) rotate(-54.19)"/><circle class="cls-48" cx="230.78" cy="258.34" r="52.95" transform="translate(102.77 476.93) rotate(-53.5)"/><circle class="cls-49" cx="230.66" cy="258.22" r="52.95" transform="translate(102.46 472.64) rotate(-52.81)"/><circle class="cls-50" cx="230.54" cy="258.1" r="52.95" transform="translate(102.2 468.38) rotate(-52.13)"/><circle class="cls-51" cx="230.43" cy="257.98" r="52.95" transform="translate(101.99 464.16) rotate(-51.45)"/><circle class="cls-52" cx="230.31" cy="257.87" r="52.95" transform="translate(102.05 425.11) rotate(-45)"/><circle class="cls-53" cx="230.19" cy="257.75" r="52.95" transform="translate(102.09 424.99) rotate(-45)"/><circle class="cls-54" cx="230.07" cy="257.63" r="52.95" transform="translate(102.14 424.88) rotate(-45)"/><circle class="cls-55" cx="229.95" cy="257.51" r="52.95" transform="translate(102.19 424.76) rotate(-45)"/><circle class="cls-56" cx="229.83" cy="257.39" r="52.95" transform="translate(102.24 424.64) rotate(-45)"/></g><circle class="cls-57" cx="229.79" cy="257.35" r="52.91" transform="translate(102.26 424.59) rotate(-45)"/><circle class="cls-58" cx="229.79" cy="257.35" r="41.1" transform="translate(164.63 642.72) rotate(-83.39)"/><text class="cls-59" transform="translate(350.58 204.57)"><tspan class="cls-60">T</tspan><tspan class="cls-61" x="13.52" y="0">OKEN </tspan><tspan class="cls-62" x="84.66" y="0">P</tspan><tspan class="cls-63" x="99.31" y="0">A</tspan><tspan class="cls-64" x="116.23" y="0">R</tspan><tspan x="131.65" y="0">TITION</tspan></text><rect class="cls-58" x="726.92" y="242.01" width="490.41" height="459.21" rx="41.17"/><line class="cls-65" x1="766.63" y1="276.7" x2="766.63" y2="278.7"/><line class="cls-66" x1="766.63" y1="282.73" x2="766.63" y2="651.46"/><line class="cls-65" x1="766.63" y1="653.48" x2="766.63" y2="655.48"/><text class="cls-67" transform="translate(803.7 310.42)">.<tspan class="cls-68" x="9.96" y="0"> </tspan><tspan class="cls-69" x="13.55" y="0">T</tspan><tspan class="cls-70" x="20.7" y="0">o</tspan><tspan class="cls-71" x="29.03" y="0">k</tspan><tspan class="cls-70" x="37.12" y="0">en </tspan><tspan class="cls-72" x="57.51" y="0">P</tspan><tspan class="cls-73" x="66.68" y="0">r</tspan><tspan class="cls-70" x="72.11" y="0">i</tspan><tspan class="cls-74" x="75.93" y="0">c</tspan><tspan class="cls-75" x="83.35" y="0">e</tspan><tspan x="0" y="40.52">.</tspan><tspan class="cls-68" x="9.96" y="40.52"> </tspan><tspan class="cls-69" x="13.55" y="40.52">T</tspan><tspan class="cls-70" x="20.7" y="40.52">otal suppl</tspan><tspan class="cls-76" x="86.64" y="40.52">y</tspan><tspan class="cls-70" x="94.29" y="40.52">: 1 Billion</tspan><tspan x="0" y="81.04">.</tspan><tspan class="cls-68" x="9.96" y="81.04"> </tspan><tspan class="cls-77" x="13.55" y="81.04">P</tspan><tspan class="cls-73" x="22.72" y="81.04">r</tspan><tspan class="cls-70" x="28.15" y="81.04">i</tspan><tspan class="cls-78" x="31.97" y="81.04">v</tspan><tspan class="cls-70" x="39.34" y="81.04">a</tspan><tspan class="cls-79" x="47.18" y="81.04">t</tspan><tspan class="cls-70" x="52.49" y="81.04">e Sale </tspan><tspan class="cls-72" x="95.49" y="81.04">P</tspan><tspan class="cls-80" x="104.66" y="81.04">r</tspan><tspan class="cls-70" x="110.08" y="81.04">i</tspan><tspan class="cls-74" x="113.91" y="81.04">c</tspan><tspan class="cls-70" x="121.33" y="81.04">e: $</tspan><tspan class="cls-81" x="144.37" y="81.04">0.</tspan><tspan class="cls-68" x="156" y="81.04">05</tspan><tspan x="0" y="121.56">.</tspan><tspan class="cls-68" x="9.96" y="121.56" xml:space="preserve"> I</tspan><tspan class="cls-82" x="17.72" y="121.56">C</tspan><tspan class="cls-70" x="26.84" y="121.56">O sta</tspan><tspan class="cls-83" x="61.27" y="121.56">r</tspan><tspan class="cls-70" x="66.94" y="121.56">ti</tspan><tspan class="cls-84" x="76.29" y="121.56">n</tspan><tspan class="cls-70" x="85.14" y="121.56">g p</tspan><tspan class="cls-80" x="106.4" y="121.56">r</tspan><tspan class="cls-70" x="111.82" y="121.56">i</tspan><tspan class="cls-85" x="115.65" y="121.56">c</tspan><tspan class="cls-75" x="123.07" y="121.56">e: $</tspan><tspan class="cls-81" x="146.11" y="121.56">0.</tspan><tspan class="cls-73" x="157.74" y="121.56">0</tspan><tspan class="cls-79" x="166.32" y="121.56">7</tspan><tspan class="cls-70" x="173.98" y="121.56">5</tspan><tspan x="0" y="162.08">.</tspan><tspan class="cls-68" x="9.96" y="162.08" xml:space="preserve"> I</tspan><tspan class="cls-82" x="17.72" y="162.08">C</tspan><tspan class="cls-70" x="26.84" y="162.08">O final p</tspan><tspan class="cls-73" x="83.72" y="162.08">r</tspan><tspan class="cls-70" x="89.15" y="162.08">i</tspan><tspan class="cls-74" x="92.97" y="162.08">c</tspan><tspan class="cls-70" x="100.39" y="162.08">e: $</tspan><tspan class="cls-81" x="123.44" y="162.08">0</tspan><tspan class="cls-86" x="131.9" y="162.08">.</tspan><tspan class="cls-70" x="135.02" y="162.08">1</tspan><tspan x="0" y="202.59">.</tspan><tspan class="cls-68" x="9.96" y="202.59" xml:space="preserve"> All t</tspan><tspan class="cls-84" x="40.05" y="202.59">h</tspan><tspan class="cls-70" x="48.91" y="202.59">e </tspan><tspan class="cls-74" x="60.52" y="202.59">c</tspan><tspan class="cls-68" x="67.94" y="202.59">oins that a</tspan><tspan class="cls-87" x="138.31" y="202.59">r</tspan><tspan class="cls-70" x="143.68" y="202.59">e</tspan><tspan class="cls-73" x="151.69" y="202.59">n</tspan><tspan class="cls-88" x="160.42" y="202.59">’</tspan><tspan class="cls-75" x="163.83" y="202.59">t sold on</tspan><tspan class="cls-89"><tspan x="0" y="222.85">t</tspan><tspan class="cls-90" x="5.53" y="222.85">h</tspan><tspan class="cls-91" x="14.38" y="222.85">e I</tspan><tspan class="cls-92" x="30.16" y="222.85">C</tspan><tspan class="cls-91" x="39.28" y="222.85">O will be bu</tspan><tspan class="cls-93" x="118.45" y="222.85">r</tspan><tspan class="cls-90" x="123.87" y="222.85">n</tspan><tspan x="132.73" y="222.85">ed.</tspan></tspan><tspan x="0" y="263.37">.</tspan><tspan class="cls-68" x="9.96" y="263.37"> </tspan><tspan class="cls-69" x="13.55" y="263.37">W</tspan><tspan class="cls-70" x="27.63" y="263.37">ebet </tspan><tspan class="cls-94" x="61.55" y="263.37">F</tspan><tspan class="cls-70" x="69.49" y="263.37">u</tspan><tspan class="cls-84" x="78.22" y="263.37">n</tspan><tspan class="cls-70" x="87.08" y="263.37">ds a</tspan><tspan class="cls-95" x="114.05" y="263.37">r</tspan><tspan class="cls-70" x="119.41" y="263.37">e ti</tspan><tspan class="cls-96" x="140.37" y="263.37">m</tspan><tspan class="cls-97" x="153.78" y="263.37">e</tspan><tspan class="cls-70" x="161.92" y="263.37">-lo</tspan><tspan class="cls-73" x="178.97" y="263.37">c</tspan><tspan class="cls-71" x="186.43" y="263.37">k</tspan><tspan class="cls-75" x="194.52" y="263.37">ed a</tspan><tspan class="cls-84" x="222.76" y="263.37">n</tspan><tspan class="cls-70" x="231.62" y="263.37">d will be used</tspan><tspan class="cls-89"><tspan class="cls-98" x="0" y="283.63">f</tspan><tspan class="cls-99" x="4.83" y="283.63">or futu</tspan><tspan class="cls-100" x="50.12" y="283.63">r</tspan><tspan x="55.48" y="283.63">e </tspan><tspan class="cls-98" x="67.1" y="283.63">c</tspan><tspan class="cls-99" x="74.52" y="283.63">om</tspan><tspan class="cls-101" x="96.17" y="283.63">p</tspan><tspan x="104.82" y="283.63">a</tspan><tspan class="cls-102" x="112.66" y="283.63">n</tspan><tspan x="121.31" y="283.63">y d</tspan><tspan class="cls-102" x="141.29" y="283.63">e</tspan><tspan class="cls-92" x="149.18" y="283.63">v</tspan><tspan x="156.59" y="283.63">elop</tspan><tspan class="cls-103" x="185.52" y="283.63">m</tspan><tspan x="198.92" y="283.63">ent si</tspan><tspan class="cls-90" x="235.41" y="283.63">n</tspan><tspan class="cls-98" x="244.27" y="283.63">c</tspan><tspan x="251.69" y="283.63">e t</tspan><tspan class="cls-90" x="268.83" y="283.63">h</tspan><tspan x="277.68" y="283.63">e aim</tspan><tspan x="0" y="303.89">is </tspan><tspan class="cls-104" x="14.17" y="303.89">t</tspan><tspan x="19.48" y="303.89">o h</tspan><tspan class="cls-102" x="40.17" y="303.89">a</tspan><tspan class="cls-92" x="47.88" y="303.89">v</tspan><tspan x="55.29" y="303.89">e </tspan><tspan class="cls-90" x="66.9" y="303.89">n</tspan><tspan class="cls-99" x="75.76" y="303.89">o </tspan><tspan class="cls-98" x="87.68" y="303.89">f</tspan><tspan x="92.5" y="303.89">ees, it</tspan><tspan class="cls-105" x="131.56" y="303.89">’</tspan><tspan x="134.66" y="303.89">s t</tspan><tspan class="cls-90" x="150.53" y="303.89">h</tspan><tspan x="159.38" y="303.89">e only </tspan><tspan class="cls-90" x="203.11" y="303.89">m</tspan><tspan class="cls-106" x="216.52" y="303.89">e</tspan><tspan x="224.34" y="303.89">an of sustain</tspan><tspan class="cls-98" x="0" y="324.15">f</tspan><tspan class="cls-99" x="4.83" y="324.15">or t</tspan><tspan class="cls-90" x="27.75" y="324.15">h</tspan><tspan x="36.6" y="324.15">e </tspan><tspan class="cls-98" x="48.22" y="324.15">c</tspan><tspan class="cls-99" x="55.64" y="324.15">om</tspan><tspan class="cls-101" x="77.29" y="324.15">p</tspan><tspan x="85.94" y="324.15">a</tspan><tspan class="cls-102" x="93.78" y="324.15">n</tspan><tspan class="cls-107" x="102.43" y="324.15">y</tspan><tspan class="cls-99" x="109.62" y="324.15">.</tspan></tspan></text><g class="cls-108"><path class="cls-109" d="M230.65,259.74l-262.28-361c79.75-57.95,163.7-85.22,262.28-85.22Z" transform="translate(216.93 186.73)"/><path class="cls-110" d="M230.65,259.74-193.73,121.85c30.46-93.75,82.35-165.17,162.1-223.11Z" transform="translate(216.93 186.73)"/><path class="cls-111" d="M230.65,259.74-130.35,522c-86.91-119.63-109.07-259.55-63.38-400.17Z" transform="translate(216.93 186.73)"/><path class="cls-112" d="M230.65,259.74V706C82.79,706-43.44,641.64-130.35,522Z" transform="translate(216.93 186.73)"/><path class="cls-113" d="M230.65,259.74,368.54,684.12C321.66,699.35,279.94,706,230.65,706Z" transform="translate(216.93 186.73)"/><path class="cls-114" d="M230.65,259.74V-186.48c246.44,0,446.22,199.78,446.22,446.22,0,197.15-120.83,363.46-308.33,424.38Z" transform="translate(216.93 186.73)"/></g><g class="cls-115"><path class="cls-116" d="M230.36,391.72V345l-.26-84.68L192.12,387A159,159,0,0,0,230.36,391.72Z" transform="translate(216.93 186.73)"/></g><g class="cls-117"><path class="cls-118" d="M230.34,128v46.71l.26,84.67,38-126.66A158.47,158.47,0,0,0,230.34,128Z" transform="translate(216.93 186.73)"/></g><g class="cls-119"><path class="cls-120" d="M153,153l0,0,27.63,37.61L231,258.72,186.64,134.15A159.62,159.62,0,0,0,153,153Z" transform="translate(216.93 186.73)"/></g><g class="cls-121"><path class="cls-122" d="M123.5,337.74l0,0,37.73-27.47,68.29-50.06L104.79,304.06A158.58,158.58,0,0,0,123.5,337.74Z" transform="translate(216.93 186.73)"/></g><g class="cls-123"><path class="cls-124" d="M271.45,385.43v0L257,341.32l-26.41-79.9,3,131.3A159.85,159.85,0,0,0,271.45,385.43Z" transform="translate(216.93 186.73)"/></g><g class="cls-125"><path class="cls-126" d="M104.47,219.16h0L149,233.37l80.73,25.53L120.6,184.17A158.56,158.56,0,0,0,104.47,219.16Z" transform="translate(216.93 186.73)"/></g><circle class="cls-58" cx="230.43" cy="259.97" r="50" transform="matrix(0.83, -0.56, 0.56, 0.83, 111.21, 359.05)"/><line class="cls-65" x1="699.29" y1="441.5" x2="697.29" y2="441.5"/><line class="cls-127" x1="693.22" y1="441.5" x2="540.5" y2="441.5"/><line class="cls-65" x1="538.46" y1="441.5" x2="536.46" y2="441.5"/><text class="cls-128" transform="translate(593.69 435.49)"><tspan class="cls-129">C</tspan><tspan x="7.34" y="0">ASHB</tspan><tspan class="cls-130" x="37.74" y="0">A</tspan><tspan class="cls-131" x="45.46" y="0">CK </tspan><tspan class="cls-132" x="63.4" y="0">SY</tspan><tspan class="cls-130" x="76.51" y="0">S</tspan><tspan x="82.92" y="0">TEM</tspan></text><g class="cls-133"><text class="cls-128" transform="translate(668.93 454.98)"><tspan class="cls-134">4</tspan><tspan x="7.02" y="0">5</tspan><tspan class="cls-135" x="13.09" y="0">.</tspan><tspan x="15.63" y="0">0%</tspan></text></g><line class="cls-65" x1="466.88" y1="660.33" x2="466.88" y2="658.33"/><line class="cls-136" x1="466.88" y1="654.23" x2="466.88" y2="557.92"/><line class="cls-65" x1="466.88" y1="555.87" x2="466.88" y2="553.87"/><text class="cls-128" transform="translate(472.25 660.33)">REFERRAL <tspan class="cls-132" x="59.63" y="0">SY</tspan><tspan class="cls-130" x="72.74" y="0">S</tspan><tspan x="79.15" y="0">TEM</tspan></text><g class="cls-133"><text class="cls-128" transform="translate(434.57 649.27)">5<tspan class="cls-137" x="6.08" y="0">.</tspan><tspan class="cls-138" x="8.62" y="0">0%</tspan></text></g><line class="cls-65" x1="353.33" y1="469.88" x2="351.33" y2="469.88"/><line class="cls-139" x1="347.32" y1="469.88" x2="220.93" y2="469.88"/><line class="cls-65" x1="218.93" y1="469.88" x2="216.93" y2="469.88"/><text class="cls-128" transform="translate(217.11 463.72)"><tspan class="cls-132">W</tspan><tspan x="11.72" y="0">EBET FUND</tspan></text><g class="cls-133"><text class="cls-128" transform="translate(219.3 483.2)">15<tspan class="cls-137" x="10.08" y="0">.</tspan><tspan x="12.62" y="0">0%</tspan></text></g><line class="cls-65" x1="397.36" y1="550.4" x2="395.36" y2="550.4"/><line class="cls-139" x1="391.35" y1="550.4" x2="264.97" y2="550.4"/><line class="cls-65" x1="262.96" y1="550.4" x2="260.96" y2="550.4"/><text class="cls-128" transform="translate(260.34 544.23)">I<tspan class="cls-132" x="3.35" y="0">C</tspan><tspan x="10.68" y="0">O</tspan></text><g class="cls-133"><text class="cls-128" transform="translate(263.33 563.72)">15<tspan class="cls-137" x="10.08" y="0">.</tspan><tspan x="12.62" y="0">0%</tspan></text></g><line class="cls-65" x1="367.36" y1="385.53" x2="365.36" y2="385.53"/><line class="cls-139" x1="361.35" y1="385.53" x2="234.97" y2="385.53"/><line class="cls-65" x1="232.96" y1="385.53" x2="230.96" y2="385.53"/><text class="cls-128" transform="translate(229.71 379.36)">LIQUIDI<tspan class="cls-135" x="41.32" y="0">T</tspan><tspan class="cls-140" x="47.5" y="0">Y FUND</tspan></text><g class="cls-133"><text class="cls-128" transform="translate(232.97 398.85)">1<tspan class="cls-137" x="4" y="0">0.</tspan><tspan class="cls-138" x="13.35" y="0">0%</tspan></text></g><line class="cls-65" x1="422.8" y1="355.75" x2="422.8" y2="353.75"/><line class="cls-136" x1="422.8" y1="349.65" x2="422.8" y2="253.35"/><line class="cls-65" x1="422.8" y1="251.3" x2="422.8" y2="249.3"/><text class="cls-128" transform="translate(354.54 257.01)">TEAM FUND</text><g class="cls-133"><text class="cls-128" transform="translate(430.16 267.28)">1<tspan class="cls-137" x="4" y="0">0.</tspan><tspan x="13.35" y="0">0%</tspan></text></g></g></g></g></svg>