<svg xmlns="http://www.w3.org/2000/svg" xmlns:xlink="http://www.w3.org/1999/xlink" viewBox="0 0 873.93 482.43"><defs><style>.cls-1{fill:#18132d;}.cls-2{fill:#6c9;}.cls-3{fill:#fff;}.cls-4{fill:url(#Gradiente_sem_nome_3);}</style><linearGradient id="Gradiente_sem_nome_3" x1="328.28" y1="367.69" x2="873.93" y2="367.69" gradientUnits="userSpaceOnUse"><stop offset="0" stop-color="#67bc9b"/><stop offset="0.2" stop-color="#66b89b"/><stop offset="0.4" stop-color="#61ac9c"/><stop offset="0.6" stop-color="#5a979e"/><stop offset="0.8" stop-color="#507ba0"/><stop offset="1" stop-color="#4358a3"/></linearGradient></defs><g id="Camada_2" data-name="Camada 2"><g id="Background"><path class="cls-1" d="M0,419.43l30.43,43.41C45.94,485,78.7,489,101.67,471.58L522.43,152.69c35-26.53,21.22-78.36-22-82.69L.19,19.92"/><rect class="cls-2" x="381.86" y="52.83" width="438.49" height="115.59" rx="57.8"/><path class="cls-3" d="M437.4,124.32v5.08H431v-4.86a27,27,0,0,1-11.77-3.2l3.48-7.88a21.93,21.93,0,0,0,10.58,2.93c3.07,0,4.16-.64,4.16-1.74,0-4-17.72-.77-17.72-12.73,0-5.17,3.76-9.52,11.27-10.57v-5h6.45v4.9a23.85,23.85,0,0,1,9.3,2.66l-3.25,7.83a19.82,19.82,0,0,0-8.93-2.38c-3.16,0-4.17.91-4.17,2,0,3.85,17.72.64,17.72,12.46C448.07,118.77,444.5,123.08,437.4,124.32Z"/><path class="cls-3" d="M503.44,91.85,493.18,123.9H481.59l-5.17-17.12L471,123.9H459.38L449.13,91.85h11.12l5.59,18.22,5.91-18.22h9.94l5.58,18.45,5.91-18.45Z"/><path class="cls-3" d="M532.47,115.75v8.15H505.82V91.85h26.05V100H516.44v3.75H530v7.79H516.44v4.21Z"/><path class="cls-3" d="M568.23,115.07c0,5.58-4.71,8.83-13.55,8.83h-18V91.85h17.12c8.84,0,13,3.53,13,8.38a7.45,7.45,0,0,1-4.44,6.91C566,108.52,568.23,111.26,568.23,115.07Zm-21-15.66v4.76h5c2.42,0,3.52-.83,3.52-2.38s-1.1-2.38-3.52-2.38Zm10.07,14.42c0-1.65-1.19-2.52-3.57-2.52h-6.5v5h6.5C556.14,116.35,557.33,115.48,557.33,113.83Z"/><path class="cls-3" d="M578.53,100.23h-9.38V91.85h29.58v8.38h-9.39V123.9H578.53Z"/><path class="cls-3" d="M622.22,100.23h-9.39V91.85h29.58v8.38H633V123.9H622.22Z"/><path class="cls-3" d="M643.47,107.88c0-9.71,7.64-16.76,18.08-16.76s18.09,7,18.09,16.76-7.65,16.76-18.09,16.76S643.47,117.58,643.47,107.88Zm25.27,0c0-5-3.2-8-7.19-8s-7.19,3-7.19,8,3.21,8,7.19,8S668.74,112.87,668.74,107.88Z"/><path class="cls-3" d="M696.63,113.28,694.2,116v7.92H683.58V91.85H694.2v11.63l10.53-11.63H716.5L703.68,106l13.46,18h-12.5Z"/><path class="cls-3" d="M745.26,115.75v8.15H718.61V91.85h26V100H729.23v3.75h13.56v7.79H729.23v4.21Z"/><path class="cls-3" d="M781,91.85V123.9h-8.88L760,109.34V123.9H749.43V91.85h8.88l12.18,14.56V91.85Z"/><path class="cls-1" d="M416.5,54.64l11.05-13c3.22,4,6.26,6,9.65,6,4.27,0,6.62-2.61,6.62-7.57V16.88H423.11V1.39h41V38.8c0,16.71-8.79,24.89-25.15,24.89C429.46,63.69,421.54,60.56,416.5,54.64Z"/><path class="cls-1" d="M471.05,31.84C471.05,13.4,485.58,0,505.42,0s34.36,13.4,34.36,31.84-14.53,31.85-34.36,31.85S471.05,50.29,471.05,31.84Zm48,0c0-9.48-6.09-15.22-13.66-15.22s-13.66,5.74-13.66,15.22,6.09,15.23,13.66,15.23S519.08,41.33,519.08,31.84Z"/><path class="cls-1" d="M547.27,1.39H567.8V62.3H547.27Z"/><path class="cls-1" d="M637.76,1.39V62.3H620.88L597.73,34.63V62.3h-20V1.39H594.6l23.14,27.67V1.39Z"/><path class="cls-1" d="M549,209l6.61-15a41.82,41.82,0,0,0,20.1,5.57c5.83,0,7.91-1.22,7.91-3.31,0-7.65-33.67-1.48-33.67-24.18,0-11.31,9.49-20.54,28.37-20.54,8.18,0,16.62,1.74,23,5.31l-6.18,14.88a37.52,37.52,0,0,0-17-4.53c-6,0-7.91,1.74-7.91,3.83,0,7.31,33.67,1.22,33.67,23.67,0,11.13-9.49,20.53-28.37,20.53C565.3,215.28,555,212.76,549,209Z"/><path class="cls-1" d="M651.44,203.27H628.3l-4.09,10.62H603.33L630,153h20.19l26.62,60.91H655.53Zm-5.65-14.79-5.92-15.31L634,188.48Z"/><path class="cls-1" d="M680.07,153H700.6v45h27.5v15.92h-48Z"/><path class="cls-1" d="M784.39,198.4v15.49H733.75V153h49.51v15.49H753.94v7.14h25.75V190.4H753.94v8Z"/><path class="cls-1" d="M440.85,260.88v-8.63h3.57v8.5c0,2.92,1.27,4.13,3.43,4.13s3.43-1.21,3.43-4.13v-8.5h3.52v8.63c0,4.53-2.6,7-7,7S440.85,265.41,440.85,260.88Z"/><path class="cls-1" d="M472.45,252.25v15.4h-2.93l-7.68-9.35v9.35h-3.52v-15.4h2.95l7.65,9.35v-9.35Z"/><path class="cls-1" d="M476.09,252.25h3.57v15.4h-3.57Z"/><path class="cls-1" d="M482.1,266.14l1.21-2.69a9,9,0,0,0,5.08,1.61c2.12,0,3-.71,3-1.65,0-2.88-8.95-.9-8.95-6.62,0-2.62,2.11-4.8,6.49-4.8a10.35,10.35,0,0,1,5.35,1.36l-1.1,2.71a8.65,8.65,0,0,0-4.27-1.21c-2.11,0-2.93.79-2.93,1.76,0,2.84,9,.88,9,6.53,0,2.58-2.14,4.78-6.54,4.78A11,11,0,0,1,482.1,266.14Z"/><path class="cls-1" d="M520.63,252.25l-5,15.4h-3.83l-3.39-10.43-3.5,10.43h-3.8L496,252.25h3.7l3.48,10.83,3.63-10.83h3.3l3.52,10.92,3.59-10.92Z"/><path class="cls-1" d="M532.24,264.35h-7.15l-1.37,3.3h-3.65l6.87-15.4h3.52l6.88,15.4H533.6Zm-1.12-2.7-2.44-5.9-2.45,5.9Z"/><path class="cls-1" d="M552.3,257.84c0,3.43-2.57,5.57-6.69,5.57h-3.1v4.24H539v-15.4h6.66C549.73,252.25,552.3,254.39,552.3,257.84Zm-3.6,0c0-1.69-1.1-2.68-3.28-2.68h-2.91v5.34h2.91C547.6,260.5,548.7,259.51,548.7,257.84Z"/><path class="cls-1" d="M571.42,264.35h-7.15l-1.36,3.3h-3.66l6.87-15.4h3.52l6.89,15.4h-3.75Zm-1.12-2.7-2.44-5.9-2.45,5.9Z"/><path class="cls-1" d="M592.26,252.25v15.4h-2.93l-7.68-9.35v9.35h-3.52v-15.4h3l7.66,9.35v-9.35Z"/><path class="cls-1" d="M595.9,252.25h7c5,0,8.5,3,8.5,7.7s-3.46,7.7-8.5,7.7h-7Zm6.83,12.48c3,0,5.06-1.83,5.06-4.78s-2-4.77-5.06-4.77h-3.26v9.55Z"/><path class="cls-1" d="M620.3,252.25h7c5,0,8.49,3,8.49,7.7s-3.45,7.7-8.49,7.7h-7Zm6.82,12.48c3.06,0,5.06-1.83,5.06-4.78s-2-4.77-5.06-4.77h-3.25v9.55Z"/><path class="cls-1" d="M650.4,264.79v2.86H638.47v-15.4h11.64v2.86H642v3.35h7.15v2.77H642v3.56Z"/><path class="cls-1" d="M662.79,267.65l-3.72-5.34-3.66,5.34h-4.09l5.7-7.83-5.41-7.57h4l3.54,5,3.48-5h3.85l-5.37,7.44,5.74,8Z"/><path class="cls-1" d="M675,252.25h3.56v12.5h7.72v2.9H675Z"/><path class="cls-1" d="M688.3,252.25h3.57v15.4H688.3Z"/><path class="cls-1" d="M694.31,266.14l1.21-2.69a9,9,0,0,0,5.08,1.61c2.11,0,3-.71,3-1.65,0-2.88-9-.9-9-6.62,0-2.62,2.11-4.8,6.49-4.8a10.34,10.34,0,0,1,5.34,1.36l-1.1,2.71a8.62,8.62,0,0,0-4.26-1.21c-2.12,0-2.93.79-2.93,1.76,0,2.84,9,.88,9,6.53,0,2.58-2.13,4.78-6.53,4.78A11,11,0,0,1,694.31,266.14Z"/><path class="cls-1" d="M712.53,255.16H707.6v-2.91H721v2.91h-4.93v12.49h-3.56Z"/><path class="cls-1" d="M722.93,252.25h3.57v15.4h-3.57Z"/><path class="cls-1" d="M744.27,252.25v15.4h-2.92l-7.68-9.35v9.35h-3.52v-15.4h2.94l7.66,9.35v-9.35Z"/><path class="cls-1" d="M758.33,259.71h3.26V266a10.63,10.63,0,0,1-6.23,2c-4.84,0-8.41-3.32-8.41-8s3.57-8,8.48-8a8.19,8.19,0,0,1,6.44,2.66l-2.29,2.11a5.2,5.2,0,0,0-4-1.74,4.93,4.93,0,1,0,0,9.86,5.58,5.58,0,0,0,2.77-.66Z"/><path class="cls-1" d="M518.83,296c0-4.64,3.56-8,8.36-8a8,8,0,0,1,6.34,2.73l-2.29,2.11a5,5,0,0,0-3.87-1.81,4.93,4.93,0,1,0,0,9.86,4.91,4.91,0,0,0,3.87-1.82l2.29,2.11a7.94,7.94,0,0,1-6.36,2.75C522.39,303.92,518.83,300.6,518.83,296Z"/><path class="cls-1" d="M534.62,296c0-4.57,3.57-8,8.43-8s8.43,3.36,8.43,8-3.59,8-8.43,8S534.62,300.53,534.62,296Zm13.25,0a4.82,4.82,0,1,0-4.82,4.93A4.7,4.7,0,0,0,547.87,296Z"/><path class="cls-1" d="M568.18,303.65l0-9.24L563.62,302H562l-4.52-7.42v9h-3.34v-15.4h3l5.76,9.57,5.68-9.57h2.93l0,15.4Z"/><path class="cls-1" d="M575.17,288.25h3.56v15.4h-3.56Z"/><path class="cls-1" d="M596.51,288.25v15.4h-2.92l-7.68-9.35v9.35h-3.52v-15.4h2.94L593,297.6v-9.35Z"/><path class="cls-1" d="M610.57,295.71h3.26V302a10.63,10.63,0,0,1-6.23,2c-4.84,0-8.41-3.32-8.41-8s3.57-8,8.47-8a8.2,8.2,0,0,1,6.45,2.66l-2.29,2.11a5.2,5.2,0,0,0-4-1.74,4.93,4.93,0,1,0,0,9.86,5.58,5.58,0,0,0,2.77-.66Z"/><path class="cls-1" d="M622.14,302.14l1.21-2.69a9,9,0,0,0,5.08,1.61c2.11,0,3-.71,3-1.65,0-2.88-8.95-.9-8.95-6.62,0-2.62,2.11-4.8,6.49-4.8a10.34,10.34,0,0,1,5.34,1.36l-1.1,2.71a8.62,8.62,0,0,0-4.26-1.21c-2.12,0-2.93.79-2.93,1.76,0,2.84,9,.88,9,6.53,0,2.58-2.14,4.78-6.54,4.78A11,11,0,0,1,622.14,302.14Z"/><path class="cls-1" d="M636.42,296c0-4.57,3.56-8,8.42-8s8.43,3.36,8.43,8-3.59,8-8.43,8S636.42,300.53,636.42,296Zm13.24,0a4.82,4.82,0,1,0-4.82,4.93A4.7,4.7,0,0,0,649.66,296Z"/><path class="cls-1" d="M655,296c0-4.57,3.57-8,8.43-8s8.43,3.36,8.43,8-3.59,8-8.43,8S655,300.53,655,296Zm13.25,0a4.82,4.82,0,1,0-4.82,4.93A4.7,4.7,0,0,0,668.23,296Z"/><path class="cls-1" d="M688.65,288.25v15.4h-2.93L678,294.3v9.35h-3.52v-15.4h3l7.66,9.35v-9.35Z"/><rect class="cls-4" x="328.28" y="334.25" width="545.65" height="66.87" rx="25.46"/><path class="cls-3" d="M383.27,373.31c0,3.73-2.76,5.86-8.23,5.86H365V357.26h9.45c4.88,0,7.7,2.06,7.7,5.63a5.11,5.11,0,0,1-3.35,5A5.22,5.22,0,0,1,383.27,373.31Zm-16-14.14v7.95h7c3.51,0,5.54-1.35,5.54-4s-2-4-5.54-4ZM381,373.12c0-2.84-2.1-4.09-5.95-4.09h-7.72v8.23H375C378.85,377.26,381,376,381,373.12Z"/><path class="cls-3" d="M388.37,369.81V357.26h2.32v12.45c0,5.2,2.44,7.58,6.7,7.58s6.72-2.38,6.72-7.58V357.26h2.26v12.55c0,6.29-3.38,9.54-9,9.54S388.37,376.1,388.37,369.81Z"/><path class="cls-3" d="M420.55,371.59v7.58h-2.29v-7.58l-8.76-14.33H412l7.51,12.3,7.51-12.3h2.32Z"/><path class="cls-3" d="M445.37,359.26h-7.7v-2h17.72v2h-7.7v19.91h-2.32Z"/><path class="cls-3" d="M477.39,357.26v21.91H475.1V369.06H461.4v10.11h-2.32V357.26h2.32V367h13.7v-9.76Z"/><path class="cls-3" d="M499.49,379.17l-5-7.05a14,14,0,0,1-1.75.1h-5.89v6.95h-2.31V357.26h8.2c5.57,0,8.95,2.81,8.95,7.51a6.79,6.79,0,0,1-5,6.88l5.35,7.52Zm-.13-14.4c0-3.51-2.31-5.51-6.69-5.51h-5.83v11h5.83C497.05,370.25,499.36,368.21,499.36,364.77Z"/><path class="cls-3" d="M505.22,368.21c0-6.38,4.88-11.14,11.52-11.14s11.48,4.73,11.48,11.14-4.91,11.14-11.48,11.14S505.22,374.6,505.22,368.21Zm20.68,0a9.2,9.2,0,1,0-9.16,9.08A8.87,8.87,0,0,0,525.9,368.21Z"/><path class="cls-3" d="M533.23,369.81V357.26h2.32v12.45c0,5.2,2.44,7.58,6.7,7.58s6.72-2.38,6.72-7.58V357.26h2.26v12.55c0,6.29-3.38,9.54-9,9.54S533.23,376.1,533.23,369.81Z"/><path class="cls-3" d="M573.64,368.21h2.22v8.36a12.11,12.11,0,0,1-8,2.78c-6.67,0-11.55-4.72-11.55-11.14s4.88-11.14,11.58-11.14a10.78,10.78,0,0,1,8.14,3.16l-1.44,1.47a9,9,0,0,0-6.61-2.56c-5.41,0-9.39,3.85-9.39,9.07a9,9,0,0,0,9.36,9.08,9.49,9.49,0,0,0,5.73-1.69Z"/><path class="cls-3" d="M600.71,357.26v21.91h-2.28V369.06H584.72v10.11H582.4V357.26h2.32V367h13.71v-9.76Z"/><path class="cls-3" d="M614.11,368.21c0-6.38,4.89-11.14,11.52-11.14s11.49,4.73,11.49,11.14-4.92,11.14-11.49,11.14S614.11,374.6,614.11,368.21Zm20.69,0a9.2,9.2,0,1,0-9.17,9.08A8.87,8.87,0,0,0,634.8,368.21Z"/><path class="cls-3" d="M642.13,369.81V357.26h2.31v12.45c0,5.2,2.44,7.58,6.7,7.58s6.73-2.38,6.73-7.58V357.26h2.25v12.55c0,6.29-3.38,9.54-9,9.54S642.13,376.1,642.13,369.81Z"/><path class="cls-3" d="M682.07,379.17l-5-7.05a14.09,14.09,0,0,1-1.75.1h-5.89v6.95h-2.31V357.26h8.2c5.57,0,9,2.81,9,7.51a6.79,6.79,0,0,1-5,6.88l5.35,7.52Zm-.13-14.4c0-3.51-2.32-5.51-6.7-5.51h-5.82v11h5.82C679.62,370.25,681.94,368.21,681.94,364.77Z"/><path class="cls-3" d="M728,357.26l-7.38,21.91h-2.44l-6.42-18.69-6.45,18.69h-2.41l-7.38-21.91h2.37l6.33,18.84,6.54-18.84h2.16l6.44,18.93,6.42-18.93Z"/><path class="cls-3" d="M747.73,377.16v2H732.24V357.26h15v2h-12.7v7.79h11.33v2H734.56v8.13Z"/><path class="cls-3" d="M771.49,373.31c0,3.73-2.75,5.86-8.23,5.86H753.18V357.26h9.45c4.89,0,7.7,2.06,7.7,5.63a5.09,5.09,0,0,1-3.35,5A5.22,5.22,0,0,1,771.49,373.31Zm-16-14.14v7.95h7c3.5,0,5.54-1.35,5.54-4s-2-4-5.54-4Zm13.67,13.95c0-2.84-2.09-4.09-5.94-4.09H755.5v8.23h7.73C767.08,377.26,769.17,376,769.17,373.12Z"/><path class="cls-3" d="M774.69,376.5l.9-1.78a10.79,10.79,0,0,0,7.23,2.66c4.1,0,5.89-1.72,5.89-3.88,0-6-13.49-2.32-13.49-10.42,0-3.22,2.5-6,8.07-6a12.34,12.34,0,0,1,6.79,1.94l-.78,1.85a11.3,11.3,0,0,0-6-1.82c-4,0-5.79,1.79-5.79,4,0,6,13.49,2.37,13.49,10.36,0,3.22-2.56,6-8.17,6C779.54,379.35,776.31,378.2,774.69,376.5Z"/><path class="cls-3" d="M796,357.26h2.32v21.91H796Z"/><path class="cls-3" d="M809.74,359.26H802v-2h17.72v2h-7.7v19.91h-2.32Z"/><path class="cls-3" d="M838.94,377.16v2H823.45V357.26h15v2h-12.7v7.79H837.1v2H825.77v8.13Z"/></g></g></svg>