<svg xmlns="http://www.w3.org/2000/svg" xmlns:xlink="http://www.w3.org/1999/xlink" viewBox="0 0 970.38 512.77"><defs><style>.cls-1{fill:url(#linear-gradient);}.cls-2{fill:url(#linear-gradient-2);}.cls-3{fill:url(#linear-gradient-3);}.cls-4{fill:url(#linear-gradient-4);}.cls-5{isolation:isolate;}.cls-6{fill:#666;}.cls-10,.cls-11,.cls-12,.cls-13,.cls-14,.cls-15,.cls-16,.cls-17,.cls-18,.cls-19,.cls-20,.cls-21,.cls-22,.cls-23,.cls-24,.cls-25,.cls-26,.cls-27,.cls-28,.cls-29,.cls-30,.cls-31,.cls-32,.cls-33,.cls-34,.cls-35,.cls-36,.cls-37,.cls-38,.cls-39,.cls-40,.cls-41,.cls-42,.cls-43,.cls-44,.cls-45,.cls-46,.cls-47,.cls-48,.cls-49,.cls-50,.cls-51,.cls-52,.cls-53,.cls-54,.cls-6,.cls-61,.cls-63,.cls-65,.cls-67,.cls-8,.cls-9,.cls-92{mix-blend-mode:multiply;}.cls-7{opacity:0.54;}.cls-100,.cls-101,.cls-102,.cls-103,.cls-104,.cls-105,.cls-106,.cls-107,.cls-108,.cls-109,.cls-110,.cls-111,.cls-112,.cls-113,.cls-114,.cls-115,.cls-116,.cls-117,.cls-122,.cls-123,.cls-124,.cls-125,.cls-73,.cls-76,.cls-8,.cls-85,.cls-86,.cls-96,.cls-97,.cls-98,.cls-99{fill:#fff;}.cls-8{opacity:0;}.cls-9{fill:#fbfbfb;opacity:0.02;}.cls-10{fill:#f7f7f7;opacity:0.04;}.cls-11{fill:#f3f3f3;opacity:0.07;}.cls-12{fill:#f0f0f0;opacity:0.09;}.cls-13{fill:#ececec;opacity:0.11;}.cls-14{fill:#e8e8e8;opacity:0.13;}.cls-15{fill:#e4e4e4;opacity:0.15;}.cls-16{fill:#e0e0e0;opacity:0.17;}.cls-17{fill:#dcdcdc;opacity:0.2;}.cls-18{fill:#d8d8d8;opacity:0.22;}.cls-19{fill:#d4d4d4;opacity:0.24;}.cls-20{fill:#d1d1d1;opacity:0.26;}.cls-21{fill:#cdcdcd;opacity:0.28;}.cls-22{fill:#c9c9c9;opacity:0.3;}.cls-23{fill:#c5c5c5;opacity:0.33;}.cls-24{fill:#c1c1c1;opacity:0.35;}.cls-25{fill:#bdbdbd;opacity:0.37;}.cls-26{fill:#b9b9b9;opacity:0.39;}.cls-27{fill:#b5b5b5;opacity:0.41;}.cls-28{fill:#b2b2b2;opacity:0.43;}.cls-29{fill:#aeaeae;opacity:0.46;}.cls-30{fill:#aaa;opacity:0.48;}.cls-31{fill:#a6a6a6;opacity:0.5;}.cls-32{fill:#a2a2a2;opacity:0.52;}.cls-33{fill:#9e9e9e;opacity:0.54;}.cls-34{fill:#9a9a9a;opacity:0.57;}.cls-35{fill:#979797;opacity:0.59;}.cls-36{fill:#939393;opacity:0.61;}.cls-37{fill:#8f8f8f;opacity:0.63;}.cls-38{fill:#8b8b8b;opacity:0.65;}.cls-39{fill:#878787;opacity:0.67;}.cls-40{fill:#838383;opacity:0.7;}.cls-41{fill:#7f7f7f;opacity:0.72;}.cls-42{fill:#7b7b7b;opacity:0.74;}.cls-43{fill:#787878;opacity:0.76;}.cls-44{fill:#747474;opacity:0.78;}.cls-45{fill:#707070;opacity:0.8;}.cls-46{fill:#6c6c6c;opacity:0.83;}.cls-47{fill:#686868;opacity:0.85;}.cls-48{fill:#646464;opacity:0.87;}.cls-49{fill:#606060;opacity:0.89;}.cls-50{fill:#5c5c5c;opacity:0.91;}.cls-51{fill:#595959;opacity:0.93;}.cls-52{fill:#555;opacity:0.96;}.cls-53{fill:#515151;opacity:0.98;}.cls-54{fill:#4d4d4d;}.cls-55{fill:url(#linear-gradient-5);}.cls-56{fill:url(#Gradiente_sem_nome_55);}.cls-57{fill:url(#Gradiente_sem_nome_62);}.cls-58{fill:url(#Gradiente_sem_nome_53);}.cls-59{fill:url(#Gradiente_sem_nome_66);}.cls-60{mask:url(#mask);}.cls-61,.cls-63,.cls-65,.cls-67{opacity:0.65;}.cls-61{fill:url(#linear-gradient-6);}.cls-62{mask:url(#mask-2);}.cls-63{fill:url(#linear-gradient-7);}.cls-64{mask:url(#mask-3);}.cls-65{fill:url(#linear-gradient-8);}.cls-66{mask:url(#mask-4);}.cls-67{fill:url(#linear-gradient-9);}.cls-68{fill:#18132d;}.cls-69,.cls-70,.cls-71,.cls-72,.cls-94{fill:none;stroke:#6c9;stroke-miterlimit:10;stroke-width:2px;}.cls-70{stroke-dasharray:4.01 4.01;}.cls-71{stroke-dasharray:4.07 4.07;}.cls-72{stroke-dasharray:4.1 4.1;}.cls-73,.cls-76{font-size:10.21px;}.cls-73,.cls-76,.cls-95{font-family:Montserrat-Bold, Montserrat;font-weight:700;}.cls-74{letter-spacing:-0.02em;}.cls-75{opacity:0.5;}.cls-76{letter-spacing:0em;}.cls-77{letter-spacing:-0.01em;}.cls-78{letter-spacing:0em;}.cls-79{letter-spacing:-0.01em;}.cls-80{letter-spacing:-0.01em;}.cls-81{letter-spacing:0em;}.cls-82{letter-spacing:-0.01em;}.cls-83{fill:url(#Gradiente_sem_nome_3);}.cls-84{fill:url(#Gradiente_sem_nome_3-2);}.cls-86{font-size:20.99px;font-family:Montserrat-Black, Montserrat;font-weight:800;}.cls-87{letter-spacing:-0.01em;}.cls-88{letter-spacing:0em;}.cls-89{letter-spacing:-0.04em;}.cls-90{letter-spacing:0em;}.cls-91{letter-spacing:-0.01em;}.cls-93{fill:#a78ab5;}.cls-94{stroke-dasharray:4.03 4.03;}.cls-95{font-size:38px;fill:#6c9;}.cls-100,.cls-101,.cls-102,.cls-103,.cls-104,.cls-105,.cls-106,.cls-107,.cls-108,.cls-109,.cls-110,.cls-111,.cls-112,.cls-113,.cls-114,.cls-115,.cls-116,.cls-117,.cls-122,.cls-123,.cls-124,.cls-125,.cls-96,.cls-97,.cls-98,.cls-99{font-size:12.71px;}.cls-127,.cls-96{letter-spacing:0em;}.cls-97{letter-spacing:-0.05em;}.cls-99{letter-spacing:-0.02em;}.cls-100,.cls-130{letter-spacing:-0.01em;}.cls-101,.cls-121{letter-spacing:0em;}.cls-102,.cls-126{letter-spacing:-0.01em;}.cls-103,.cls-119{letter-spacing:0em;}.cls-104{letter-spacing:0em;}.cls-105{letter-spacing:-0.01em;}.cls-106,.cls-133{letter-spacing:-0.02em;}.cls-107,.cls-132{letter-spacing:-0.02em;}.cls-108{letter-spacing:0em;}.cls-109{letter-spacing:-0.01em;}.cls-110,.cls-120{letter-spacing:-0.01em;}.cls-111{letter-spacing:0.02em;}.cls-112,.cls-118{letter-spacing:0.01em;}.cls-113{letter-spacing:-0.01em;}.cls-114{letter-spacing:-0.02em;}.cls-115,.cls-128{letter-spacing:-0.01em;}.cls-116{letter-spacing:0.01em;}.cls-122{letter-spacing:-0.01em;}.cls-123{letter-spacing:-0.01em;}.cls-124,.cls-131{letter-spacing:0.01em;}.cls-125{letter-spacing:0.01em;}.cls-129{letter-spacing:-0.01em;}.cls-134{letter-spacing:-0.01em;}.cls-135{letter-spacing:-0.03em;}</style><linearGradient id="linear-gradient" x1="-1048.88" y1="-4723.39" x2="-1011.46" y2="-4718.25" gradientTransform="translate(1236.56 4924.62)" gradientUnits="userSpaceOnUse"><stop offset="0.04" stop-color="#fff"/><stop offset="0.12" stop-color="#ddd"/><stop offset="0.28" stop-color="#9b9b9b"/><stop offset="0.43" stop-color="#646464"/><stop offset="0.57" stop-color="#383838"/><stop offset="0.69" stop-color="#1a1a1a"/><stop offset="0.8" stop-color="#070707"/><stop offset="0.87"/></linearGradient><linearGradient id="linear-gradient-2" x1="-4266.79" y1="1703.09" x2="-4229.36" y2="1708.23" gradientTransform="translate(-883.65 4731.28) rotate(126.02)" xlink:href="#linear-gradient"/><linearGradient id="linear-gradient-3" x1="-1470.95" y1="3460.04" x2="-1433.53" y2="3465.18" gradientTransform="translate(-1262.48 3769.8) rotate(180)" xlink:href="#linear-gradient"/><linearGradient id="linear-gradient-4" x1="2053.38" y1="-1452.65" x2="2090.8" y2="-1447.51" gradientTransform="translate(862.27 2658.69) rotate(-71.34)" xlink:href="#linear-gradient"/><linearGradient id="linear-gradient-5" x1="162.43" y1="218.31" x2="237.18" y2="293.05" gradientTransform="translate(239.27 -66.38) rotate(45)" gradientUnits="userSpaceOnUse"><stop offset="0" stop-color="#fff"/><stop offset="0.71" stop-color="#e6e6e6"/><stop offset="0.78" stop-color="#e1e1e1"/><stop offset="0.88" stop-color="#d2d2d2"/><stop offset="0.98" stop-color="#bababa"/><stop offset="1" stop-color="#b3b3b3"/></linearGradient><linearGradient id="Gradiente_sem_nome_55" x1="174.05" y1="155.27" x2="342.84" y2="281.32" gradientUnits="userSpaceOnUse"><stop offset="0" stop-color="#4358a2"/><stop offset="0.31" stop-color="#434db0"/><stop offset="0.91" stop-color="#432fd6"/><stop offset="1" stop-color="#432adc"/></linearGradient><linearGradient id="Gradiente_sem_nome_62" x1="58.53" y1="233.04" x2="221.9" y2="355.04" gradientUnits="userSpaceOnUse"><stop offset="0" stop-color="#6c9"/><stop offset="0.09" stop-color="#58c79a"/><stop offset="0.36" stop-color="#32ba9b"/><stop offset="0.61" stop-color="#16b19c"/><stop offset="0.83" stop-color="#06ab9d"/><stop offset="1" stop-color="#00a99d"/></linearGradient><linearGradient id="Gradiente_sem_nome_53" x1="111.55" y1="150.97" x2="217.36" y2="229.99" gradientUnits="userSpaceOnUse"><stop offset="0" stop-color="#064c64"/><stop offset="0.37" stop-color="#145771"/><stop offset="1" stop-color="#356f8e"/></linearGradient><linearGradient id="Gradiente_sem_nome_66" x1="167.06" y1="296.7" x2="272.52" y2="375.46" gradientUnits="userSpaceOnUse"><stop offset="0" stop-color="#ff5b42"/><stop offset="1" stop-color="#da3a40"/></linearGradient><mask id="mask" x="198.01" y="123.95" width="38.24" height="158.58" maskUnits="userSpaceOnUse"><path class="cls-1" d="M198,124V282.53l38.23-153.87A159,159,0,0,0,198,124Z"/></mask><linearGradient id="linear-gradient-6" x1="-1046.56" y1="-4736.54" x2="-1008.86" y2="-4731.68" gradientTransform="translate(1236.56 4924.62)" gradientUnits="userSpaceOnUse"><stop offset="0"/><stop offset="1" stop-color="#fff"/></linearGradient><mask id="mask-2" x="176.23" y="239.17" width="128.26" height="121.42" maskUnits="userSpaceOnUse"><path class="cls-2" d="M304.49,332.43l0,0L266.72,305l-90.49-65.79,102,121.41A158.86,158.86,0,0,0,304.49,332.43Z"/></mask><linearGradient id="linear-gradient-7" x1="-4264.46" y1="1689.89" x2="-4226.75" y2="1694.75" gradientTransform="translate(-883.65 4731.28) rotate(126.02)" xlink:href="#linear-gradient-6"/><mask id="mask-3" x="159.77" y="228.14" width="38.24" height="158.58" maskUnits="userSpaceOnUse"><path class="cls-3" d="M198,386.73V228.14L159.77,382A159,159,0,0,0,198,386.73Z"/></mask><linearGradient id="linear-gradient-8" x1="-1468.63" y1="3446.9" x2="-1430.93" y2="3451.76" gradientTransform="translate(-1262.48 3769.8) rotate(180)" xlink:href="#linear-gradient-6"/><mask id="mask-4" x="73.11" y="179.12" width="150.25" height="85.45" maskUnits="userSpaceOnUse"><path class="cls-4" d="M73.11,213.84l0,0,44.22,14.92,106,35.79L89.8,179.12A159,159,0,0,0,73.11,213.84Z"/></mask><linearGradient id="linear-gradient-9" x1="2055.7" y1="-1465.79" x2="2093.4" y2="-1460.93" gradientTransform="translate(862.27 2658.69) rotate(-71.34)" xlink:href="#linear-gradient-6"/><linearGradient id="Gradiente_sem_nome_3" x1="91.26" y1="33.54" x2="57.46" y2="14.03" gradientUnits="userSpaceOnUse"><stop offset="0" stop-color="#67bc9b"/><stop offset="0.2" stop-color="#66b89b"/><stop offset="0.4" stop-color="#61ac9c"/><stop offset="0.6" stop-color="#5a979e"/><stop offset="0.8" stop-color="#507ba0"/><stop offset="1" stop-color="#4358a3"/></linearGradient><linearGradient id="Gradiente_sem_nome_3-2" x1="62.93" y1="7.4" x2="107.26" y2="7.4" xlink:href="#Gradiente_sem_nome_3"/></defs><g class="cls-5"><g id="Camada_2" data-name="Camada 2"><g id="Camada_1-2" data-name="Camada 1"><path class="cls-6" d="M199.83,124.52A131.17,131.17,0,1,0,331,255.68,131.16,131.16,0,0,0,199.83,124.52Z"/><g class="cls-7"><circle class="cls-8" cx="205.28" cy="261.15" r="52.95" transform="translate(-96.48 400.02) rotate(-76.54)"/><circle class="cls-9" cx="205.16" cy="261.03" r="52.95" transform="translate(-97.49 397.53) rotate(-76.11)"/><circle class="cls-10" cx="205.04" cy="260.91" r="52.95" transform="translate(-98.51 394.99) rotate(-75.67)"/><circle class="cls-11" cx="204.92" cy="260.8" r="52.95" transform="translate(-99.53 392.38) rotate(-75.22)"/><circle class="cls-12" cx="204.8" cy="260.68" r="52.95" transform="translate(-100.56 389.71) rotate(-74.75)"/><circle class="cls-13" cx="204.68" cy="260.56" r="52.95" transform="translate(-101.59 386.98) rotate(-74.28)"/><circle class="cls-14" cx="204.56" cy="260.44" r="52.95" transform="translate(-102.62 384.18) rotate(-73.79)"/><circle class="cls-15" cx="204.44" cy="260.32" r="52.95" transform="translate(-103.65 381.31) rotate(-73.3)"/><circle class="cls-16" cx="204.33" cy="260.2" r="52.95" transform="translate(-104.68 378.38) rotate(-72.79)"/><circle class="cls-17" cx="204.21" cy="260.08" r="52.95" transform="translate(-105.71 375.38) rotate(-72.27)"/><circle class="cls-18" cx="204.09" cy="259.96" r="52.95" transform="translate(-106.73 372.31) rotate(-71.74)"/><circle class="cls-19" cx="203.97" cy="259.84" r="52.95" transform="translate(-107.75 369.18) rotate(-71.2)"/><circle class="cls-20" cx="203.85" cy="259.72" r="52.95" transform="translate(-108.75 365.98) rotate(-70.65)"/><circle class="cls-21" cx="203.73" cy="259.61" r="52.95" transform="translate(-109.75 362.71) rotate(-70.08)"/><circle class="cls-22" cx="203.61" cy="259.49" r="52.95" transform="translate(-110.73 359.38) rotate(-69.51)"/><circle class="cls-23" cx="203.49" cy="259.37" r="52.95" transform="translate(-111.7 355.97) rotate(-68.92)"/><circle class="cls-24" cx="203.37" cy="259.25" r="52.95" transform="translate(-112.65 352.51) rotate(-68.33)"/><circle class="cls-25" cx="203.26" cy="259.13" r="52.95" transform="translate(-113.59 348.97) rotate(-67.72)"/><circle class="cls-26" cx="203.14" cy="259.01" r="52.95" transform="translate(-114.5 345.38) rotate(-67.11)"/><circle class="cls-27" cx="203.02" cy="258.89" r="52.95" transform="translate(-115.38 341.73) rotate(-66.48)"/><circle class="cls-28" cx="202.9" cy="258.77" r="52.95" transform="translate(-116.25 338.01) rotate(-65.84)"/><circle class="cls-29" cx="202.78" cy="258.65" r="52.95" transform="translate(-117.08 334.24) rotate(-65.2)"/><circle class="cls-30" cx="202.66" cy="258.54" r="52.95" transform="translate(-117.88 330.42) rotate(-64.55)"/><circle class="cls-31" cx="202.54" cy="258.42" r="52.95" transform="translate(-118.64 326.55) rotate(-63.89)"/><circle class="cls-32" cx="202.42" cy="258.3" r="52.95" transform="translate(-119.38 322.63) rotate(-63.22)"/><circle class="cls-33" cx="202.3" cy="258.18" r="52.95" transform="translate(-120.07 318.67) rotate(-62.55)"/><circle class="cls-34" cx="202.19" cy="258.06" r="52.95" transform="translate(-120.72 314.66) rotate(-61.86)"/><circle class="cls-35" cx="202.07" cy="257.94" r="52.95" transform="translate(-121.34 310.63) rotate(-61.18)"/><circle class="cls-36" cx="201.95" cy="257.82" r="52.95" transform="translate(-121.9 306.56) rotate(-60.49)"/><circle class="cls-37" cx="201.83" cy="257.7" r="52.95" transform="translate(-122.43 302.47) rotate(-59.79)"/><circle class="cls-38" cx="201.71" cy="257.58" r="52.95" transform="translate(-122.9 298.36) rotate(-59.1)"/><circle class="cls-39" cx="201.59" cy="257.47" r="52.95" transform="translate(-123.33 294.23) rotate(-58.4)"/><circle class="cls-40" cx="201.47" cy="257.35" r="52.95" transform="translate(-123.71 290.1) rotate(-57.69)"/><circle class="cls-41" cx="201.35" cy="257.23" r="52.95" transform="translate(-124.05 285.95) rotate(-56.99)"/><circle class="cls-42" cx="201.23" cy="257.11" r="52.95" transform="translate(-124.33 281.81) rotate(-56.29)"/><circle class="cls-43" cx="201.12" cy="256.99" r="52.95" transform="matrix(0.57, -0.83, 0.83, 0.57, -124.56, 277.68)"/><circle class="cls-44" cx="201" cy="256.87" r="52.95" transform="translate(-124.74 273.56) rotate(-54.89)"/><circle class="cls-45" cx="200.88" cy="256.75" r="52.95" transform="translate(-124.87 269.45) rotate(-54.19)"/><circle class="cls-46" cx="200.76" cy="256.63" r="52.95" transform="translate(-124.95 265.37) rotate(-53.5)"/><circle class="cls-47" cx="200.64" cy="256.51" r="52.95" transform="translate(-124.99 261.31) rotate(-52.81)"/><circle class="cls-48" cx="200.52" cy="256.4" r="52.95" transform="translate(-124.97 257.29) rotate(-52.13)"/><circle class="cls-49" cx="200.4" cy="256.28" r="52.95" transform="translate(-124.91 253.3) rotate(-51.45)"/><circle class="cls-50" cx="200.28" cy="256.16" r="52.95" transform="translate(-122.47 216.65) rotate(-45)"/><circle class="cls-51" cx="200.16" cy="256.04" r="52.95" transform="translate(-122.42 216.53) rotate(-45)"/><circle class="cls-52" cx="200.05" cy="255.92" r="52.95" transform="translate(-122.37 216.41) rotate(-45)"/><circle class="cls-53" cx="199.93" cy="255.8" r="52.95" transform="translate(-122.32 216.29) rotate(-45)"/><circle class="cls-54" cx="199.81" cy="255.68" r="52.95" transform="translate(-122.27 216.17) rotate(-45)"/></g><circle class="cls-55" cx="199.76" cy="255.64" r="52.91" transform="translate(-122.25 216.13) rotate(-45)"/><path class="cls-56" d="M304.49,332.33A131.44,131.44,0,0,0,198,123.82l.24,131.51Z"/><path class="cls-57" d="M198,386.67A131.53,131.53,0,0,1,73.19,214.06l125.08,41.27Z"/><path class="cls-58" d="M198,123.82A131.48,131.48,0,0,0,73.19,214.06l125.08,41.27Z"/><path class="cls-59" d="M304.49,332.41A131.24,131.24,0,0,1,198,386.75l.24-131.42Z"/><g class="cls-60"><path class="cls-61" d="M198,124v46.7l.26,84.68,38-126.67A159,159,0,0,0,198,124Z"/></g><g class="cls-62"><path class="cls-63" d="M304.49,332.43l0,0L266.72,305l-68.45-49.63,79.92,105.25A158.86,158.86,0,0,0,304.49,332.43Z"/></g><g class="cls-64"><path class="cls-65" d="M198,386.73V340l-.26-84.67L159.77,382A159,159,0,0,0,198,386.73Z"/></g><g class="cls-66"><path class="cls-67" d="M73.11,213.84l0,0,44.22,14.92,80.3,26.85L89.8,179.12A159,159,0,0,0,73.11,213.84Z"/></g><circle class="cls-68" cx="199.76" cy="255.64" r="41.1" transform="matrix(0.12, -0.99, 0.99, 0.12, -77.17, 424.65)"/><line class="cls-69" x1="136.4" y1="354.49" x2="134.4" y2="354.49"/><line class="cls-70" x1="130.39" y1="354.49" x2="4.01" y2="354.49"/><line class="cls-69" x1="2" y1="354.49" y2="354.49"/><line class="cls-69" x1="457.39" y1="217.38" x2="455.39" y2="217.38"/><line class="cls-71" x1="451.32" y1="217.38" x2="298.6" y2="217.38"/><line class="cls-69" x1="296.56" y1="217.38" x2="294.56" y2="217.38"/><line class="cls-69" x1="230.08" y1="467.04" x2="230.08" y2="465.04"/><line class="cls-72" x1="230.08" y1="460.94" x2="230.08" y2="364.63"/><line class="cls-69" x1="230.08" y1="362.58" x2="230.08" y2="360.58"/><line class="cls-69" x1="102.83" y1="194.71" x2="102.83" y2="192.71"/><line class="cls-72" x1="102.83" y1="188.62" x2="102.83" y2="92.31"/><line class="cls-69" x1="102.83" y1="90.26" x2="102.83" y2="88.26"/><text class="cls-73" transform="translate(77.37 95.97)">I<tspan class="cls-74" x="3.35" y="0">C</tspan><tspan x="10.68" y="0">O</tspan></text><g class="cls-75"><text class="cls-76" transform="translate(109.19 106.24)">2<tspan class="cls-77" x="6" y="0">0.</tspan><tspan class="cls-78" x="15.35" y="0">0%</tspan></text></g><text class="cls-73" transform="translate(351.79 211.36)"><tspan class="cls-79">C</tspan><tspan x="7.34" y="0">ASHB</tspan><tspan class="cls-80" x="37.74" y="0">A</tspan><tspan class="cls-81" x="45.46" y="0">CK </tspan><tspan class="cls-74" x="63.4" y="0">SY</tspan><tspan class="cls-80" x="76.51" y="0">S</tspan><tspan x="82.92" y="0">TEM</tspan></text><g class="cls-75"><text class="cls-73" transform="translate(427.56 230.85)"><tspan class="cls-80">3</tspan><tspan x="5.94" y="0">5</tspan><tspan class="cls-77" x="12.02" y="0">.</tspan><tspan x="14.56" y="0">0%</tspan></text></g><text class="cls-73" transform="translate(0.18 348.33)"><tspan class="cls-74">W</tspan><tspan x="11.72" y="0">EBET FUND</tspan></text><g class="cls-75"><text class="cls-73" transform="translate(0.99 367.81)">3<tspan class="cls-77" x="6.05" y="0">0.</tspan><tspan x="15.39" y="0">0%</tspan></text></g><text class="cls-73" transform="translate(235.45 467.04)">REFERRAL <tspan class="cls-74" x="59.63" y="0">SY</tspan><tspan class="cls-80" x="72.74" y="0">S</tspan><tspan x="79.15" y="0">TEM</tspan></text><g class="cls-75"><text class="cls-73" transform="translate(195.77 455.98)">15<tspan class="cls-82" x="10.08" y="0">.</tspan><tspan x="12.62" y="0">0%</tspan></text></g><path class="cls-83" d="M61.46,24.67l5.65,5.65.13.15a1.78,1.78,0,0,1,.23.31,2.56,2.56,0,0,1-2.1,3.76,2.63,2.63,0,0,1-1.75-.73L53.76,24a2.34,2.34,0,0,1-.25-.3,2.55,2.55,0,0,1,1.61-3.88,1.63,1.63,0,0,1,.38,0H95.16a2.5,2.5,0,0,1,.38.06A2.57,2.57,0,0,1,96.71,24a2.65,2.65,0,0,1-1.74.72Z"/><path class="cls-84" d="M104.83,14.8H65.37a1.71,1.71,0,0,1-.39,0,2.56,2.56,0,0,1-1.81-3.55,2.6,2.6,0,0,1,2.2-1.35H98.88L93.22,4.22l-.13-.15a1.78,1.78,0,0,1-.23-.31A2.57,2.57,0,0,1,94.58,0a2.44,2.44,0,0,1,.58,0,2.5,2.5,0,0,1,.38.06,2.74,2.74,0,0,1,1.17.66l9.86,9.86a3.73,3.73,0,0,1,.26.3,2.56,2.56,0,0,1-.71,3.55,2.45,2.45,0,0,1-.9.33A1.71,1.71,0,0,1,104.83,14.8Z"/><path class="cls-85" d="M87.35,43.49H84L82,38.69l-2,4.8H76.6L74.31,30.82h3l1.43,7.84L82,31.15l3.23,7.51,1.43-7.84h3Z"/><path class="cls-85" d="M96.82,43.49a6.33,6.33,0,0,1-4.36-1.74,6.38,6.38,0,0,1-1.45-2,6.21,6.21,0,0,1-.55-2.32v-.2a6.46,6.46,0,0,1,.43-2.32,6.29,6.29,0,0,1,1.3-2,5.9,5.9,0,0,1,2.06-1.45,6.18,6.18,0,0,1,2.38-.55h.14a6.45,6.45,0,0,1,4.36,1.75A9.83,9.83,0,0,1,103.18,36l-8.49,3.73a4.27,4.27,0,0,0,.89.53,3.4,3.4,0,0,0,1.2.23h.13a3.69,3.69,0,0,0,1.22-.29,3.45,3.45,0,0,0,1.07-.75,3.9,3.9,0,0,0,.68-1.06l2.8,1.07a6.46,6.46,0,0,1-1.29,2.05,6,6,0,0,1-2,1.44,6.08,6.08,0,0,1-2.33.56Zm-.13-9.65a3.38,3.38,0,0,0-2.32,1,4.29,4.29,0,0,0-.66,1.06,3.41,3.41,0,0,0-.23,1l5.4-2.38a3.65,3.65,0,0,0-.87-.52,3.48,3.48,0,0,0-1.27-.23Z"/><path class="cls-85" d="M104.49,21.45h3v10.3a6.22,6.22,0,0,1,3.36-.94,6.34,6.34,0,0,1,4.48,10.82,6.34,6.34,0,0,1-10.81-4.48Zm4,13.35a3.25,3.25,0,0,0-1,2.35,3.28,3.28,0,0,0,3.3,3.32,3.31,3.31,0,0,0,3.32-3.32,3.32,3.32,0,0,0-5.67-2.35Z"/><path class="cls-85" d="M125.14,43.49a6.37,6.37,0,0,1-2.32-.44,6.44,6.44,0,0,1-2-1.3,6.35,6.35,0,0,1-1.44-2,5.85,5.85,0,0,1-.55-2.32v-.2a6.31,6.31,0,0,1,1.72-4.36,6,6,0,0,1,2.06-1.45,6.27,6.27,0,0,1,2.39-.55h.13a6.11,6.11,0,0,1,2.32.45,6.22,6.22,0,0,1,2,1.3,9.83,9.83,0,0,1,2,3.41L123,39.71a4.27,4.27,0,0,0,.89.53,3.36,3.36,0,0,0,1.2.23h.13a3.63,3.63,0,0,0,1.21-.29,3.38,3.38,0,0,0,1.08-.75,4.11,4.11,0,0,0,.67-1.06L131,39.44a6.32,6.32,0,0,1-1.3,2.05,6,6,0,0,1-2,1.44,6.18,6.18,0,0,1-2.34.56ZM125,33.84a3.29,3.29,0,0,0-1.22.28,3.39,3.39,0,0,0-1.1.76,5,5,0,0,0-.66,1.06,3.39,3.39,0,0,0-.22,1l5.4-2.38a3.52,3.52,0,0,0-.88-.52,3.39,3.39,0,0,0-1.26-.23Z"/><path class="cls-85" d="M131,27.26l3.85-5.81h1.42v4.23h2.43v2.84h-2.43v15h-2.83v-15H131"/><text class="cls-86" transform="translate(152.57 30.82)"><tspan class="cls-87">T</tspan><tspan class="cls-88" x="13.52" y="0">OKEN </tspan><tspan class="cls-89" x="84.66" y="0">P</tspan><tspan class="cls-90" x="99.31" y="0">A</tspan><tspan class="cls-91" x="116.23" y="0">R</tspan><tspan x="131.65" y="0">TITION</tspan></text><g class="cls-92"><path class="cls-93" d="M969.38,317.8c-.52,94.54-80.56,170.22-178.8,169S613.14,408,613.65,313.44s80.55-170.18,178.78-169S969.9,223.26,969.38,317.8Z"/></g><rect class="cls-68" x="479.97" y="53.56" width="490.41" height="459.21" rx="41.17"/><line class="cls-69" x1="519.68" y1="88.26" x2="519.68" y2="90.26"/><line class="cls-94" x1="519.68" y1="94.29" x2="519.68" y2="463.02"/><line class="cls-69" x1="519.68" y1="465.04" x2="519.68" y2="467.04"/><text class="cls-95" transform="translate(556.75 121.98)">.<tspan class="cls-96" x="9.96" y="0"> </tspan><tspan class="cls-97" x="13.55" y="0">T</tspan><tspan class="cls-98" x="20.7" y="0">o</tspan><tspan class="cls-99" x="29.03" y="0">k</tspan><tspan class="cls-98" x="37.12" y="0">en </tspan><tspan class="cls-100" x="57.51" y="0">P</tspan><tspan class="cls-101" x="66.68" y="0">r</tspan><tspan class="cls-98" x="72.11" y="0">i</tspan><tspan class="cls-102" x="75.93" y="0">c</tspan><tspan class="cls-103" x="83.35" y="0">e</tspan><tspan x="0" y="40.52">.</tspan><tspan class="cls-96" x="9.96" y="40.52"> </tspan><tspan class="cls-97" x="13.55" y="40.52">T</tspan><tspan class="cls-98" x="20.7" y="40.52">otal suppl</tspan><tspan class="cls-104" x="86.64" y="40.52">y</tspan><tspan class="cls-98" x="94.29" y="40.52">: 500 Million</tspan><tspan x="0" y="81.04">.</tspan><tspan class="cls-96" x="9.96" y="81.04"> </tspan><tspan class="cls-105" x="13.55" y="81.04">P</tspan><tspan class="cls-101" x="22.72" y="81.04">r</tspan><tspan class="cls-98" x="28.15" y="81.04">i</tspan><tspan class="cls-106" x="31.97" y="81.04">v</tspan><tspan class="cls-98" x="39.34" y="81.04">a</tspan><tspan class="cls-107" x="47.18" y="81.04">t</tspan><tspan class="cls-98" x="52.49" y="81.04">e Sale </tspan><tspan class="cls-100" x="95.49" y="81.04">P</tspan><tspan class="cls-108" x="104.66" y="81.04">r</tspan><tspan class="cls-98" x="110.08" y="81.04">i</tspan><tspan class="cls-102" x="113.91" y="81.04">c</tspan><tspan class="cls-98" x="121.33" y="81.04">e: $</tspan><tspan class="cls-109" x="144.37" y="81.04">0.</tspan><tspan class="cls-96" x="156" y="81.04">05</tspan><tspan x="0" y="121.56">.</tspan><tspan class="cls-96" x="9.96" y="121.56" xml:space="preserve"> I</tspan><tspan class="cls-110" x="17.72" y="121.56">C</tspan><tspan class="cls-98" x="26.84" y="121.56">O sta</tspan><tspan class="cls-111" x="61.27" y="121.56">r</tspan><tspan class="cls-98" x="66.94" y="121.56">ti</tspan><tspan class="cls-112" x="76.29" y="121.56">n</tspan><tspan class="cls-98" x="85.14" y="121.56">g p</tspan><tspan class="cls-108" x="106.4" y="121.56">r</tspan><tspan class="cls-98" x="111.82" y="121.56">i</tspan><tspan class="cls-113" x="115.65" y="121.56">c</tspan><tspan class="cls-103" x="123.07" y="121.56">e: $</tspan><tspan class="cls-109" x="146.11" y="121.56">0.</tspan><tspan class="cls-101" x="157.74" y="121.56">0</tspan><tspan class="cls-107" x="166.32" y="121.56">7</tspan><tspan class="cls-98" x="173.98" y="121.56">5</tspan><tspan x="0" y="162.08">.</tspan><tspan class="cls-96" x="9.96" y="162.08" xml:space="preserve"> I</tspan><tspan class="cls-110" x="17.72" y="162.08">C</tspan><tspan class="cls-98" x="26.84" y="162.08">O final p</tspan><tspan class="cls-101" x="83.72" y="162.08">r</tspan><tspan class="cls-98" x="89.15" y="162.08">i</tspan><tspan class="cls-102" x="92.97" y="162.08">c</tspan><tspan class="cls-98" x="100.39" y="162.08">e: $</tspan><tspan class="cls-109" x="123.44" y="162.08">0</tspan><tspan class="cls-114" x="131.9" y="162.08">.</tspan><tspan class="cls-98" x="135.02" y="162.08">1</tspan><tspan x="0" y="202.59">.</tspan><tspan class="cls-96" x="9.96" y="202.59" xml:space="preserve"> All t</tspan><tspan class="cls-112" x="40.05" y="202.59">h</tspan><tspan class="cls-98" x="48.91" y="202.59">e </tspan><tspan class="cls-102" x="60.52" y="202.59">c</tspan><tspan class="cls-96" x="67.94" y="202.59">oins that a</tspan><tspan class="cls-115" x="138.31" y="202.59">r</tspan><tspan class="cls-98" x="143.68" y="202.59">e</tspan><tspan class="cls-101" x="151.69" y="202.59">n</tspan><tspan class="cls-116" x="160.42" y="202.59">’</tspan><tspan class="cls-103" x="163.83" y="202.59">t sold on</tspan><tspan class="cls-117"><tspan x="0" y="222.85">t</tspan><tspan class="cls-118" x="5.53" y="222.85">h</tspan><tspan class="cls-119" x="14.38" y="222.85">e I</tspan><tspan class="cls-120" x="30.16" y="222.85">C</tspan><tspan class="cls-119" x="39.28" y="222.85">O will be bu</tspan><tspan class="cls-121" x="118.45" y="222.85">r</tspan><tspan class="cls-118" x="123.87" y="222.85">n</tspan><tspan x="132.73" y="222.85">ed.</tspan></tspan><tspan x="0" y="263.37">.</tspan><tspan class="cls-96" x="9.96" y="263.37"> </tspan><tspan class="cls-97" x="13.55" y="263.37">W</tspan><tspan class="cls-98" x="27.63" y="263.37">ebet </tspan><tspan class="cls-122" x="61.55" y="263.37">F</tspan><tspan class="cls-98" x="69.49" y="263.37">u</tspan><tspan class="cls-112" x="78.22" y="263.37">n</tspan><tspan class="cls-98" x="87.08" y="263.37">ds a</tspan><tspan class="cls-123" x="114.05" y="263.37">r</tspan><tspan class="cls-98" x="119.41" y="263.37">e ti</tspan><tspan class="cls-124" x="140.37" y="263.37">m</tspan><tspan class="cls-125" x="153.78" y="263.37">e</tspan><tspan class="cls-98" x="161.92" y="263.37">-lo</tspan><tspan class="cls-101" x="178.97" y="263.37">c</tspan><tspan class="cls-99" x="186.43" y="263.37">k</tspan><tspan class="cls-103" x="194.52" y="263.37">ed a</tspan><tspan class="cls-112" x="222.76" y="263.37">n</tspan><tspan class="cls-98" x="231.62" y="263.37">d will be used</tspan><tspan class="cls-117"><tspan class="cls-126" x="0" y="283.63">f</tspan><tspan class="cls-127" x="4.83" y="283.63">or futu</tspan><tspan class="cls-128" x="50.12" y="283.63">r</tspan><tspan x="55.48" y="283.63">e </tspan><tspan class="cls-126" x="67.1" y="283.63">c</tspan><tspan class="cls-127" x="74.52" y="283.63">om</tspan><tspan class="cls-129" x="96.17" y="283.63">p</tspan><tspan x="104.82" y="283.63">a</tspan><tspan class="cls-130" x="112.66" y="283.63">n</tspan><tspan x="121.31" y="283.63">y d</tspan><tspan class="cls-130" x="141.29" y="283.63">e</tspan><tspan class="cls-120" x="149.18" y="283.63">v</tspan><tspan x="156.59" y="283.63">elop</tspan><tspan class="cls-131" x="185.52" y="283.63">m</tspan><tspan x="198.92" y="283.63">ent si</tspan><tspan class="cls-118" x="235.41" y="283.63">n</tspan><tspan class="cls-126" x="244.27" y="283.63">c</tspan><tspan x="251.69" y="283.63">e t</tspan><tspan class="cls-118" x="268.83" y="283.63">h</tspan><tspan x="277.68" y="283.63">e aim</tspan><tspan x="0" y="303.89">is </tspan><tspan class="cls-132" x="14.17" y="303.89">t</tspan><tspan x="19.48" y="303.89">o h</tspan><tspan class="cls-130" x="40.17" y="303.89">a</tspan><tspan class="cls-120" x="47.88" y="303.89">v</tspan><tspan x="55.29" y="303.89">e </tspan><tspan class="cls-118" x="66.9" y="303.89">n</tspan><tspan class="cls-127" x="75.76" y="303.89">o </tspan><tspan class="cls-126" x="87.68" y="303.89">f</tspan><tspan x="92.5" y="303.89">ees, it</tspan><tspan class="cls-133" x="131.56" y="303.89">’</tspan><tspan x="134.66" y="303.89">s t</tspan><tspan class="cls-118" x="150.53" y="303.89">h</tspan><tspan x="159.38" y="303.89">e only </tspan><tspan class="cls-118" x="203.11" y="303.89">m</tspan><tspan class="cls-134" x="216.52" y="303.89">e</tspan><tspan x="224.34" y="303.89">an of sustain</tspan><tspan class="cls-126" x="0" y="324.15">f</tspan><tspan class="cls-127" x="4.83" y="324.15">or t</tspan><tspan class="cls-118" x="27.75" y="324.15">h</tspan><tspan x="36.6" y="324.15">e </tspan><tspan class="cls-126" x="48.22" y="324.15">c</tspan><tspan class="cls-127" x="55.64" y="324.15">om</tspan><tspan class="cls-129" x="77.29" y="324.15">p</tspan><tspan x="85.94" y="324.15">a</tspan><tspan class="cls-130" x="93.78" y="324.15">n</tspan><tspan class="cls-135" x="102.43" y="324.15">y</tspan><tspan class="cls-127" x="109.62" y="324.15">.</tspan></tspan></text></g></g></g></svg>