<svg xmlns="http://www.w3.org/2000/svg" viewBox="0 0 27.86 30.53"><defs><style>.cls-1{fill:#6c9;}</style></defs><g id="Camada_2" data-name="Camada 2"><g id="Background"><path class="cls-1" d="M13.66,17.3a8.65,8.65,0,1,1,8.65-8.65A8.66,8.66,0,0,1,13.66,17.3Zm0-16.3a7.65,7.65,0,1,0,7.65,7.65A7.66,7.66,0,0,0,13.66,1Z"/><path class="cls-1" d="M.56,30.53a.51.51,0,0,1-.5-.45c0-.24-.6-6,2.34-9.28a7,7,0,0,1,5.37-2.26H20.12a7.89,7.89,0,0,1,5.14,2.54c1.88,2.05,2.74,5.06,2.57,9a.53.53,0,0,1-.52.48.5.5,0,0,1-.48-.52c.16-3.62-.62-6.39-2.31-8.23a7,7,0,0,0-4.42-2.22H7.78a6,6,0,0,0-4.63,1.92c-2.65,3-2.1,8.46-2.09,8.51a.5.5,0,0,1-.45.55Z"/><path class="cls-1" d="M13.38,13.86h-.16a4.4,4.4,0,0,1-3-1.66.5.5,0,0,1,.1-.7.51.51,0,0,1,.7.1,3.42,3.42,0,0,0,2.24,1.26,3.25,3.25,0,0,0,2.51-1.3.51.51,0,0,1,.71,0,.5.5,0,0,1,0,.71A4.32,4.32,0,0,1,13.38,13.86Z"/></g></g></svg>