<svg xmlns="http://www.w3.org/2000/svg" viewBox="0 0 37.01 37.01"><defs><style>.cls-1{fill:#fff;}.cls-2,.cls-3{fill:#18132d;}.cls-3{fill-rule:evenodd;}</style></defs><g id="Camada_2" data-name="Camada 2"><g id="Background"><circle class="cls-1" cx="18.51" cy="18.51" r="18.51" transform="translate(-5.71 8.58) rotate(-22.71)"/><path class="cls-2" d="M8.51,29l1.54-5.76a10.65,10.65,0,1,1,4.24,4.21Zm6.07-3.71.37.22a8.64,8.64,0,1,0-3-2.93l.22.36-.86,3.22Z"/><path class="cls-3" d="M23.3,19.57a1.76,1.76,0,0,0-1.52-.35c-.4.16-.65.78-.9,1.1a.39.39,0,0,1-.49.11,7,7,0,0,1-3.45-2.95A.43.43,0,0,1,17,16.9a2.23,2.23,0,0,0,.62-1,2.11,2.11,0,0,0-.28-1.2,2.82,2.82,0,0,0-.88-1.34,1.21,1.21,0,0,0-1.32.2,2.64,2.64,0,0,0-.93,2.12,3.07,3.07,0,0,0,.08.67,5.49,5.49,0,0,0,.65,1.49,11.33,11.33,0,0,0,.67,1,10.52,10.52,0,0,0,2.93,2.71,8.7,8.7,0,0,0,1.82.87,4.1,4.1,0,0,0,2.13.34,2.6,2.6,0,0,0,1.92-1.44,1.22,1.22,0,0,0,.09-.73C24.39,20.11,23.71,19.81,23.3,19.57Z"/></g></g></svg>